Mono16Normal.sfdir
StartChar: numbersign
Encoding: 35 35 58
Width: 1024
VWidth: 0
Flags: W
HStem: 0 21G<234 365.216 618 749.216> 388 120<128 251 406 635 790 1024> 908 120<128 362 517 746 901 1024> 1396 20G<402.784 534 786.784 918>
VStem: 251 128<508 660.227> 389 128<755.773 908> 635 128<508 660.227> 773 128<755.773 908>
LayerCount: 5
Back
SplineSet
640 -380 m 29
 896 1916 l 1053
256 -380 m 29
 512 1916 l 1053
1024 1148 m 5
 1024 1028 l 5
 128 1028 l 5
 128 1148 l 5
 1024 1148 l 5
1024 508 m 5
 1024 388 l 5
 128 388 l 5
 128 508 l 5
 1024 508 l 5
EndSplineSet
Fore
SplineSet
773 908 m 1
 517 908 l 1
 517 762 379 654 379 508 c 1
 635 508 l 1
 635 654 773 762 773 908 c 1
901 908 m 1
 901 762 763 654 763 508 c 1
 1024 508 l 1
 1024 388 l 1
 790 388 l 1
 747 0 l 1
 618 0 l 1
 661 388 l 1
 406 388 l 1
 363 0 l 1
 234 0 l 1
 277 388 l 1
 128 388 l 1
 128 508 l 1
 251 508 l 1
 251 654 389 762 389 908 c 1
 128 908 l 1
 128 1028 l 1
 362 1028 l 1
 405 1416 l 1
 534 1416 l 1
 491 1028 l 1
 746 1028 l 1
 789 1416 l 1
 918 1416 l 1
 875 1028 l 1
 1024 1028 l 1
 1024 908 l 1
 901 908 l 1
EndSplineSet
Layer: 2
Layer: 3
Layer: 4
EndChar
StartChar: dollar
Encoding: 36 36 59
Width: 1024
VWidth: 0
Flags: W
HStem: 0 21G<512 640> 114 120<234.559 512 640 827.859> 632 119<640 833.566> 1388 20G<512 640>
VStem: 152 128<846.214 1100.13> 512 128<0 115.804 234 632 761 1173 1289.49 1408> 912 128<308.569 561.816>
LayerCount: 5
Back
SplineSet
570 1176 m 4
 379 1176 280 1110.08955224 280 972 c 4
 280 864.751091703 337.739700627 818.922319309 412 787 c 4
 522.405943659 739.539730962 660.002905153 764.937645721 792 731 c 4
 920.272533605 698.019972627 1040 619.184971098 1040 439 c 4
 1040 235.953964194 897 112 582 112 c 4
 445.999571064 112 276.137488157 138.906425071 128 167.293945312 c 5
 128 290.702148438 l 5
 276.307880797 261.064506439 449.031552658 232 582 232 c 4
 814 232 912 285.881918819 912 439 c 4
 912 564.726495726 832.271583407 600.89824245 744 619 c 4
 613.259301112 645.810852846 486.643107786 618.942672821 348 683 c 4
 239.790392331 732.996125686 152 816.612612613 152 972 c 4
 152 1157.31958763 288 1296 570 1296 c 4
 689.178791387 1296 853.581259254 1264.71341786 994 1232.71972656 c 5
 994 1108.33203125 l 5
 852.819887124 1141.8337307 686.259603955 1176 570 1176 c 4
EndSplineSet
Fore
SplineSet
512 1174 m 1
 359 1161 280 1095 280 972 c 0
 280 865 338 819 412 787 c 0
 443 774 477 766 512 761 c 1
 512 1174 l 1
512 114 m 1
 405.885416667 121 285.854166667 143 178 167 c 1
 178 291 l 1
 284.984375 266 407.625 241 512 234 c 1
 512 640 l 1
 459 646 404 657 348 683 c 0
 240 733 152 817 152 972 c 0
 152 1144 269 1276 512 1294 c 1
 512 1408 l 1
 640 1408 l 1
 640 1293 l 1
 733.604519774 1284 845.242937853 1259 944 1233 c 5
 944 1108 l 5
 845.242937853 1135 732.745762712 1164 640 1173 c 1
 640 751 l 1
 690 748 742 744 792 731 c 0
 920 698 1040 619 1040 439 c 0
 1040 249 915 128 640 113 c 1
 640 0 l 1
 512 0 l 1
 512 114 l 1
640 233 m 1
 830 242 912 299 912 439 c 0
 912 565 832 601 744 619 c 0
 709 626 675 630 640 632 c 1
 640 233 l 1
EndSplineSet
Layer: 2
Layer: 3
Layer: 4
EndChar
StartChar: quotesingle
Encoding: 39 39 62
Width: 1024
VWidth: 0
Flags: W
HStem: 896 640<512 640>
VStem: 512 128<896 1536>
LayerCount: 5
Back
Fore
SplineSet
512 1536 m 5
 640 1536 l 5
 640 896 l 5
 512 896 l 5
 512 1536 l 5
EndSplineSet
Layer: 2
Layer: 3
Layer: 4
EndChar
StartChar: parenright
Encoding: 41 41 64
Width: 1024
VWidth: 0
Flags: W
VStem: 664 128<392.917 1013.96>
LayerCount: 5
Back
Fore
SplineSet
318 -128 m 5
 534 90 664 395 664 703 c 4
 664 1012 534 1318 318 1536 c 5
 486 1536 l 5
 680 1304 792 1005 792 703 c 4
 792 402 679 103 486 -128 c 5
 318 -128 l 5
EndSplineSet
Layer: 2
Layer: 3
Layer: 4
EndChar
StartChar: period
Encoding: 46 46 68
Width: 1024
VWidth: 0
Flags: W
HStem: 0 256<384 640>
VStem: 384 256<0 256>
LayerCount: 5
Back
Fore
SplineSet
384 256 m 1
 640 256 l 1
 640 0 l 1
 384 0 l 1
 384 256 l 1
EndSplineSet
Layer: 2
Layer: 3
Layer: 4
EndChar
StartChar: seven
Encoding: 55 55 77
Width: 1024
VWidth: 0
Flags: W
HStem: 0 21G<363 498.586> 1288 120<226 791>
LayerCount: 5
Back
Fore
SplineSet
226 1288 m 1
 226 1408 l 1
 926 1408 l 1
 926 1318 l 1
 492 0 l 1
 363 0 l 1
 791 1278 l 1
 791 1288 l 1
 226 1288 l 1
EndSplineSet
Layer: 2
Layer: 3
Layer: 4
EndChar
StartChar: less
Encoding: 60 60 82
Width: 1024
VWidth: 0
Flags: W
VStem: 256 639
LayerCount: 5
Back
SplineSet
136 67 m 5
 857 576 l 5
 136 1085 l 1029
EndSplineSet
Fore
SplineSet
895 355 m 1
 895 205 l 1
 256 656 l 1
 256 752 l 1
 895 1203 l 1
 895 1053 l 1
 400 709 l 1
 400 699 l 1
 895 355 l 1
EndSplineSet
Layer: 2
Layer: 3
Layer: 4
EndChar
StartChar: at
Encoding: 64 64 86
Width: 1024
VWidth: 0
Flags: W
HStem: 0 120<393.94 1024> 368 120<576.403 802.068> 896 110<578.102 896> 1288 120<393.94 818.438>
VStem: 128 128<258.128 1149.87> 384 128<553.682 827.733> 896 128<384 507 577.507 896 1006 1211.6>
LayerCount: 5
Back
Fore
SplineSet
896 805 m 6
 896 896 l 5
 732 896 l 6
 677 896 619 896 568 842 c 4
 532 804 512 746 512 687 c 4
 512 578 585 488 692 488 c 4
 782 488 844 548 874 619 c 4
 896 671 896 733 896 805 c 6
896 1006 m 5
 896 1054 896 1100 886 1139 c 4
 868 1211 821 1259 748 1278 c 4
 714 1287 673 1288 627 1288 c 4
 568 1288 513 1287 466 1275 c 4
 362 1248 296 1180 269 1075 c 4
 256 1024 256 972 256 913 c 6
 256 495 l 6
 256 436 256 384 269 333 c 4
 295 228 362 160 466 133 c 4
 513 121 568 120 627 120 c 6
 1024 120 l 5
 1024 0 l 5
 627 0 l 6
 567 0 501 0 433 17 c 4
 291 52 181 152 144 307 c 4
 128 374 128 436 128 495 c 6
 128 913 l 6
 128 972 128 1034 144 1101 c 4
 181 1256 291 1356 433 1391 c 4
 501 1408 567 1408 627 1408 c 4
 674 1408 726 1408 781 1394 c 4
 899 1364 982 1282 1011 1164 c 4
 1024 1112 1024 1061 1024 1016 c 6
 1024 384 l 5
 896 384 l 5
 896 507 l 5
 886 507 l 5
 830 419 763 368 668 368 c 4
 615 368 507 394 443 490 c 4
 409 541 384 608 384 685 c 4
 384 767 409 854 472 917 c 4
 562 1006 672 1006 734 1006 c 6
 896 1006 l 5
EndSplineSet
Layer: 2
Layer: 3
Layer: 4
EndChar
StartChar: A
Encoding: 65 65 29
Width: 1024
VWidth: 0
Flags: W
HStem: 0 21G<103 243.5 908.5 1049> 388 120<316 836> 1289 119<549.995 602.005>
VStem: 103 135<0 322.307> 914 135<0 322.307>
LayerCount: 5
Back
Fore
SplineSet
836 508 m 1
 768.576335878 800 695.580152672 1061 581 1289 c 1
 571 1289 l 1
 456.419847328 1061 383.423664122 800 316 508 c 1
 836 508 l 1
103 0 m 1
 156.467312349 496 267.232445521 971 511 1408 c 1
 641 1408 l 1
 884.888619855 971 995.653753027 496 1049 0 c 1
 914 0 l 1
 903 136 882.7 265 859 388 c 1
 293 388 l 1
 274.3 265 249 136 238 0 c 1
 103 0 l 1
EndSplineSet
Layer: 2
Layer: 3
Layer: 4
EndChar
StartChar: C
Encoding: 67 67 31
Width: 1024
VWidth: 0
Flags: W
HStem: -16 120<446.67 926.39> 1304 120<446.67 927.818>
VStem: 112 128<342.784 1065.21>
LayerCount: 5
Back
SplineSet
1024 48.5241449166 m 5
 1014.22708068 46.0271657367 1004.44539982 43.5403904848 994.654296875 41.06640625 c 4
 924.837890625 23.4267578125 852.942382812 5.8388671875 777.98828125 -5.265625 c 4
 734.107421875 -11.765625 689.063476562 -15.9697265625 643.022460938 -16 c 4
 542.103515625 -16 437.125976562 5.42578125 347.520507812 63.701171875 c 4
 293.749023438 98.671875 248.859375 144.771484375 214.772460938 197.217773438 c 4
 180.768554688 249.5390625 158.079101562 306.743164062 143.213867188 364.381835938 c 4
 113.7265625 478.727539062 112 594.123046875 112 704 c 4
 112 813.877929688 113.7265625 929.271484375 143.213867188 1043.61816406 c 4
 158.078125 1101.25488281 180.76953125 1158.46289062 214.772460938 1210.78027344 c 4
 248.859375 1263.22949219 293.749023438 1309.328125 347.520507812 1344.29882812 c 4
 436.985351562 1402.48242188 542.555664062 1424 642.611328125 1424 c 4
 688.78515625 1423.98535156 733.965820312 1419.78613281 777.98828125 1413.26464844 c 4
 852.94140625 1402.16210938 924.83984375 1384.57226562 994.653320312 1366.93261719 c 4
 1004.44475214 1364.45891828 1014.22676157 1361.97231835 1024 1359.47543216 c 5
 1024 1235.05333225 l 5
 1003.10102354 1240.44711692 982.218740432 1245.79373093 961.346679688 1251.06738281 c 4
 892.28515625 1268.515625 824.751953125 1284.84863281 758.01171875 1294.73535156 c 4
 718.969726562 1300.51855469 680.458984375 1303.98828125 642.56640625 1304 c 4
 561.635742188 1304 482.729492188 1286.18554688 420.479492188 1245.70019531 c 4
 382.682617188 1221.11914062 349.517578125 1187.48144531 324.081054688 1148.34277344 c 4
 298.55859375 1109.07421875 280.04296875 1063.55175781 267.629882812 1015.41796875 c 4
 242.564453125 918.223632812 240 812.583984375 240 704 c 4
 240 595.416015625 242.564453125 489.776367188 267.629882812 392.581054688 c 4
 280.041992188 344.44921875 298.559570312 298.924804688 324.081054688 259.657226562 c 4
 349.517578125 220.518554688 382.682617188 186.880859375 420.479492188 162.298828125 c 4
 482.854492188 121.733398438 561.204101562 104 642.977539062 104 c 4
 680.610351562 104.025390625 719.12109375 107.50390625 758.01171875 113.264648438 c 4
 824.750976562 123.151367188 892.287109375 139.484375 961.345703125 156.932617188 c 4
 982.2181202 162.206269844 1003.10075964 167.552884659 1024 172.946670137 c 5
 1024 48.5241449166 l 5
EndSplineSet
Fore
SplineSet
1024 173 m 1
 1024 49 l 1
 907 19 777 -16 643 -16 c 0
 543 -16 436 7 347 64 c 0
 246 129 175 237 143 364 c 0
 114 478 112 594 112 704 c 0
 112 814 114 930 143 1044 c 0
 176 1171 246 1278 347 1344 c 0
 436 1402 543 1424 643 1424 c 0
 766 1424 885 1395 994 1367 c 1
 994 1243 l 1
 881 1272 755 1304 643 1304 c 0
 430 1304 312 1188 268 1016 c 0
 243 919 240 813 240 704 c 0
 240 595 243 489 268 392 c 0
 312 220 430 104 643 104 c 0
 765 104 903 142 1024 173 c 1
EndSplineSet
Layer: 2
SplineSet
768 1354 m 0
 838.846354572 1343.50490046 908.562607991 1326.54427717 978 1309 c 0
 1036.08310479 1294.32453395 1094.03673517 1279.14187225 1152 1264 c 1
 976 768 l 1
 1152 144 l 1
 1094.03673517 128.858127746 1036.08310479 113.675466053 978 99 c 0
 908.562607991 81.4557228309 838.846354572 64.4950995387 768 54 c 0
 726.614442498 47.86918991 684.83718974 44.0275101078 643 44 c 0
 642.863057097 43.999909953 642.726110136 43.9998649121 642.589159181 43.9998649121 c 0
 552.095323139 43.9998649121 459.857171744 63.6657890577 384 113 c 0
 338.215629814 142.776166507 299.188946716 182.644590338 269.426631448 228.437965788 c 0
 239.66431618 274.231341238 219.060751679 325.596743357 205.422300628 378.48172514 c 0
 178.145398527 484.251688705 176 594.769443008 176 704 c 0
 176 813.230556992 178.145398527 923.748311295 205.422300628 1029.51827486 c 0
 219.060751679 1082.40325664 239.66431618 1133.76865876 269.426631448 1179.56203421 c 0
 299.188946716 1225.35540966 338.215629814 1265.22383349 384 1295 c 0
 459.857171744 1344.33421094 552.095323139 1364.00013509 642.589159181 1364.00013509 c 0
 684.62230979 1363.98631424 726.467613412 1360.15256119 768 1354 c 0
  Spiro
    643 1364 o
    768 1354 o
    978 1309 o
    1152 1264 v
    976 768 v
    1152 144 v
    978 99 o
    768 54 o
    643 44 o
    384 113 o
    176 704 o
    384 1295 o
    0 0 z
  EndSpiro
EndSplineSet
Layer: 3
Layer: 4
EndChar
StartChar: E
Encoding: 69 69 33
Width: 1024
VWidth: 0
Flags: W
HStem: 0 120<384 1024> 644 120<384 896> 1288 120<384 1024>
VStem: 256 128<120 644 764 1288>
CounterMasks: 1 e0
LayerCount: 5
Back
Fore
SplineSet
256 1408 m 5
 1024 1408 l 5
 1024 1288 l 5
 384 1288 l 5
 384 764 l 5
 896 764 l 5
 896 644 l 5
 384 644 l 5
 384 120 l 5
 1024 120 l 5
 1024 0 l 5
 256 0 l 5
 256 1408 l 5
EndSplineSet
Layer: 2
Layer: 3
Layer: 4
EndChar
StartChar: K
Encoding: 75 75 39
Width: 1024
VWidth: 0
Flags: W
HStem: 0 21G<128 256 890.881 1062> 1388 20G<128 256 813.338 969>
VStem: 128 128<0 558 719 1408>
LayerCount: 5
Back
SplineSet
502 768 m 5
 1052 -138 l 1029
320 520 m 5
 1152 1806 l 1029
384 1408 m 5
 384 0 l 5
 256 0 l 5
 256 1408 l 5
 384 1408 l 5
512 752 m 1
 1052 -138 l 1025
320 520 m 1
 1152 1806 l 1025
EndSplineSet
Fore
SplineSet
256 0 m 5
 128 0 l 5
 128 1408 l 5
 256 1408 l 5
 256 719 l 5
 830 1408 l 5
 969 1408 l 5
 481 813 l 5
 1062 0 l 5
 905 0 l 5
 396 721 l 5
 256 558 l 5
 256 0 l 5
EndSplineSet
Layer: 2
Layer: 3
Layer: 4
EndChar
StartChar: M
Encoding: 77 77 28
Width: 1024
VWidth: 0
Flags: W
HStem: 0 21G<128 256 896 1024> 1388 20G<128 266.194 885.838 1024>
VStem: 128 128<0 1140> 896 128<0 1140>
LayerCount: 5
Back
SplineSet
192 0 m 29
 192 1521 l 29
 576 900 l 29
 960 1521 l 29
 960 0 l 1053
EndSplineSet
Fore
SplineSet
256 0 m 1
 128 0 l 1
 128 1408 l 1
 256 1408 l 1
 571 790 l 1
 582 790 l 1
 896 1408 l 1
 1024 1408 l 1
 1024 0 l 1
 896 0 l 1
 896 1140 l 1
 886 1140 l 1
 631 640 l 1
 521 640 l 1
 266 1140 l 1
 256 1140 l 1
 256 0 l 1
EndSplineSet
Layer: 2
Layer: 3
Layer: 4
EndChar
StartChar: V
Encoding: 86 86 49
Width: 1024
VWidth: 0
Flags: W
HStem: 0 119<552.667 599.333> 1388 20G<103 261 891 1049>
VStem: 103 135<1041.36 1408> 914 135<1041.36 1408>
LayerCount: 5
Back
Fore
SplineSet
103 1408 m 1
 238 1408 l 1
 284 900 372 468 571 119 c 1
 581 119 l 1
 780 468 868 900 914 1408 c 1
 1049 1408 l 1
 1005 912 913 437 636 0 c 1
 516 0 l 1
 239 437 147 912 103 1408 c 1
EndSplineSet
Layer: 2
Layer: 3
Layer: 4
EndChar
StartChar: W
Encoding: 87 87 50
Width: 1024
VWidth: 0
Flags: W
HStem: 0 21G<257 387.136 764.864 895> 1388 20G<116 247 905 1036>
VStem: 116 131<944.379 1408> 905 131<944.379 1408>
LayerCount: 5
Back
SplineSet
514 896 m 5xb0
 638 896 l 5
 802 130 l 5
 812 130 l 5
 884.831325301 523.641068447 905 963.153589316 905 1408 c 5
 1036 1408 l 5
 1036 936 988 467 895 2 c 5
 730 0 l 5
 581 736 l 5
 571 736 l 5
 422 0 l 5
 257 2 l 5
 164 467 116 936 116 1408 c 5
 247 1408 l 5
 247 966.634390651 268.289156627 530.560934891 340 140 c 5
 350 140 l 5
 514 896 l 5xb0
EndSplineSet
Fore
SplineSet
514 896 m 5
 638 896 l 5
 812 210 l 5
 822 210 l 5
 887 579 905 991 905 1408 c 5
 1036 1408 l 5
 1036 936 988 467 895 2 c 5
 770 0 l 5
 581 736 l 5
 571 736 l 5
 382 0 l 5
 257 2 l 5
 164 467 116 936 116 1408 c 5
 247 1408 l 5
 247 991 266 579 330 210 c 5
 340 210 l 5
 514 896 l 5
EndSplineSet
Layer: 2
Layer: 3
Layer: 4
EndChar
StartChar: Y
Encoding: 89 89 52
Width: 1024
VWidth: 0
Flags: HW
HStem: 0 21G<512 640> 1388 20G<103 270.309 881.691 1049>
VStem: 103 135<1233.38 1408> 512 128<0 571.953> 914 135<1233.38 1408>
CounterMasks: 1 38
LayerCount: 5
Back
Fore
SplineSet
113 1408 m 5
 238 1408 l 5
 302.618618619 1144.73492286 397.975975976 920.819074333 561 740 c 5
 591 740 l 5
 754.024024024 920.819074333 849.381381381 1144.73492286 914 1408 c 5
 1039 1408 l 5
 977.540342298 1133.63285024 868.034229829 871.480676329 640 630 c 5
 640 0 l 5
 512 0 l 5
 512 630 l 5
 283.965770171 871.480676329 174.459657702 1133.63285024 113 1408 c 5
EndSplineSet
Layer: 2
Layer: 3
Layer: 4
EndChar
StartChar: bracketleft
Encoding: 91 91 87
Width: 1024
VWidth: 0
Flags: W
HStem: -256 120<512 896> 1542 120<512 896>
VStem: 384 128<-136 1542>
LayerCount: 5
Back
Fore
SplineSet
384 -256 m 1
 384 383 384 1023 384 1662 c 1
 555 1662 725 1662 896 1662 c 1
 896 1542 l 1
 512 1542 l 1
 512 -136 l 1
 896 -136 l 1
 896 -256 l 1
 384 -256 l 1
EndSplineSet
Layer: 2
Layer: 3
Layer: 4
EndChar
StartChar: bracketright
Encoding: 93 93 88
Width: 1024
VWidth: 0
Flags: W
HStem: -128 120<256 640> 1416 120<256 640>
VStem: 640 128<-8 1416>
LayerCount: 5
Back
Fore
SplineSet
768 1536 m 5
 768 981.622523462 768 426.377476538 768 -128 c 5
 597 -128 427 -128 256 -128 c 5
 256 -8 l 5
 640 -8 l 5
 640 1416 l 5
 256 1416 l 5
 256 1536 l 5
 768 1536 l 5
EndSplineSet
Layer: 2
Layer: 3
Layer: 4
EndChar
StartChar: asciicircum
Encoding: 94 94 89
Width: 1024
VWidth: 0
Flags: W
HStem: 1299 109<515.565 551 601 636.435>
VStem: 201 135<896 1017.61> 816 135<896 1017.61>
LayerCount: 5
Back
Fore
SplineSet
201 896 m 5
 336 896 l 5
 383.446808511 1054.94402036 452.978723404 1190.30279898 551 1299 c 5
 601 1299 l 5
 699.021276596 1190.30279898 768.553191489 1054.94402036 816 896 c 5
 951 896 l 5
 901.968253968 1076 820.492063492 1249 656 1408 c 5
 496 1408 l 5
 331.507936508 1249 250.031746032 1076 201 896 c 5
EndSplineSet
Layer: 2
Layer: 3
Layer: 4
EndChar
StartChar: c
Encoding: 99 99 3
Width: 1024
VWidth: 0
Flags: W
HStem: -16 120<450.263 890.041> 920 120<450.263 890.041>
VStem: 224 128<209.809 814.191>
LayerCount: 5
Back
Fore
SplineSet
224 512 m 0
 224 633 226 738 264 831 c 0
 311 946 417 1040 586 1040 c 0
 669 1040 769 1025 896 999 c 1
 896 876 l 1
 768 903 662 920 586 920 c 0
 485 920 420 872 384 789 c 0
 352 716 352 614 352 512 c 0
 352 410 352 308 384 235 c 0
 420 152 485 104 586 104 c 0
 662 104 768 121 896 148 c 1
 896 25 l 1
 769 -1 669 -16 586 -16 c 0
 417 -16 311 78 264 193 c 0
 226 286 224 391 224 512 c 0
EndSplineSet
Layer: 2
Layer: 3
Layer: 4
EndChar
StartChar: d
Encoding: 100 100 4
Width: 1024
VWidth: 0
Flags: W
HStem: -16 120<445.978 668.384> 920 120<445.978 668.384>
VStem: 224 128<213.326 810.674> 768 128<212.637 811.363>
LayerCount: 5
Back
Fore
SplineSet
560 920 m 4
 656 920 716 847 742 768 c 4
 767 692 768 604 768 512 c 4
 768 420 767 332 742 256 c 4
 716 177 656 104 560 104 c 4
 464 104 404 177 378 256 c 4
 353 332 352 420 352 512 c 4
 352 604 353 692 378 768 c 4
 404 847 464 920 560 920 c 4
540 1040 m 4
 409 1040 299 953 252 803 c 4
 224 713 224 624 224 512 c 4
 224 400 224 311 252 221 c 4
 299 71 409 -16 540 -16 c 4
 623 -16 699 33 758 125 c 5
 768 125 l 5
 768 0 l 5
 896 0 l 5
 896 1536 l 5
 768 1536 l 5
 768 899 l 5
 758 899 l 5
 699 991 623 1040 540 1040 c 4
EndSplineSet
Layer: 2
Layer: 3
Layer: 4
EndChar
StartChar: f
Encoding: 102 102 6
Width: 1024
VWidth: 0
Flags: W
HStem: 0 21G<384 512> 904 120<128 384 512 896> 1432 120<541.54 892.604>
VStem: 384 128<0 904 1024 1385.26>
LayerCount: 5
Back
SplineSet
512 1024 m 1
 384 1024 l 1
 384 1257 l 0
 384 1286.71972656 383.989257812 1320.22265625 391.383789062 1356.1484375 c 0
 398.793945312 1392.15234375 413.493164062 1428.32128906 438.419921875 1460.07128906 c 0
 463.369140625 1491.8515625 496.608398438 1516.45019531 534.198242188 1531.78417969 c 0
 571.517578125 1547.00878906 609.463867188 1552.00097656 645.618164062 1552.00097656 c 1
 670.233398438 1551.95117188 691.083007812 1549.93359375 711.787109375 1547.5546875 c 0
 754.279296875 1542.67089844 795.490234375 1536.61132812 835.6953125 1531.44433594 c 0
 891.380859375 1524.28515625 947.28515625 1517.10449219 1003.33300781 1509.359375 c 1
 984.666992188 1390.64160156 l 1
 929.4765625 1398.26855469 873.998046875 1405.39648438 818.3046875 1412.55664062 c 0
 776.4921875 1417.93066406 735.87109375 1423.88867188 696.212890625 1428.44628906 c 0
 677.788085938 1430.56347656 661.751953125 1431.96777344 645.479492188 1432.00097656 c 1
 622.53125 1432.00097656 602.146484375 1428.63476562 585.270507812 1421.75097656 c 0
 568.436523438 1414.88378906 552.85546875 1403.39355469 541.509765625 1388.94140625 c 0
 530.139648438 1374.45898438 521.504882812 1354.98046875 517.065429688 1333.41308594 c 0
 512.610351562 1311.76855469 512 1286.05859375 512 1257 c 0
 512 1024 l 1
  Spiro
    512 1024 v
    384 1024 v
    384 1257 [
    384.27 1287.9 o
    386.186 1321.11 o
    391.384 1356.15 o
    401.32 1392 o
    416.812 1427.05 o
    438.42 1460.07 o
    465.957 1489.35 o
    498.239 1513.46 o
    534.198 1531.78 o
    571.6 1543.78 o
    608.993 1550.15 o
    645.618 1552 v
    669.09 1551.36 o
    690.922 1549.75 o
    711.787 1547.55 o
    753.821 1542.36 o
    795.186 1536.83 o
    835.695 1531.44 o
    891.395 1524.27 o
    947.392 1516.93 o
    1003.33 1509.36 v
    984.667 1390.64 v
    929.439 1398.11 o
    873.868 1405.39 o
    818.305 1412.56 o
    776.922 1418.05 o
    736.16 1423.5 o
    696.213 1428.45 o
    678.504 1430.3 o
    661.754 1431.54 o
    645.479 1432 v
    623.442 1430.88 o
    603.262 1427.46 o
    585.271 1421.75 o
    568.98 1413.41 o
    554.143 1402.33 o
    541.51 1388.94 o
    531.115 1372.92 o
    522.842 1354.16 o
    517.065 1333.41 o
    513.774 1310.46 o
    512.322 1284.89 o
    512 1257 ]
    0 0 z
  EndSpiro
EndSplineSet
Fore
SplineSet
512 0 m 1
 384 0 l 1
 384 904 l 1
 128 904 l 1
 128 1024 l 1
 384 1024 l 1
 384 1257 l 2
 384 1309 384 1387 436 1457 c 0
 480 1516 561 1552 660 1552 c 0
 722 1552 824.09375 1535 896 1523 c 1
 896 1403 l 1
 824.09375 1414 711 1432 660 1432 c 0
 604 1432 563 1417 540 1387 c 0
 512 1350 512 1301 512 1257 c 2
 512 1024 l 1
 896 1024 l 1
 896 904 l 1
 512 904 l 1
 512 0 l 1
EndSplineSet
Layer: 2
SplineSet
448 1024 m 1
 448 1257 l 2
 448 1286.38886035 448.299759739 1315.9955079 454.22466316 1344.78093185 c 0
 460.14956658 1373.5663558 471.816654617 1401.38993622 489.964610879 1424.50609499 c 0
 508.112567141 1447.62225375 532.522641224 1465.6670254 559.734380011 1476.76776343 c 0
 586.755060357 1487.79056121 616.194753898 1492.00063055 645.380928178 1492.00063055 c 0
 646 1492 l 0
 665.389547959 1491.96052839 684.737173065 1490.21351001 704 1488 c 0
 745.075464346 1483.2799788 785.991669577 1477.27154695 827 1472 c 0
 882.689656985 1464.84119499 938.380696207 1457.68631445 994 1450 c 1024
  Spiro
    448 1024 {
    448 1257 ]
    646 1492 o
    704 1488 o
    827 1472 o
    994 1450 o
    0 0 z
  EndSpiro
EndSplineSet
Layer: 3
Layer: 4
EndChar
StartChar: j
Encoding: 106 106 10
Width: 1024
VWidth: 0
Flags: W
HStem: -528 120<258.703 579.284> 898 126<384 640> 1328 224<581.032 762.968>
VStem: 560 224<1349.03 1530.97> 640 128<-347.771 898>
LayerCount: 5
Back
Fore
SplineSet
672 1552 m 0xf0
 738 1552 784 1506 784 1440 c 0
 784 1374 738 1328 672 1328 c 0
 606 1328 560 1374 560 1440 c 0
 560 1506 606 1552 672 1552 c 0xf0
256 -365 m 1
 311 -387 380 -408 448 -408 c 0
 515 -408 565 -384 597 -346 c 0
 640 -294 640 -230 640 -142 c 2
 640 898 l 1
 384 898 l 1
 384 1024 l 1
 768 1024 l 1
 768 -152 l 2xe8
 768 -243 768 -338 700 -420 c 0
 648 -483 564 -528 458 -528 c 0
 383 -528 316 -513 256 -493 c 1
 256 -365 l 1
EndSplineSet
Layer: 2
SplineSet
448 44 m 4
 598.8 44 704 -60.95 704 -212 c 4
 704 -363.05 598.8 -468 448 -468 c 4
 297.2 -468 192 -363.05 192 -212 c 4
 192 -60.95 297.2 44 448 44 c 4
EndSplineSet
Layer: 3
SplineSet
704 45 m 1
 704 -172 l 2
 704 -209.30175595 703.454831685 -246.92394934 695.223254122 -283.306117057 c 0
 686.99167656 -319.688284774 671.043396481 -354.533371494 647.203993415 -383.22315815 c 0
 623.364590348 -411.912944806 592.00622287 -434.113648541 557.420372628 -448.086477886 c 0
 522.739235077 -462.097803707 485.192168037 -467.986486026 447.729768683 -468.00009819 c 0
 405.278768715 -468.00009819 363.072771044 -460.733301726 322 -450 c 0
 286.585548448 -440.745353082 251.873601214 -428.871229546 218 -415 c 0
 185.834505443 -401.828239618 154.435909116 -386.785998568 124 -370 c 1
 704 45 l 1
  Spiro
    704 45 v
    704 -172 ]
    448 -468 o
    322 -450 o
    218 -415 o
    124 -370 v
    0 0 z
  EndSpiro
EndSplineSet
Layer: 4
EndChar
StartChar: o
Encoding: 111 111 15
Width: 1024
VWidth: 0
InSpiro: 1
Flags: W
HStem: -16 120<444.658 707.342> 920 120<444.658 707.342>
VStem: 224 128<208.546 815.454> 800 128<208.546 815.454>
LayerCount: 5
Back
Fore
SplineSet
576 920 m 0
 546.974789855 920 517.711318466 915.356420641 491 904 c 0
 466.631254775 893.639533458 444.810336858 877.595073662 427 858 c 0
 408.681901207 837.846282635 394.452024938 814.149159861 384 789 c 0
 373.112480443 762.802973924 366.310671337 735.039978067 362 707 c 0
 357.168754308 675.573799153 355.28254868 643.769515317 354 612 c 0
 352.655060196 578.685018395 352 545.342118445 352 512 c 0
 352 478.657881555 352.655060196 445.314981605 354 412 c 0
 355.28254868 380.230484683 357.168754308 348.426200847 362 317 c 0
 366.310671337 288.960021933 373.112480443 261.197026076 384 235 c 0
 394.452024938 209.850840139 408.681901207 186.153717365 427 166 c 0
 444.810336858 146.404926338 466.631254775 130.360466542 491 120 c 0
 517.711318466 108.643579359 546.974789855 104 576 104 c 0
 605.025210145 104 634.288681534 108.643579359 661 120 c 0
 685.368745225 130.360466542 707.189663142 146.404926338 725 166 c 0
 743.318098793 186.153717365 757.547975062 209.850840139 768 235 c 0
 778.887519557 261.197026076 785.689328663 288.960021933 790 317 c 0
 794.831245692 348.426200847 796.71745132 380.230484683 798 412 c 0
 799.344939804 445.314981605 800 478.657881555 800 512 c 0
 800 545.342118445 799.344939804 578.685018395 798 612 c 0
 796.71745132 643.769515317 794.831245692 675.573799153 790 707 c 0
 785.689328663 735.039978067 778.887519557 762.802973924 768 789 c 0
 757.547975062 814.149159861 743.318098793 837.846282635 725 858 c 0
 707.189663142 877.595073662 685.368745225 893.639533458 661 904 c 0
 634.288681534 915.356420641 605.025210145 920 576 920 c 0
  Spiro
    576 920 o
    491 904 o
    427 858 o
    384 789 o
    362 707 o
    354 612 o
    352 512 o
    354 412 o
    362 317 o
    384 235 o
    427 166 o
    491 120 o
    576 104 o
    661 120 o
    725 166 o
    768 235 o
    790 317 o
    798 412 o
    800 512 o
    798 612 o
    790 707 o
    768 789 o
    725 858 o
    661 904 o
    0 0 z
  EndSpiro
576 1040 m 0
 624.669135887 1040 673.593988359 1030.91961139 718 1011 c 0
 757.456211952 993.300765592 792.932646251 967.017877916 822 935 c 0
 850.123350613 904.021947637 872.283948273 867.775872602 888 829 c 0
 900.630479563 797.837092488 909.170829066 765.116107633 915 732 c 0
 921.104760873 697.318238149 924.308242405 662.174289853 926 627 c 0
 927.842019882 588.701521889 928 550.342749808 928 512 c 0
 928 473.657250192 927.842019882 435.298478111 926 397 c 0
 924.308242405 361.825710147 921.104760873 326.681761851 915 292 c 0
 909.170829066 258.883892367 900.630479563 226.162907512 888 195 c 0
 872.283948273 156.224127398 850.123350613 119.978052363 822 89 c 0
 792.932646251 56.9821220836 757.456211952 30.6992344085 718 13 c 0
 673.593988359 -6.91961139439 624.669135887 -16 576 -16 c 0
 527.330864113 -16 478.406011641 -6.91961139439 434 13 c 0
 394.543788048 30.6992344085 359.067353749 56.9821220836 330 89 c 0
 301.876649387 119.978052363 279.716051727 156.224127398 264 195 c 0
 251.369520437 226.162907512 242.829170934 258.883892367 237 292 c 0
 230.895239127 326.681761851 227.691757595 361.825710147 226 397 c 0
 224.157980118 435.298478111 224 473.657250192 224 512 c 0
 224 550.342749808 224.157980118 588.701521889 226 627 c 0
 227.691757595 662.174289853 230.895239127 697.318238149 237 732 c 0
 242.829170934 765.116107633 251.369520437 797.837092488 264 829 c 0
 279.716051727 867.775872602 301.876649387 904.021947637 330 935 c 0
 359.067353749 967.017877916 394.543788048 993.300765592 434 1011 c 0
 478.406011641 1030.91961139 527.330864113 1040 576 1040 c 0
  Spiro
    576 1040 o
    718 1011 o
    822 935 o
    888 829 o
    915 732 o
    926 627 o
    928 512 o
    926 397 o
    915 292 o
    888 195 o
    822 89 o
    718 13 o
    576 -16 o
    434 13 o
    330 89 o
    264 195 o
    237 292 o
    226 397 o
    224 512 o
    226 627 o
    237 732 o
    264 829 o
    330 935 o
    434 1011 o
    0 0 z
  EndSpiro
EndSplineSet
Layer: 2
SplineSet
576 620 m 4
 745.649680398 620 864 501.930930398 864 332 c 4
 864 162.069069602 745.649680398 44 576 44 c 4
 406.350319602 44 288 162.069069602 288 332 c 4
 288 501.930930398 406.350319602 620 576 620 c 4
  Spiro
    576 620 o
    725.939 583.167 o
    827.105 482.063 o
    864 332 o
    827.105 181.937 o
    725.939 80.8329 o
    576 44 o
    426.061 80.8329 o
    324.895 181.937 o
    288 332 o
    324.895 482.063 o
    426.061 583.167 o
    0 0 z
  EndSpiro
576 980 m 4
 745.649680398 980 864 861.930930398 864 692 c 4
 864 522.069069602 745.649680398 404 576 404 c 4
 406.350319602 404 288 522.069069602 288 692 c 4
 288 861.930930398 406.350319602 980 576 980 c 4
  Spiro
    576 980 o
    725.939 943.167 o
    827.105 842.063 o
    864 692 o
    827.105 541.937 o
    725.939 440.833 o
    576 404 o
    426.061 440.833 o
    324.895 541.937 o
    288 692 o
    324.895 842.063 o
    426.061 943.167 o
    0 0 z
  EndSpiro
EndSplineSet
Layer: 3
SplineSet
576 980 m 0
 567.324724123 980 558.648756819 979.677803086 550 979 c 0
 500.14705605 975.093024703 451.039999149 957.918629526 411.358993265 927.488410196 c 0
 371.677987381 897.058190866 342.166566355 854.502829358 323.553962577 808.089992158 c 0
 304.941358799 761.677154957 296.557710164 711.747219037 292.442706941 661.91101508 c 0
 288.327703719 612.074811123 288 562.005804427 288 512 c 1
 288 461.994195573 288.327703721 411.925188876 292.442706944 362.088984919 c 0
 296.557710167 312.252780961 304.941358804 262.322845041 323.553962582 215.91000784 c 0
 342.16656636 169.497170641 371.677987385 126.941809133 411.358993268 96.5115898039 c 0
 451.039999151 66.0813704744 500.147056051 48.9069752969 550 45 c 0
 558.648756819 44.3221969143 567.324724123 44 576 44 c 0
 584.675275877 44 593.351243181 44.3221969143 602 45 c 0
 651.85294395 48.9069752967 700.960000851 66.0813704743 740.641006735 96.5115898041 c 0
 780.322012619 126.941809134 809.833433645 169.497170642 828.446037423 215.910007842 c 0
 847.058641201 262.322845043 855.442289836 312.252780963 859.557293059 362.08898492 c 0
 863.672296281 411.925188877 864 461.994195573 864 512 c 1
 864 562.005804427 863.672296279 612.074811124 859.557293056 661.911015081 c 0
 855.442289833 711.747219039 847.058641196 761.677154959 828.446037418 808.08999216 c 0
 809.83343364 854.502829359 780.322012615 897.058190867 740.641006732 927.488410196 c 0
 700.960000849 957.918629526 651.852943949 975.093024703 602 979 c 0
 593.351243181 979.677803086 584.675275877 980 576 980 c 0
  Spiro
    576 980 o
    550 979 o
    288 512 o
    550 45 o
    576 44 o
    602 45 o
    864 512 o
    602 979 o
    0 0 z
  EndSpiro
EndSplineSet
Layer: 4
EndChar
StartChar: p
Encoding: 112 112 16
Width: 1024
VWidth: 0
Flags: W
HStem: -16 120<483.616 706.022> 920 120<483.616 706.022>
VStem: 256 128<212.637 811.363> 800 128<213.326 810.674>
LayerCount: 5
Back
Fore
SplineSet
592 104 m 4
 496 104 436 177 410 256 c 4
 385 332 384 420 384 512 c 4
 384 604 385 692 410 768 c 4
 436 847 496 920 592 920 c 4
 688 920 748 847 774 768 c 4
 799 692 800 604 800 512 c 4
 800 420 799 332 774 256 c 4
 748 177 688 104 592 104 c 4
612 -16 m 4
 743 -16 853 71 900 221 c 4
 928 311 928 400 928 512 c 4
 928 624 928 713 900 803 c 4
 853 953 743 1040 612 1040 c 4
 529 1040 453 991 394 899 c 5
 384 899 l 5
 384 1024 l 5
 256 1024 l 5
 256 -512 l 5
 384 -512 l 5
 384 125 l 5
 394 125 l 5
 453 33 529 -16 612 -16 c 4
EndSplineSet
Layer: 2
Layer: 3
Layer: 4
EndChar
StartChar: r
Encoding: 114 114 18
Width: 1024
VWidth: 0
Flags: W
HStem: 0 21G<256 384> 920 120<504.949 892.248> 1004 20G<256 384>
VStem: 256 128<0 782.495 876 1024>
LayerCount: 5
Back
SplineSet
968.729492188 995.159179688 m 5
 937.270507812 878.840820312 l 5
 900.754882812 887.520507812 864.206054688 895.369140625 827.6171875 902.133789062 c 4
 798.169921875 907.578125 769.107421875 912.215820312 740.424804688 915.421875 c 4
 714.765625 918.2890625 689.580078125 920 665.001953125 920 c 4
 639.198242188 920 614.544921875 918.049804688 591.602539062 913.37109375 c 4
 554.32421875 905.76953125 518.999023438 889.655273438 490.5859375 866.181640625 c 4
 461.973632812 842.54296875 438.243164062 809.918945312 421.827148438 772.97265625 c 4
 391.736328125 705.248046875 383.75390625 624.84765625 383.75390625 540.450195312 c 4
 383.75390625 531.306640625 383.841796875 522.125976562 383.9921875 512.923828125 c 5
 256.0078125 511.077148438 l 5
 255.84765625 520.793945312 255.75390625 530.58984375 255.75390625 540.450195312 c 4
 255.75390625 630.875 263.083984375 727.771484375 303.668945312 819.115234375 c 4
 326.432617188 870.348632812 360.182617188 918.392578125 405.958984375 956.211914062 c 4
 451.934570312 994.1953125 507.12890625 1018.95117188 564.397460938 1030.62890625 c 4
 598.623046875 1037.60839844 632.459960938 1040 665.001953125 1040 c 4
 695.884765625 1040 726.1171875 1037.87011719 755.575195312 1034.578125 c 4
 788.560546875 1030.89160156 820.8125 1025.703125 852.3828125 1019.86621094 c 4
 891.532226562 1012.62792969 930.311523438 1004.29199219 968.729492188 995.159179688 c 5
256 1536 m 5
 384 1536 l 5
 384 4 l 5
 256 4 l 5
 256 1536 l 5
EndSplineSet
Fore
SplineSet
256 1024 m 1xb0
 384 1024 l 1xb0
 384 876 l 1
 394 876 l 1
 460 982 537 1040 665 1040 c 0
 737 1040 818 1034 896 1026 c 1
 896 903 l 1
 814 913 730 920 665 920 c 0xd0
 589 920 535 903 491 866 c 0
 385 778 384 612 384 535 c 2
 384 0 l 1
 256 0 l 1
 256 1024 l 1xb0
EndSplineSet
Layer: 2
SplineSet
656 980 m 0
 853.924627131 980 992 842.252752131 992 644 c 0
 992 445.747247869 853.924627131 308 656 308 c 4
 458.075372869 308 320 445.747247869 320 644 c 0
 320 842.252752131 458.075372869 980 656 980 c 0
EndSplineSet
Layer: 3
SplineSet
578 972 m 0
 530.726700848 962.359843082 485.467113548 941.926115228 448.27251183 911.197316991 c 0
 411.077910112 880.468518753 382.338330079 840.133332606 362.74826758 796.043346335 c 0
 327.40987396 716.509690451 319.754300351 627.861525187 319.754300351 540.450790942 c 0
 319.754300351 530.948136007 319.844777336 521.460105584 320 512 c 0
 321.568639796 416.39863819 329.473651194 318.564559366 368.082602283 231.092107094 c 0
 387.387077828 187.355880959 415.075905763 146.982436575 451.119509306 115.57576696 c 0
 487.163112848 84.1690973446 531.328267419 62.3571053154 578 52 c 0
 602.950549395 46.4631267479 628.541550887 43.995467047 654.100768324 43.995467047 c 0
 654.733868456 43.995467047 655.366949087 43.9969810787 656 44 c 0
 682.177380381 44.1248358519 708.344737663 46.796314573 734 52 c 0
 832.725132312 72.0245285179 923.482946216 133.490246366 973.578139109 220.886499956 c 0
 1002.23022739 270.873036169 1016.8752254 328.521127371 1016.8752254 386.096533594 c 0
 1016.8752254 429.185729961 1008.67261501 472.234215735 992 512 c 1
 953 937 l 1
 915.53325272 945.906587226 877.86903046 953.998501604 840 961 c 0
 809.490773703 966.64076493 778.834355811 971.554188058 748 975 c 0
 720.441200994 978.079760748 692.732392493 980.000000003 665.002043231 980.000000003 c 0
 635.829319737 979.999950387 606.584180652 977.828998437 578 972 c 0
  Spiro
    665 980 o
    578 972 o
    320 512 o
    578 52 o
    656 44 o
    734 52 o
    992 512 v
    953 937 v
    840 961 o
    748 975 o
    0 0 z
  EndSpiro
320 1536 m 1
 320 4 l 1025
  Spiro
    320 1536 {
    320 4 v
    0 0 z
  EndSpiro
EndSplineSet
Layer: 4
EndChar
StartChar: w
Encoding: 119 119 22
Width: 1024
VWidth: 0
Flags: W
HStem: 0 21G<257 417.417 734.583 895> 1004 20G<106 237 915 1046>
VStem: 106 131<559.059 1024> 915 131<559.059 1024>
LayerCount: 5
Back
SplineSet
1074 1124 m 5
 832 14 l 5
 576 1009 l 5
 320 14 l 5
 78 1124 l 1029
EndSplineSet
Fore
SplineSet
514 767 m 1
 638 767 l 1
 802 140 l 1
 812 140 l 1
 882.921751522 412.584766585 915 716.663390663 915 1024 c 1
 1046 1024 l 1
 1046 681 995 340 895 2 c 1
 740 0 l 1
 581 587 l 1
 571 587 l 1
 412 0 l 1
 257 2 l 1
 157 340 106 681 106 1024 c 1
 237 1024 l 1
 237 716.663390663 269.078248478 412.584766585 340 140 c 5
 350 140 l 5
 514 767 l 1
EndSplineSet
Layer: 2
SplineSet
1118 1024 m 5
 895 2 l 5
 770 0 l 5
 576 753 l 5
 382 0 l 5
 257 2 l 5
 34 1024 l 5
 165 1024 l 5
 325 290 l 5
 514 1023 l 5
 638 1023 l 5
 827 290 l 5
 987 1024 l 5
 1118 1024 l 5
EndSplineSet
Layer: 3
SplineSet
514 1023 m 5
 638 1023 l 5
 822 210 l 5
 832 210 l 5
 907 461 915 741 915 1024 c 5
 1046 1024 l 5
 1046 681 995 340 895 2 c 5
 770 0 l 5
 581 823 l 5
 571 823 l 5
 382 0 l 5
 257 2 l 5
 157 340 106 681 106 1024 c 5
 237 1024 l 5
 237 741 245 461 320 210 c 5
 330 210 l 5
 514 1023 l 5
EndSplineSet
Layer: 4
EndChar
StartChar: x
Encoding: 120 120 23
Width: 1024
VWidth: 0
Flags: W
HStem: 0 21G<159 337.427 814.573 993> 1004 20G<181 359.737 792.263 971>
LayerCount: 5
Back
Fore
SplineSet
571 644 m 5
 581 644 l 5
 804 1024 l 5
 971 1024 l 5
 650 561 l 5
 650 551 l 5
 993 0 l 5
 825 0 l 5
 581 468 l 5
 571 468 l 5
 327 0 l 5
 159 0 l 5
 502 551 l 5
 502 561 l 5
 181 1024 l 5
 348 1024 l 5
 571 644 l 5
EndSplineSet
Layer: 2
SplineSet
1152 -144 m 5
 128 1196 l 1029
128 -144 m 5
 1152 1196 l 1029
EndSplineSet
Layer: 3
Layer: 4
EndChar
StartChar: y
Encoding: 121 121 24
Width: 1024
VWidth: 0
Flags: W
HStem: -528 114<256 421.108> 1004 20G<201 357.261 791.724 951>
VStem: 201 135<738.514 1024> 816 135<794.6 1024>
LayerCount: 5
Back
SplineSet
201 1024 m 5
 336 1024 l 5
 376.444444444 667.171428571 452 364.125714286 571 119 c 5
 581 119 l 5
 700 364.125714286 775.555555556 667.171428571 816 1024 c 5
 951 1024 l 5
 911.617376775 663 830.492063492 318 656 0 c 5
 496 0 l 5
 321.507936508 318 240.382623225 663 201 1024 c 5
EndSplineSet
Fore
SplineSet
497 0 m 1
 317.221001859 328 241.296495957 663 201 1024 c 1
 336 1024 l 1
 378.522033898 651.11663067 458.284745763 332.399568035 592 78 c 1
 602 78 l 1
 701.043249091 406.264324494 767.447334291 719.649011292 816 1024 c 1
 951 1024 l 1
 858.14273855 536.225537016 763.864794847 33.8576774691 546 -401 c 0
 500.35865925 -492.100021227 405.044038811 -528 256 -528 c 1
 256 -414 l 1
 353.844538719 -414 407.789942502 -403.543610306 435 -352 c 0
 493.61342364 -240.969456718 541.039075525 -129.902169034 585 0 c 1
 497 0 l 1
EndSplineSet
Layer: 2
SplineSet
391 -728 m 5
 391 -728 1005.36170213 962.091816367 1216 1536 c 1029
  Spiro
    391 -728 {
    557.788 -269.387 o
    908.89 694.973 o
    1216 1536 v
    0 0 z
  EndSpiro
653 5 m 5
 64 1536 l 1029
  Spiro
    653 5 {
    64 1536 v
    0 0 z
  EndSpiro
EndSplineSet
Layer: 3
SplineSet
596 -54 m 5
 466 -358 l 6
 457.563898426 -377.727499064 448.453103785 -397.460990346 434.85359019 -414.056027528 c 4
 421.254076596 -430.65106471 403.53896582 -443.783312939 383.822117037 -452.244276427 c 4
 364.105268254 -460.705239913 342.71200732 -464.662751865 321.32882854 -466.42391464 c 4
 299.94564976 -468.185077414 278.455582701 -468.000000003 257 -468 c 6
 256 -468 l 1029
  Spiro
    596 -54 {
    466 -358 ]
    257 -468 [
    256 -468 o
    0 0 z
  EndSpiro
EndSplineSet
Layer: 4
SplineSet
201 1024 m 5
 336 1024 l 5
 370 675 456 378 601 139 c 5
 611 139 l 5
 724 378 790 675 816 1024 c 5
 951 1024 l 5
 917 679 847 364 700 24 c 6
 525 -380 l 6
 516 -401 506 -426 486 -451 c 4
 437 -511 362 -528 257 -528 c 6
 256 -528 l 5
 256 -408 l 5
 257 -408 l 6
 314 -408 360 -409 384 -378 c 4
 391 -369 399 -355 407 -336 c 6
 552 0 l 5
 323 328 236 663 201 1024 c 5
EndSplineSet
EndChar
StartChar: tilde
Encoding: 126 126 94
Width: 1024
VWidth: 0
Flags: W
HStem: 508 120<689.238 864.873> 780 120<287.127 462.762>
VStem: 128 128<512 753.54> 896 128<654.46 896>
LayerCount: 5
Back
Fore
SplineSet
256 512 m 5
 128 512 l 5
 128 731 165 900 375 900 c 4
 602 900 636 628 777 628 c 4
 890 628 896 724 896 896 c 5
 1024 896 l 5
 1024 677 987 508 777 508 c 4
 550 508 516 780 375 780 c 4
 262 780 256 684 256 512 c 5
EndSplineSet
Layer: 2
Layer: 3
Layer: 4
EndChar
StartChar: sterling
Encoding: 163 163 439
Width: 1024
VWidth: 0
Flags: W
HStem: 0 120<128 256 384 896> 648 120<128 256 384 768> 1304 120<482.33 861.224>
VStem: 256 128<120 648 768 1197.42>
LayerCount: 5
Back
Fore
SplineSet
256 120 m 1
 256 648 l 1
 128 648 l 1
 128 768 l 1
 256 768 l 1
 256 896 l 2
 256 1017 257.992548796 1122.00304493 296 1215 c 0
 343 1330 449 1424 618 1424 c 0
 684.703448276 1424 764.234482759 1410.75675676 866 1389 c 1
 866 1266 l 1
 763.379310345 1289.75 678.717241379 1304 618 1304 c 0
 517 1304 452.322011578 1255.85958891 416 1173 c 0
 384 1100 384 998 384 896 c 2
 384 768 l 1
 768 768 l 1
 768 648 l 1
 384 648 l 1
 384 120 l 1
 896 120 l 1
 896 0 l 1
 128 0 l 1
 128 120 l 1
 256 120 l 1
EndSplineSet
Layer: 2
Layer: 3
Layer: 4
EndChar
StartChar: yen
Encoding: 165 165 436
Width: 1024
VWidth: 0
Flags: W
HStem: 0 21G<512 640> 384 120<256 512 640 896> 648 120<256 395.735 756.265 896> 1388 20G<113 270.309 881.691 1039>
VStem: 113 125<1252.66 1408> 512 128<0 384 504 630> 914 125<1252.66 1408>
CounterMasks: 1 0e
LayerCount: 5
Back
Fore
SplineSet
113 1408 m 1
 238 1408 l 1
 302.618618619 1144.73492286 397.975975976 920.819074333 561 740 c 1
 591 740 l 1
 754.024024024 920.819074333 849.381381381 1144.73492286 914 1408 c 1
 1039 1408 l 1
 989.067539393 1185.0923658 907.421371785 970.247390264 756.264731968 768 c 1
 896 768 l 1
 896 648 l 1
 656.744297926 648 l 1
 640 630 l 1
 640 504 l 1
 896 504 l 1
 896 384 l 1
 640 384 l 1
 640 0 l 1
 512 0 l 1
 512 384 l 1
 256 384 l 1
 256 504 l 1
 512 504 l 1
 512 630 l 1
 495.255702074 648 l 1
 256 648 l 1
 256 768 l 1
 395.735268032 768 l 1
 244.578628215 970.247390264 162.932460607 1185.0923658 113 1408 c 1
EndSplineSet
Layer: 2
Layer: 3
Layer: 4
EndChar
StartChar: brokenbar
Encoding: 166 166 315
Width: 1024
VWidth: 0
Flags: W
HStem: 1024 21G<512 640>
VStem: 512 128<-248 384 1024 1660>
LayerCount: 5
Back
Fore
SplineSet
640 1660 m 1
 640 1024 l 5
 512 1024 l 5
 512 1660 l 1
 640 1660 l 1
640 384 m 1
 640 -248 l 1
 512 -248 l 1
 512 384 l 1
 640 384 l 1
EndSplineSet
Layer: 2
Layer: 3
Layer: 4
EndChar
StartChar: section
Encoding: 167 167 438
Width: 1024
VWidth: 0
Flags: W
HStem: -272 120<260.566 724.631> 1302 120<445.369 891.698>
VStem: 224 128<443.246 705.938> 242 128<973.355 1226.88> 800 128<-77.8586 177.516> 818 128<442.838 707.792>
LayerCount: 5
Back
Fore
SplineSet
392 289 m 4xc8
 290.755946743 341.532291784 224 444 224 571 c 4xe8
 224 677 279.666666667 781 391 843 c 5
 299.751937984 900.21774194 242 990.72580646 242 1101 c 4
 242 1263.05825243 360 1422 603 1422 c 4
 690.617363344 1422 802.729903537 1401.73809524 896 1385 c 5
 896 1262 l 5
 806.498392283 1279.77777778 684.964630225 1302 603 1302 c 4
 415 1302 370 1179.6984127 370 1101 c 4
 370 1022.22580646 407 970.53763441 454 936 c 4
 540.102625393 872.72806388 665 920 780 859 c 4
 872.863570616 809.741932108 946 710 946 578 c 4xd4
 946 472 891.469387755 367 779 306 c 5
 865.627906977 251.911646586 928 161.417670683 928 47 c 4
 928 -114.048543689 810 -272 567 -272 c 4
 474 -272 355 -249 256 -230 c 5
 256 -107 l 5
 351 -127 480 -152 567 -152 c 4
 755 -152 800 -30.9153439153 800 47 c 4
 800 131.819277108 757.353078316 194.001252537 700 223 c 4
 611 268 498 234 392 289 c 4xc8
593 368 m 4
 774 368 818 497 818 578 c 4xe4
 818 721 713 780 574 780 c 4
 395 780 352 653 352 571 c 4
 352 423 470 368 593 368 c 4
EndSplineSet
Layer: 2
Layer: 3
Layer: 4
EndChar
StartChar: dieresis
Encoding: 168 168 316
Width: 1024
VWidth: 0
Flags: W
HStem: 1136 224<261.032 442.968 709.032 890.968>
VStem: 240 224<1157.03 1338.97> 688 224<1157.03 1338.97>
LayerCount: 5
Back
Fore
SplineSet
352 1360 m 4
 418 1360 464 1314 464 1248 c 4
 464 1182 418 1136 352 1136 c 4
 286 1136 240 1182 240 1248 c 4
 240 1314 286 1360 352 1360 c 4
800 1360 m 4
 866 1360 912 1314 912 1248 c 4
 912 1182 866 1136 800 1136 c 4
 734 1136 688 1182 688 1248 c 4
 688 1314 734 1360 800 1360 c 4
EndSplineSet
Layer: 2
Layer: 3
Layer: 4
EndChar
StartChar: guillemotleft
Encoding: 171 171 314
Width: 1024
VWidth: 0
Flags: W
LayerCount: 5
Back
Fore
SplineSet
637 581 m 5
 937 971 l 5
 833 1039 l 5
 512 610 l 5
 512 542 l 5
 833 113 l 5
 937 181 l 5
 637 571 l 5
 637 581 l 5
253 581 m 5
 553 971 l 5
 449 1039 l 5
 128 610 l 5
 128 542 l 5
 449 113 l 5
 553 181 l 5
 253 571 l 5
 253 581 l 5
EndSplineSet
Layer: 2
Layer: 3
Layer: 4
EndChar
StartChar: macron
Encoding: 175 175 318
Width: 1024
VWidth: 0
Flags: W
HStem: 1156 120<256 896>
VStem: 256 640<1156 1276>
LayerCount: 5
Back
Fore
SplineSet
256 1276 m 5
 896 1276 l 5
 896 1156 l 5
 256 1156 l 5
 256 1276 l 5
EndSplineSet
Layer: 2
Layer: 3
Layer: 4
EndChar
StartChar: acute
Encoding: 180 180 311
Width: 1024
VWidth: 0
Flags: W
HStem: 1024 384
VStem: 489 304
LayerCount: 5
Back
Fore
SplineSet
489 1024 m 5
 655 1408 l 5
 793 1408 l 5
 627 1024 l 5
 489 1024 l 5
EndSplineSet
Layer: 2
Layer: 3
Layer: 4
EndChar
StartChar: paragraph
Encoding: 182 182 313
Width: 1024
VWidth: 0
Flags: W
HStem: 0 21G<512 640 768 896> 1288 120<640.299 768>
VStem: 240 400<832.979 1210.6> 512 128<0 668.749> 768 128<0 1288>
LayerCount: 5
Back
Fore
SplineSet
640 1288 m 1xd8
 640 0 l 1
 512 0 l 1
 512 655 l 1xd8
 356 695 240 831 240 1024 c 0xe8
 240 1220 360 1357 519 1395 c 0
 574 1408 626 1408 703 1408 c 2
 896 1408 l 1
 896 0 l 1
 768 0 l 1
 768 1288 l 1
 640 1288 l 1xd8
EndSplineSet
Layer: 2
Layer: 3
Layer: 4
EndChar
StartChar: questiondown
Encoding: 191 191 102
Width: 1024
VWidth: 0
Flags: W
HStem: -528 120<445.923 846.932> 640 256<448 704>
VStem: 244 128<-336.744 -42.9988> 448 256<640 896> 512 128<246.095 384>
LayerCount: 5
Back
Fore
SplineSet
704 640 m 1xf0
 448 640 l 1
 448 896 l 1
 704 896 l 1
 704 640 l 1xf0
640 384 m 1xe8
 640 100 372 50 372 -196 c 0
 372 -332 453 -408 588 -408 c 0
 672 -408 795 -376 896 -351 c 1
 896 -475 l 1
 792 -501 677 -528 588 -528 c 0
 383 -528 244 -402 244 -196 c 0
 244 90 511 169 512 384 c 1
 640 384 l 1xe8
EndSplineSet
Layer: 2
Layer: 3
Layer: 4
EndChar
StartChar: Acircumflex
Encoding: 194 194 98
Width: 1024
VWidth: 0
Flags: W
HStem: 0 21G<103 244.3 907.7 1049> 388 120<330 821> 1043 109<541.317 610.56>
VStem: 103 135<0 263.706> 914 135<0 263.706>
LayerCount: 5
Back
Refer: 89 94 N 1 0 0 1 0 650 2
Refer: 29 65 N 1 0 0 1 0 0 3
Fore
SplineSet
821 508 m 1
 767.337890625 708.025390625 688.83984375 886.815429688 581 1043 c 5
 571 1043 l 5
 462.7109375 886.815429688 383.884765625 708.025390625 330 508 c 1
 821 508 l 1
103 0 m 1
 156.467773438 405.818359375 267.232421875 794.454101562 511 1152 c 1
 641 1152 l 1
 884.888671875 794.454101562 995.653320312 405.818359375 1049 0 c 1
 914 0 l 1
 901.400390625 136 883.875 265 851 388 c 1
 301 388 l 1
 268.125 265 250.599609375 136 238 0 c 1
 103 0 l 1
497 1536 m 1
 655 1536 l 1
 952 1280 l 1
 794 1280 l 1
 576 1443.96289062 l 1
 358 1280 l 1
 200 1280 l 1
 497 1536 l 1
EndSplineSet
Layer: 2
Layer: 3
Layer: 4
EndChar
StartChar: Ecircumflex
Encoding: 202 202 109
Width: 1024
VWidth: 0
Flags: W
HStem: 0 120<384 1024> 516 120<384 896> 1032 120<384 1024>
VStem: 256 128<120 516 636 1032>
CounterMasks: 1 e0
LayerCount: 5
Back
Fore
SplineSet
256 1152 m 5
 1024 1152 l 5
 1024 1032 l 5
 384 1032 l 5
 384 636 l 5
 896 636 l 5
 896 516 l 5
 384 516 l 5
 384 120 l 1
 1024 120 l 1
 1024 0 l 1
 256 0 l 1
 256 1152 l 5
497 1536 m 1
 655 1536 l 1
 952 1280 l 1
 794 1280 l 1
 576 1444 l 1
 358 1280 l 1
 200 1280 l 1
 497 1536 l 1
EndSplineSet
Layer: 2
Layer: 3
Layer: 4
EndChar
StartChar: Edieresis
Encoding: 203 203 111
Width: 1024
VWidth: 0
Flags: W
HStem: 0 120<384 1024> 644 120<384 896> 1160 120<384 1024> 1456 224<261.032 442.968 709.032 890.968>
VStem: 240 224<1477.03 1658.97> 256 128<120 644 764 1160> 688 224<1477.03 1658.97>
LayerCount: 5
Back
Fore
SplineSet
256 1280 m 1xf6
 1024 1280 l 1
 1024 1160 l 1
 384 1160 l 1
 384 764 l 1
 896 764 l 1
 896 644 l 1
 384 644 l 1
 384 120 l 1
 1024 120 l 1
 1024 0 l 1
 256 0 l 1
 256 1280 l 1xf6
800 1680 m 0
 866 1680 912 1634 912 1568 c 0
 912 1502 866 1456 800 1456 c 0
 734 1456 688 1502 688 1568 c 0
 688 1634 734 1680 800 1680 c 0
352 1680 m 0
 418 1680 464 1634 464 1568 c 0
 464 1502 418 1456 352 1456 c 0
 286 1456 240 1502 240 1568 c 0xfa
 240 1634 286 1680 352 1680 c 0
EndSplineSet
Layer: 2
Layer: 3
Layer: 4
EndChar
StartChar: Igrave
Encoding: 204 204 112
Width: 1024
VWidth: 0
Flags: W
HStem: 0 120<256 512 640 896> 1032 120<256 512 640 896>
VStem: 512 128<120 1032>
LayerCount: 5
Back
Fore
SplineSet
896 1152 m 5
 896 1032 l 5
 640 1032 l 5
 640 120 l 1
 896 120 l 1
 896 0 l 1
 256 0 l 1
 256 120 l 1
 512 120 l 1
 512 1032 l 5
 256 1032 l 5
 256 1152 l 5
 896 1152 l 5
664 1280 m 5
 526 1280 l 5
 360 1536 l 5
 498 1536 l 5
 664 1280 l 5
EndSplineSet
Layer: 2
Layer: 3
Layer: 4
EndChar
StartChar: Ntilde
Encoding: 209 209 117
Width: 1024
VWidth: 0
Flags: W
HStem: 0 21G<128 256 882.624 1024> 1284 120<623.658 756.749> 1412 120<395.276 528.342>
VStem: 128 128<0 942> 253 128<1305 1405.1> 771 128<1411.78 1511> 896 128<210 1152>
LayerCount: 5
Back
Fore
SplineSet
256 0 m 1xf2
 128 0 l 1
 128 1152 l 1
 255 1152 l 1
 886 210 l 1
 896 210 l 1
 896 1152 l 1
 1024 1152 l 1
 1024 0 l 1
 896 0 l 1
 266 942 l 5
 256 942 l 5
 256 0 l 1xf2
448 1412 m 0
 397 1412 384 1353 381 1299 c 1
 253 1305 l 1
 257 1423 319 1532 448 1532 c 0
 594 1532 627 1404 704 1404 c 0
 755 1404 768 1463 771 1517 c 1
 899 1511 l 1xec
 896 1395 833 1284 704 1284 c 0
 558 1284 525 1412 448 1412 c 0
EndSplineSet
Layer: 2
Layer: 3
Layer: 4
EndChar
StartChar: Ocircumflex
Encoding: 212 212 120
Width: 1024
VWidth: 0
Flags: W
HStem: -16 120<408.149 743.851> 1176 120<408.149 743.851> 1408 21G<200 384.585 767.415 952>
VStem: 112 128<298.492 981.508> 912 128<298.492 981.508>
LayerCount: 5
Back
Fore
SplineSet
240 640 m 0
 240 537 242 438 266 348 c 0
 304 206 406 104 576 104 c 0
 746 104 848 206 886 348 c 0
 910 438 912 537 912 640 c 0
 912 743 910 842 886 932 c 0
 848 1074 746 1176 576 1176 c 0
 406 1176 304 1074 266 932 c 0
 242 842 240 743 240 640 c 0
112 640 m 0
 112 744 113 853 142 962 c 0
 193 1153 344 1296 576 1296 c 0
 808 1296 959 1153 1010 962 c 0
 1039 853 1040 744 1040 640 c 0
 1040 536 1039 427 1010 318 c 0
 959 127 808 -16 576 -16 c 0
 344 -16 193 127 142 318 c 0
 113 427 112 536 112 640 c 0
497 1664 m 1
 655 1664 l 1
 952 1408 l 1
 794 1408 l 1
 576 1572 l 1
 358 1408 l 1
 200 1408 l 1
 497 1664 l 1
EndSplineSet
Layer: 2
Layer: 3
Layer: 4
EndChar
StartChar: Otilde
Encoding: 213 213 121
Width: 1024
VWidth: 0
Flags: W
HStem: -16 120<408.149 743.851> 1176 120<408.149 743.851> 1412 120<623.658 756.749> 1540 120<395.276 528.342>
VStem: 112 128<298.492 981.508> 253 128<1433 1533.1> 771 128<1539.78 1639> 912 128<298.492 981.508>
LayerCount: 5
Back
Fore
SplineSet
240 640 m 0
 240 537 242 438 266 348 c 0
 304 206 406 104 576 104 c 0
 746 104 848 206 886 348 c 0
 910 438 912 537 912 640 c 0
 912 743 910 842 886 932 c 0
 848 1074 746 1176 576 1176 c 0
 406 1176 304 1074 266 932 c 0
 242 842 240 743 240 640 c 0
112 640 m 0
 112 744 113 853 142 962 c 0
 193 1153 344 1296 576 1296 c 0
 808 1296 959 1153 1010 962 c 0
 1039 853 1040 744 1040 640 c 0
 1040 536 1039 427 1010 318 c 0
 959 127 808 -16 576 -16 c 0
 344 -16 193 127 142 318 c 0
 113 427 112 536 112 640 c 0
448 1540 m 0
 397 1540 384 1481 381 1427 c 1
 253 1433 l 1
 257 1551 319 1660 448 1660 c 0
 594 1660 627 1532 704 1532 c 0
 755 1532 768 1591 771 1645 c 1
 899 1639 l 1
 896 1523 833 1412 704 1412 c 0
 558 1412 525 1540 448 1540 c 0
EndSplineSet
Layer: 2
Layer: 3
Layer: 4
EndChar
StartChar: Odieresis
Encoding: 214 214 122
Width: 1024
VWidth: 0
Flags: W
HStem: -16 120<408.149 743.851> 1176 120<408.149 743.851> 1456 224<261.032 442.968 709.032 890.968>
VStem: 112 128<298.492 981.508> 240 224<1477.03 1658.97> 688 224<1477.03 1658.97> 912 128<298.492 981.508>
LayerCount: 5
Back
Fore
SplineSet
240 640 m 0xf2
 240 537 242 438 266 348 c 0
 304 206 406 104 576 104 c 0
 746 104 848 206 886 348 c 0
 910 438 912 537 912 640 c 0
 912 743 910 842 886 932 c 0
 848 1074 746 1176 576 1176 c 0
 406 1176 304 1074 266 932 c 0
 242 842 240 743 240 640 c 0xf2
112 640 m 0
 112 744 113 853 142 962 c 0
 193 1153 344 1296 576 1296 c 0
 808 1296 959 1153 1010 962 c 0
 1039 853 1040 744 1040 640 c 0
 1040 536 1039 427 1010 318 c 0
 959 127 808 -16 576 -16 c 0
 344 -16 193 127 142 318 c 0
 113 427 112 536 112 640 c 0
800 1680 m 0
 866 1680 912 1634 912 1568 c 0
 912 1502 866 1456 800 1456 c 0
 734 1456 688 1502 688 1568 c 0xe4
 688 1634 734 1680 800 1680 c 0
352 1680 m 0
 418 1680 464 1634 464 1568 c 0
 464 1502 418 1456 352 1456 c 0
 286 1456 240 1502 240 1568 c 0xe8
 240 1634 286 1680 352 1680 c 0
EndSplineSet
Layer: 2
Layer: 3
Layer: 4
EndChar
StartChar: multiply
Encoding: 215 215 122
Width: 1024
VWidth: 0
Flags: W
HStem: 640 128<551 601>
VStem: 512 128<679 729>
LayerCount: 5
Back
Fore
SplineSet
725 640 m 1
 1000 368 l 1
 906 286 l 1
 640 555 l 1
 601 640 l 1
 551 640 l 1
 512 555 l 1
 246 286 l 1
 152 368 l 1
 427 640 l 1
 512 679 l 1
 512 729 l 1
 427 768 l 1
 152 1040 l 1
 246 1122 l 1
 512 853 l 1
 551 768 l 1
 601 768 l 1
 640 853 l 1
 906 1122 l 1
 1000 1040 l 1
 725 768 l 1
 640 729 l 1
 640 679 l 1
 725 640 l 1
EndSplineSet
Layer: 2
Layer: 3
Layer: 4
EndChar
StartChar: Udieresis
Encoding: 220 220 128
Width: 1024
VWidth: 0
Flags: W
HStem: -16 120<404.818 747.152> 1328 224<261.032 442.968 709.032 890.968>
VStem: 128 128<254.095 1152> 240 224<1349.03 1530.97> 688 224<1349.03 1530.97> 896 128<254.095 1152>
LayerCount: 5
Back
Fore
SplineSet
128 1152 m 5xe4
 256 1152 l 5
 256 512 l 2
 256 437 256 378 268 330 c 0
 301.4140625 196.345703125 416 104 576 104 c 0
 736 104 850.5859375 196.345703125 884 330 c 0
 896 378 896 437 896 512 c 2
 896 1152 l 5
 1024 1152 l 5
 1024 512 l 2
 1024 426 1024.1328125 371.350585938 1008 303 c 0
 964.392578125 118.24609375 797 -16 576 -16 c 0
 355 -16 187.248046875 118.162109375 144 303 c 0
 128 371.381835938 128 426 128 512 c 2
 128 1152 l 5xe4
800 1552 m 4
 866 1552 912 1506 912 1440 c 4
 912 1374 866 1328 800 1328 c 4
 734 1328 688 1374 688 1440 c 4xc8
 688 1506 734 1552 800 1552 c 4
352 1552 m 4
 418 1552 464 1506 464 1440 c 4
 464 1374 418 1328 352 1328 c 4
 286 1328 240 1374 240 1440 c 4xd0
 240 1506 286 1552 352 1552 c 4
EndSplineSet
Layer: 2
Layer: 3
Layer: 4
EndChar
StartChar: aring
Encoding: 229 229 137
Width: 1024
VWidth: 0
Flags: W
HStem: -16 120<416.403 660.71> 0 21G<768 896> 512 110<418.102 768> 891 122<320 463.777> 920 120<549 633.865> 940 100<545 699.358> 1256 100<491.279 660.718>
VStem: 224 128<169.682 443.733> 368 108<1040.64 1242.5> 676 108<1040.64 1242.5> 768 128<0 123 195.803 512 622 892.213>
LayerCount: 5
Back
Fore
SplineSet
768 512 m 1xa3a0
 572 512 l 2
 517 512 459 512 408 458 c 0
 372 420 352 362 352 303 c 0
 352 194 425 104 532 104 c 0
 638 104 715 162 746 235 c 0
 768 287 768 349 768 421 c 2
 768 512 l 1xa3a0
608 1040 m 0x2ba0
 704 1040 805 1021 866 913 c 0
 896 860 896 785 896 749 c 2
 896 0 l 1
 768 0 l 1x6ba0
 768 123 l 1
 758 123 l 1
 694 35 617 -16 508 -16 c 0
 455 -16 347 10 283 106 c 0
 249 157 224 224 224 301 c 0
 224 383 249 470 312 533 c 0
 402 622 512 622 574 622 c 2
 768 622 l 1
 768 744 l 2
 768 788 768 831 750 862 c 0
 729 898 696 920 608 920 c 0xaba0
 549 920 418 906 320 891 c 1
 320 1013 l 1x33a0
 417 1027 545 1040 608 1040 c 0x2ba0
576 1256 m 4
 518.13671875 1256 476 1222.05664062 476 1148 c 4
 476 1073.96484375 518.0625 1040 576 1040 c 4
 633.865234375 1040 676 1073.94140625 676 1148 c 4x2bc0
 676 1222.03515625 633.9375 1256 576 1256 c 4
576 1356 m 4
 699.30078125 1356 784 1262.32519531 784 1148 c 4
 784 1033.69140625 699.358398438 940 576 940 c 4x27c0
 452.69921875 940 368 1033.67382812 368 1148 c 4
 368 1262.30761719 452.640625 1356 576 1356 c 4
EndSplineSet
Layer: 2
Layer: 3
Layer: 4
EndChar
StartChar: eth
Encoding: 240 240 148
Width: 1024
VWidth: 0
Flags: W
HStem: -16 120<444.324 706.552> 920 120<445.166 692.729> 1516 20G<402.231 455>
VStem: 224 128<209.24 814.76> 800 128<209.24 809.017>
LayerCount: 5
Back
SplineSet
864 202 m 1
 864 512 l 2
 864 705.208007812 855.663085938 903.294921875 780.227539062 1081.16796875 c 0
 704.791015625 1259.04101562 564.948242188 1410.00878906 390 1492 c 1024
  Spiro
    864 202 {
    864 512 ]
    390 1492 o
    0 0 z
  EndSpiro
EndSplineSet
Fore
SplineSet
576 920 m 4
 480 920 416 868 384 789 c 4
 354 714 352 614 352 512 c 4
 352 410 354 310 384 235 c 4
 416 156 480 104 576 104 c 4
 672 104 736 156 768 235 c 4
 798 310 800 410 800 512 c 4
 800 614 798 714 768 789 c 4
 736 868 672 920 576 920 c 4
406 1143 m 5
 362 1209 l 5
 540 1330 l 5
 489 1382 432 1425 371 1458 c 5
 413 1536 l 5
 497 1498 570 1450 632 1392 c 5
 828 1525 l 5
 872 1459 l 5
 688 1334 l 5
 856 1141 928 861 928 512 c 4
 928 391 926 290 888 195 c 4
 842 80 736 -16 596 -16 c 4
 406 -16 311 78 264 195 c 4
 226 290 224 391 224 512 c 4
 224 633 224 734 260 829 c 4
 304 945 404 1040 556 1040 c 4
 643 1040 698 1001 754 938 c 5
 764 938 l 5
 728 1064 669 1177 594 1270 c 5
 406 1143 l 5
EndSplineSet
Layer: 2
SplineSet
928 512 m 5
 800 512 l 5
 800 703.924804688 790.759765625 893.935546875 720.755859375 1059 c 4
 650.625976562 1224.36230469 520.490234375 1363.765625 361.3828125 1438.33203125 c 5
 418.6171875 1545.66796875 l 5
 609.40625 1456.25292969 758.956054688 1293.72070312 839.69921875 1103.3359375 c 4
 920.56640625 912.654296875 928 706.491210938 928 512 c 5
576 920 m 4
 480 920 416 868 384 789 c 4
 354 714 352 614 352 512 c 4
 352 410 354 310 384 235 c 4
 416 156 480 104 576 104 c 4
 672 104 736 156 768 235 c 4
 798 310 800 410 800 512 c 4
 800 614 798 714 768 789 c 4
 736 868 672 920 576 920 c 4
  Spiro
    576 920 o
    490.741 903.624 o
    426.613 858.016 o
    384 789 o
    362.385 706.608 o
    353.625 612.383 o
    352 512 o
    353.625 411.617 o
    362.385 317.392 o
    384 235 o
    426.613 165.984 o
    490.741 120.376 o
    576 104 o
    661.259 120.376 o
    725.387 165.984 o
    768 235 o
    789.615 317.392 o
    798.375 411.617 o
    800 512 o
    798.375 612.383 o
    789.615 706.608 o
    768 789 o
    725.387 858.016 o
    661.259 903.624 o
    0 0 z
  EndSpiro
576 1040 m 4
 736 1040 842 945 888 829 c 4
 926 734 928 633 928 512 c 4
 928 391 926 290 888 195 c 4
 842 79 736 -16 576 -16 c 4
 416 -16 310 79 264 195 c 4
 226 290 224 391 224 512 c 4
 224 633 226 734 264 829 c 4
 310 945 416 1040 576 1040 c 4
  Spiro
    576 1040 o
    717.654 1011.13 o
    822.308 935.165 o
    888 829 o
    915.241 731.582 o
    926.079 626.743 o
    928 512 o
    926.079 397.257 o
    915.241 292.418 o
    888 195 o
    822.308 88.8345 o
    717.654 12.8708 o
    576 -16 o
    434.346 12.8708 o
    329.692 88.8345 o
    264 195 o
    236.759 292.418 o
    225.921 397.257 o
    224 512 o
    225.921 626.743 o
    236.759 731.582 o
    264 829 o
    329.692 935.165 o
    434.346 1011.13 o
    0 0 z
  EndSpiro
EndSplineSet
Layer: 3
Layer: 4
EndChar
StartChar: ugrave
Encoding: 249 249 157
Width: 1024
VWidth: 0
Flags: W
HStem: -16 120<447.689 680.727> 0 21G<768 896> 1004 20G<256 384 768 896> 1388 20G<360 510.969>
VStem: 256 128<169.924 1024> 768 128<0 112 166.016 1024>
LayerCount: 5
Back
Fore
SplineSet
556 -16 m 0xbc
 456 -16 375 29 325 91 c 0
 256 177 256 273 256 367 c 2
 256 1024 l 1
 384 1024 l 1
 384 367 l 2
 384 280 384 218 429 166 c 0
 461 129 512 104 576 104 c 0xbc
 640 104 691 129 723 166 c 0
 768 218 768 280 768 367 c 2
 768 1024 l 1
 896 1024 l 1
 896 0 l 1
 768 0 l 1x7c
 768 112 l 1
 758 112 l 1
 709 35 632 -16 556 -16 c 0xbc
664 1152 m 1
 526 1152 l 1
 360 1408 l 1
 498 1408 l 1
 664 1152 l 1
EndSplineSet
Layer: 2
Layer: 3
Layer: 4
EndChar
StartChar: yacute
Encoding: 253 253 160
Width: 1024
VWidth: 0
Flags: W
HStem: -400 114<256 436.156> 1004 20G<201 357.5 791.5 951>
VStem: 201 135<738.402 1024> 816 135<808.551 1024>
LayerCount: 5
Back
Fore
SplineSet
497 0 m 1
 317 328 241 663 201 1024 c 1
 336 1024 l 1
 379 651 458 332 592 78 c 1
 602 78 l 1
 701 406 767 720 816 1024 c 1
 951 1024 l 1
 866 580 772 142 616 -273 c 4
 596 -327 547 -371 474 -385 c 0
 415 -396 341 -400 256 -400 c 1
 256 -286 l 1
 339 -286 399 -285 438 -278 c 0
 470 -272 490 -247 505 -214 c 0
 539 -139 560 -79 585 0 c 1
 497 0 l 1
507 1162 m 5
 645 1162 l 5
 811 1418 l 5
 673 1418 l 5
 507 1162 l 5
EndSplineSet
Layer: 2
Layer: 3
Layer: 4
EndChar
StartChar: thorn
Encoding: 254 254 162
Width: 1024
VWidth: 0
Flags: W
HStem: -16 120<483.614 706.044> 920 120<483.616 706.024> 1388 20G<256 384>
VStem: 256 128<-384 125 212.636 811.363 899 1408> 800 128<213.324 810.675>
LayerCount: 5
Back
Fore
SplineSet
612 -16 m 0
 529 -16 453 33 394 125 c 1
 384 125 l 1
 384 -384 l 5
 256 -384 l 5
 256 1408 l 1
 384 1408 l 1
 384 899 l 1
 394 899 l 1
 453 991 529 1040 612 1040 c 0
 743 1040 853 953 900 803 c 0
 928.182177648 713.056879846 928 624 928 512 c 0
 928 400 928 311 900 221 c 0
 853.303821428 70.9051403052 743 -16 612 -16 c 0
592 104 m 0
 688 104 748 177 774 256 c 0
 799.011421419 331.996242003 800 420 800 512 c 0
 800 604 799 692 774 768 c 0
 748.011872851 847.003906532 688 920 592 920 c 0
 496 920 436 847 410 768 c 0
 384.988578581 692.003757997 384 604 384 512 c 0
 384 420 385 332 410 256 c 0
 435.988127149 176.996093468 496 104 592 104 c 0
EndSplineSet
Layer: 2
Layer: 3
Layer: 4
EndChar
StartChar: ydieresis
Encoding: 255 255 163
Width: 1024
VWidth: 0
Flags: W
HStem: -400 114<256 436.159> 1004 20G<201 357.5 791.5 951> 1162 224<261.032 442.968 709.032 890.968>
VStem: 201 135<738.402 1024> 240 224<1183.03 1364.97> 688 224<1183.03 1364.97> 816 135<816.403 1024>
LayerCount: 5
Back
Fore
SplineSet
497 0 m 1xf2
 317 328 241 663 201 1024 c 1
 336 1024 l 1
 379 651 458 332 592 78 c 1
 602 78 l 1
 701 406 767 720 816 1024 c 1
 951 1024 l 1
 865.55078125 580 771.501953125 142.387695312 616 -273 c 4
 595.620117188 -327.438476562 546.873046875 -371.413085938 474 -385 c 0
 415 -396 341 -400 256 -400 c 1
 256 -286 l 1
 339 -286 399.055664062 -285.301757812 438 -278 c 0
 470 -272 490.033203125 -247.014648438 505 -214 c 0
 539 -139 560 -79 585 0 c 1
 497 0 l 1xf2
800 1386 m 4
 866 1386 912 1340 912 1274 c 4
 912 1208 866 1162 800 1162 c 4
 734 1162 688 1208 688 1274 c 4xe4
 688 1340 734 1386 800 1386 c 4
352 1386 m 4
 418 1386 464 1340 464 1274 c 4
 464 1208 418 1162 352 1162 c 4
 286 1162 240 1208 240 1274 c 4xe8
 240 1340 286 1386 352 1386 c 4
EndSplineSet
Layer: 2
Layer: 3
Layer: 4
EndChar
StartChar: Amacron
Encoding: 256 256 169
Width: 1024
VWidth: 0
Flags: W
HStem: 0 21G<103 243 909 1049> 388 120<304 848> 1161 119<547.875 604.125> 1412 120<256 896>
LayerCount: 5
Back
Fore
SplineSet
256 1532 m 1
 896 1532 l 1
 896 1412 l 1
 256 1412 l 1
 256 1532 l 1
848 508 m 1
 790 752 707 970 581 1161 c 1
 571 1161 l 1
 445 970 362 752 304 508 c 1
 848 508 l 1
103 0 m 1
 147 451 239 882 516 1280 c 1
 636 1280 l 1
 913 882 1005 451 1049 0 c 1
 914 0 l 1
 904 136 891 265 874 388 c 1
 278 388 l 1
 261 265 248 136 238 0 c 1
 103 0 l 1
EndSplineSet
Layer: 2
Layer: 3
Layer: 4
EndChar
StartChar: Abreve
Encoding: 258 258 170
Width: 1024
VWidth: 0
Flags: W
HStem: 0 21G<103 244.3 907.7 1049> 388 120<330 821> 1043 109<541.317 610.56> 1264 120<418.7 733.3>
VStem: 103 135<0 263.706> 236 128<1435.55 1536> 788 128<1435.55 1536> 914 135<0 263.706>
LayerCount: 5
Back
Fore
SplineSet
821 508 m 1xf0
 767.337890625 708.025390625 688.83984375 886.815429688 581 1043 c 5
 571 1043 l 5
 462.7109375 886.815429688 383.884765625 708.025390625 330 508 c 1
 821 508 l 1xf0
103 0 m 1xf9
 156.467773438 405.818359375 267.232421875 794.454101562 511 1152 c 1
 641 1152 l 1
 884.888671875 794.454101562 995.653320312 405.818359375 1049 0 c 1
 914 0 l 1
 901.400390625 136 883.875 265 851 388 c 1
 301 388 l 1
 268.125 265 250.599609375 136 238 0 c 1
 103 0 l 1xf9
788 1536 m 5xf6
 916 1536 l 5
 916 1367.94628906 764.259765625 1264 576 1264 c 4
 387.739257812 1264 236 1367.94433594 236 1536 c 5
 364 1536 l 5
 364 1449.65527344 433.061523438 1384 576 1384 c 4
 718.939453125 1384 788 1449.65332031 788 1536 c 5xf6
EndSplineSet
Layer: 2
Layer: 3
Layer: 4
EndChar
StartChar: Cdotaccent
Encoding: 266 266 176
Width: 1024
VWidth: 0
Flags: W
HStem: -16 120<446.67 926.39> 1176 120<446.67 927.818> 1456 224<485.032 666.968>
VStem: 112 128<342.784 937.211> 464 224<1477.03 1658.97>
LayerCount: 5
Back
Fore
SplineSet
576 1680 m 0
 642 1680 688 1634 688 1568 c 0
 688 1502 642 1456 576 1456 c 0
 510 1456 464 1502 464 1568 c 0
 464 1634 510 1680 576 1680 c 0
1024 173 m 1
 1024 49 l 1
 907 19 777 -16 643 -16 c 0
 543 -16 436 7 347 64 c 0
 246 129 175 237 143 364 c 0
 119 458 112 551 112 640 c 0
 112 729 119 822 143 916 c 0
 176 1043 246 1150 347 1216 c 0
 436 1274 543 1296 643 1296 c 0
 766 1296 885 1267 994 1239 c 1
 994 1115 l 1
 881 1144 755 1176 643 1176 c 0
 430 1176 312 1060 268 888 c 0
 248 810 240 727 240 640 c 0
 240 553 248 471 268 392 c 0
 312 220 430 104 643 104 c 0
 765 104 903 142 1024 173 c 1
EndSplineSet
Layer: 2
Layer: 3
Layer: 4
EndChar
StartChar: ccaron
Encoding: 269 269 179
Width: 1024
VWidth: 0
Flags: W
HStem: -16 120<450.263 890.041> 920 120<450.263 890.041>
VStem: 224 128<209.809 814.191>
LayerCount: 5
Back
Fore
SplineSet
497 1152 m 1
 655 1152 l 1
 952 1408 l 1
 794 1408 l 1
 576 1244 l 1
 358 1408 l 1
 200 1408 l 1
 497 1152 l 1
224 512 m 0
 224 633 226 738 264 831 c 0
 311 946 417 1040 586 1040 c 0
 669 1040 769 1025 896 999 c 1
 896 876 l 1
 768 903 662 920 586 920 c 0
 485 920 420 872 384 789 c 0
 352 716 352 614 352 512 c 0
 352 410 352 308 384 235 c 0
 420 152 485 104 586 104 c 0
 662 104 768 121 896 148 c 1
 896 25 l 1
 769 -1 669 -16 586 -16 c 0
 417 -16 311 78 264 193 c 0
 226 286 224 391 224 512 c 0
EndSplineSet
Layer: 2
Layer: 3
Layer: 4
EndChar
StartChar: Dcaron
Encoding: 270 270 180
Width: 1024
VWidth: 0
Flags: W
HStem: 0 120<256 697.496> 1160 120<256 696.764>
VStem: 128 128<120 1160> 912 128<350.063 912.486>
LayerCount: 5
Back
Fore
SplineSet
497 1408 m 1
 655 1408 l 1
 952 1664 l 1
 794 1664 l 1
 576 1500 l 1
 358 1664 l 1
 200 1664 l 1
 497 1408 l 1
504 1280 m 2
 608 1280 716 1250 807 1189 c 0
 910 1119 977 1009 1011 880 c 0
 1033 797 1040 718 1040 640 c 0
 1040 562 1032 483 1011 400 c 0
 978 271 908 163 807 91 c 0
 718 27 609 0 504 0 c 0
 384 0 275 0 128 0 c 1
 128 1280 l 1
 504 1280 l 2
504 120 m 2
 665 120 764 189 829 278 c 0
 897 371 912 488 912 640 c 0
 912 714 903 784 886 854 c 0
 844 1027 725 1160 504 1160 c 0
 395 1160 353 1160 256 1160 c 1
 256 120 l 1
 504 120 l 2
EndSplineSet
Layer: 2
Layer: 3
Layer: 4
EndChar
StartChar: Ebreve
Encoding: 276 276 186
Width: 1024
VWidth: 0
Flags: W
HStem: 0 120<384 1024> 644 120<384 896> 1160 120<384 1024> 1392 120<418.746 733.254>
VStem: 236 128<1563.69 1664> 256 128<120 644 764 1160> 788 128<1563.69 1664>
LayerCount: 5
Back
Fore
SplineSet
788 1664 m 1xfa
 916 1664 l 1
 916 1496 764 1392 576 1392 c 0
 388 1392 236 1496 236 1664 c 1
 364 1664 l 1
 364 1578 433 1512 576 1512 c 0
 719 1512 788 1578 788 1664 c 1xfa
256 1280 m 1xf6
 1024 1280 l 1
 1024 1160 l 1
 384 1160 l 1
 384 764 l 1
 896 764 l 1
 896 644 l 1
 384 644 l 1
 384 120 l 1
 1024 120 l 1
 1024 0 l 1
 256 0 l 1
 256 1280 l 1xf6
EndSplineSet
Layer: 2
Layer: 3
Layer: 4
EndChar
StartChar: ebreve
Encoding: 277 277 187
Width: 1024
VWidth: 0
Flags: W
HStem: -16 120<450.346 890.029> 512 120<354.639 797.458> 920 120<445.97 705.959> 1136 120<418.7 733.3> 1388 20G<236 364 788 916>
VStem: 224 128<210.576 512 632 813.956 1320.49 1408> 788 128<1307.55 1408>
LayerCount: 5
Back
Fore
SplineSet
352 512 m 1
 352 410.497070312 352 308 384 235 c 0
 420 152 485 104 586 104 c 0
 662.2421875 104 767.84765625 120.916992188 896 148 c 1
 896 25 l 1
 768.595703125 -1.4013671875 668.55859375 -16 586 -16 c 0
 417.376953125 -16 311 78 264 193 c 0
 226 286 224 390.729492188 224 512 c 0
 224 632.510742188 225.643554688 734.44140625 263.647460938 829.205078125 c 0
 309.981445312 944.740234375 415.514648438 1040 576 1040 c 0
 736.485351562 1040 842.021484375 944.7421875 888.352539062 829.205078125 c 0
 926.353515625 734.440429688 928 632.510742188 928 512 c 1
 352 512 l 1
797.458007812 632 m 1
 794.057617188 690.013671875 786.173828125 744.1328125 768 789 c 0
 736 868 672 920 576 920 c 0
 480 920 415.655273438 868.138671875 384 789 c 0
 366.025390625 744.063476562 358.102539062 689.974609375 354.638671875 632 c 1
 797.458007812 632 l 1
788 1408 m 5
 916 1408 l 5
 916 1239.94628906 764.259765625 1136 576 1136 c 4
 387.739257812 1136 236 1239.94433594 236 1408 c 5
 364 1408 l 5
 364 1321.65527344 433.061523438 1256 576 1256 c 4
 718.939453125 1256 788 1321.65332031 788 1408 c 5
EndSplineSet
Layer: 2
Layer: 3
Layer: 4
EndChar
StartChar: Eogonek
Encoding: 280 280 164
Width: 1024
VWidth: 0
Flags: W
HStem: -400 120<779.912 1022.15> 0 120<384 896> 644 120<384 896> 1288 120<384 1024>
VStem: 256 128<120 644 764 1288> 640 128<-262.716 -135.229>
LayerCount: 5
Back
Fore
SplineSet
895 -280 m 0
 941 -280 985 -270 1024 -260 c 1
 1024 -383 l 1
 984 -391 941 -400 895 -400 c 0
 781 -400 640 -325 640 -205 c 0
 640 -57 835 -63 896 0 c 1
 256 0 l 1
 256 1408 l 1
 1024 1408 l 1
 1024 1288 l 1
 384 1288 l 1
 384 764 l 1
 896 764 l 1
 896 644 l 1
 384 644 l 1
 384 120 l 1
 1024 120 l 1
 1024 0 l 1
 983 -91 768 -103 768 -198 c 0
 768 -258 838 -280 895 -280 c 0
EndSplineSet
Layer: 2
Layer: 3
Layer: 4
EndChar
StartChar: eogonek
Encoding: 281 281 164
Width: 1024
VWidth: 0
Flags: W
HStem: -288 120<651.912 894.146> -16 120<449.912 571> 25 123<731.326 896> 512 120<355 797> 920 120<447.84 704.16>
VStem: 224 128<210.579 512 632 809.36> 512 128<-150.716 -40.7539> 797 131<632 814.755>
LayerCount: 5
Back
Fore
SplineSet
896 25 m 5xbf
 809 7 640 -35 640 -86 c 4
 640 -146 710 -168 767 -168 c 4
 813 -168 857 -158 896 -148 c 5
 896 -271 l 5
 856 -279 813 -288 767 -288 c 4
 653 -288 512 -213 512 -93 c 4
 512 -56 537 -33 571 -16 c 5
 411 -11 310 81 264 193 c 4
 226 286 224 391 224 512 c 4
 224 633 226 734 264 829 c 4
 310 945 416 1040 576 1040 c 4
 736 1040 842 945 888 829 c 4
 926 734 928 633 928 512 c 5
 352 512 l 5
 352 410 352 308 384 235 c 4
 420 152 485 104 586 104 c 4xdf
 662 104 768 121 896 148 c 5
 896 107 896 66 896 25 c 5xbf
797 632 m 5
 789 790 733 920 576 920 c 4
 419 920 363 790 355 632 c 5
 797 632 l 5
EndSplineSet
Layer: 2
Layer: 3
Layer: 4
EndChar
StartChar: Gcircumflex
Encoding: 284 284 192
Width: 1024
VWidth: 0
Flags: W
HStem: -16 120<443.402 894.218> 520 120<640 896> 1048 120<443.402 928.567>
VStem: 112 128<328.306 823.694> 896 128<140 520>
LayerCount: 5
Back
Fore
SplineSet
896 140 m 1
 896 520 l 1
 640 520 l 1
 640 640 l 1
 1024 640 l 1
 1024 49 l 1
 907 19 787 -16 643 -16 c 0
 300 -16 112 213 112 576 c 0
 112 939 300 1168 643 1168 c 0
 786 1168 907 1133 1024 1103 c 1
 1024 979 l 1
 903 1010 784 1048 643 1048 c 0
 370 1048 240 870 240 576 c 0
 240 282 370 104 643 104 c 0
 735.12109375 104 817.141601562 119.993164062 896.432617188 139.692382812 c 1
 896 140 l 1
497 1536 m 1
 655 1536 l 1
 952 1280 l 1
 794 1280 l 1
 576 1443.96289062 l 1
 358 1280 l 1
 200 1280 l 1
 497 1536 l 1
EndSplineSet
Layer: 2
Layer: 3
Layer: 4
EndChar
StartChar: gcircumflex
Encoding: 285 285 194
Width: 1024
VWidth: 0
Flags: W
HStem: -528 120<260.158 677.227> -16 120<445.978 668.384> 920 120<445.978 668.384> 1004 20G<768 896> 1388 20G<473.797 678.203>
VStem: 224 128<213.326 810.674> 768 128<-309.979 125 212.637 811.363 899 1024>
LayerCount: 5
Back
Fore
SplineSet
497 1408 m 1xce
 655 1408 l 1
 952 1152 l 1
 794 1152 l 1
 576 1316 l 1
 358 1152 l 1
 200 1152 l 1
 497 1408 l 1xce
540 1040 m 0xee
 623 1040 699 991 758 899 c 1
 768 899 l 1
 768 1024 l 1
 896 1024 l 1xde
 896 -96 l 2
 896 -156 896 -267 835 -369 c 0
 780 -461 684 -528 536 -528 c 0
 443 -528 345 -506 256 -489 c 1
 256 -366 l 1
 344 -383 448 -408 536 -408 c 0
 632 -408 687 -369 724 -310 c 0
 768 -239 768 -143 768 -96 c 2
 768 125 l 1
 758 125 l 1
 699 33 623 -16 540 -16 c 0
 409 -16 299 71 252 221 c 0
 224 311 224 400 224 512 c 0
 224 624 224 713 252 803 c 0
 299 953 409 1040 540 1040 c 0xee
560 920 m 0xee
 464 920 404 847 378 768 c 0
 353 692 352 604 352 512 c 0
 352 420 353 332 378 256 c 0
 404 177 464 104 560 104 c 0
 656 104 716 177 742 256 c 0
 767 332 768 420 768 512 c 0
 768 604 767 692 742 768 c 0
 716 847 656 920 560 920 c 0xee
EndSplineSet
Layer: 2
Layer: 3
Layer: 4
EndChar
StartChar: Gbreve
Encoding: 286 286 194
Width: 1024
VWidth: 0
Flags: W
HStem: -16 120<443.402 894.218> 520 120<640 896> 1048 120<443.402 928.567> 1264 120<418.7 733.3>
VStem: 112 128<328.306 823.694> 236 128<1435.55 1536> 788 128<1435.55 1536> 896 128<140 520>
LayerCount: 5
Back
Fore
SplineSet
896 140 m 1xf9
 896 520 l 1
 640 520 l 1
 640 640 l 1
 1024 640 l 1
 1024 49 l 1
 907 19 787 -16 643 -16 c 0
 300 -16 112 213 112 576 c 0
 112 939 300 1168 643 1168 c 0
 786 1168 907 1133 1024 1103 c 1
 1024 979 l 1
 903 1010 784 1048 643 1048 c 0
 370 1048 240 870 240 576 c 0
 240 282 370 104 643 104 c 0
 735.12109375 104 817.141601562 119.993164062 896.432617188 139.692382812 c 1
 896 140 l 1xf9
788 1536 m 5xf6
 916 1536 l 5
 916 1367.94628906 764.259765625 1264 576 1264 c 4
 387.739257812 1264 236 1367.94433594 236 1536 c 5
 364 1536 l 5
 364 1449.65527344 433.061523438 1384 576 1384 c 4
 718.939453125 1384 788 1449.65332031 788 1536 c 5xf6
EndSplineSet
Layer: 2
Layer: 3
Layer: 4
EndChar
StartChar: gbreve
Encoding: 287 287 195
Width: 1024
VWidth: 0
Flags: W
HStem: -400 120<260.158 677.227> -16 120<445.978 668.384> 920 120<445.978 668.384> 1004 20G<768 896> 1136 120<418.7 733.3> 1388 20G<236 364 788 916>
VStem: 224 128<213.326 810.674 1320.49 1408> 768 128<-181.979 125 212.637 811.363 899 1024> 788 128<1307.55 1408>
LayerCount: 5
Back
Fore
SplineSet
540 1040 m 4xef
 623 1040 699 991 758 899 c 5
 768 899 l 5
 768 1024 l 5
 896 1024 l 5xdf
 896 32 l 6
 896 -28 896 -139 835 -241 c 4
 780 -333 684 -400 536 -400 c 4
 443 -400 345 -378 256 -361 c 5
 256 -238 l 5
 344 -255 448 -280 536 -280 c 4
 632 -280 687 -241 724 -182 c 4
 768 -111 768 -15 768 32 c 6
 768 125 l 5
 758 125 l 5
 699 33 623 -16 540 -16 c 4
 409 -16 299 71 252 221 c 4
 224 311 224 400 224 512 c 4
 224 624 224 713 252 803 c 4
 299 953 409 1040 540 1040 c 4xef
560 920 m 4xef
 464 920 404 847 378 768 c 4
 353 692 352 604 352 512 c 4
 352 420 353 332 378 256 c 4
 404 177 464 104 560 104 c 4
 656 104 716 177 742 256 c 4
 767 332 768 420 768 512 c 4
 768 604 767 692 742 768 c 4
 716 847 656 920 560 920 c 4xef
788 1408 m 5xce80
 916 1408 l 5
 916 1239.94628906 764.259765625 1136 576 1136 c 4
 387.739257812 1136 236 1239.94433594 236 1408 c 5
 364 1408 l 5
 364 1321.65527344 433.061523438 1256 576 1256 c 4
 718.939453125 1256 788 1321.65332031 788 1408 c 5xce80
EndSplineSet
Layer: 2
Layer: 3
Layer: 4
EndChar
StartChar: gdotaccent
Encoding: 289 289 197
Width: 1024
VWidth: 0
Flags: W
HStem: -528 120<260.158 677.227> -16 120<445.978 668.384> 920 120<445.978 668.384> 1004 20G<768 896> 1200 224<485.032 666.968>
VStem: 224 128<213.326 810.674> 464 224<1221.03 1402.97> 768 128<-309.979 125 212.637 811.363 899 1024>
LayerCount: 5
Back
Fore
SplineSet
576 1424 m 0xcf
 642 1424 688 1378 688 1312 c 0
 688 1246 642 1200 576 1200 c 0
 510 1200 464 1246 464 1312 c 0
 464 1378 510 1424 576 1424 c 0xcf
540 1040 m 0xef
 623 1040 699 991 758 899 c 1
 768 899 l 1
 768 1024 l 1
 896 1024 l 1xdf
 896 -96 l 2
 896 -156 896 -267 835 -369 c 0
 780 -461 684 -528 536 -528 c 0
 443 -528 345 -506 256 -489 c 1
 256 -366 l 1
 344 -383 448 -408 536 -408 c 0
 632 -408 687 -369 724 -310 c 0
 768 -239 768 -143 768 -96 c 2
 768 125 l 1
 758 125 l 1
 699 33 623 -16 540 -16 c 0
 409 -16 299 71 252 221 c 0
 224 311 224 400 224 512 c 0
 224 624 224 713 252 803 c 0
 299 953 409 1040 540 1040 c 0xef
560 920 m 0xef
 464 920 404 847 378 768 c 0
 353 692 352 604 352 512 c 0
 352 420 353 332 378 256 c 0
 404 177 464 104 560 104 c 0
 656 104 716 177 742 256 c 0
 767 332 768 420 768 512 c 0
 768 604 767 692 742 768 c 0
 716 847 656 920 560 920 c 0xef
EndSplineSet
Layer: 2
Layer: 3
Layer: 4
EndChar
StartChar: uni0122
Encoding: 290 290 272
Width: 1024
VWidth: 0
Flags: W
HStem: -528 120<512 611.002> -16 120<443.402 894.218> 520 120<640 896> 1048 120<443.402 928.567>
VStem: 112 128<328.306 823.694> 640 128<-361.261 -128> 896 128<140 520>
LayerCount: 5
Back
Fore
SplineSet
896 140 m 1
 896 520 l 1
 640 520 l 1
 640 640 l 1
 1024 640 l 1
 1024 49 l 1
 907 19 787 -16 643 -16 c 0
 300 -16 112 213 112 576 c 0
 112 939 300 1168 643 1168 c 0
 786 1168 907 1133 1024 1103 c 1
 1024 979 l 1
 903 1010 784 1048 643 1048 c 0
 370 1048 240 870 240 576 c 0
 240 282 370 104 643 104 c 0
 735.12109375 104 817.141601562 119.993164062 896.432617188 139.692382812 c 1
 896 140 l 1
768 -233 m 6
 768 -293 767.727539062 -362.798828125 716 -433 c 4
 674 -490 602.005859375 -528 512 -528 c 4
 512 -408 l 4
 559 -408 590.879882812 -390.909179688 612 -363 c 4
 640 -326 640 -283 640 -233 c 6
 640 -128 l 5
 768 -128 l 5
 768 -233 l 6
EndSplineSet
Layer: 2
Layer: 3
Layer: 4
EndChar
StartChar: hcircumflex
Encoding: 293 293 222
Width: 1024
VWidth: 0
Flags: W
HStem: 0 21G<256 384 768 896> 792 120<471.273 704.311>
VStem: 256 128<0 729.984 784 1152> 768 128<0 726.076>
LayerCount: 5
Back
Fore
SplineSet
497 1536 m 5
 655 1536 l 5
 952 1280 l 5
 794 1280 l 5
 576 1444 l 5
 358 1280 l 5
 200 1280 l 5
 497 1536 l 5
596 912 m 4
 696 912 777 867 827 805 c 4
 896 719 896 623 896 529 c 6
 896 0 l 1
 768 0 l 1
 768 529 l 6
 768 616 768 678 723 730 c 4
 691 767 640 792 576 792 c 4
 512 792 461 767 429 730 c 4
 384 678 384 616 384 529 c 6
 384 0 l 1
 256 0 l 1
 256 1152 l 5
 384 1152 l 5
 384 784 l 5
 394 784 l 5
 443 861 520 912 596 912 c 4
EndSplineSet
Layer: 2
Layer: 3
Layer: 4
EndChar
StartChar: Itilde
Encoding: 296 296 224
Width: 1024
VWidth: 0
Flags: W
HStem: 0 120<256 512 640 896> 1032 120<256 512 640 896> 1284 120<623.658 756.749> 1412 120<395.276 528.342>
VStem: 253 128<1305 1405.1> 512 128<120 1032> 771 128<1411.78 1511>
CounterMasks: 1 0e
LayerCount: 5
Back
Fore
SplineSet
896 1152 m 5
 896 1032 l 5
 640 1032 l 5
 640 120 l 1
 896 120 l 1
 896 0 l 1
 256 0 l 1
 256 120 l 1
 512 120 l 1
 512 1032 l 5
 256 1032 l 5
 256 1152 l 5
 896 1152 l 5
448 1412 m 0
 397 1412 384 1353 381 1299 c 1
 253 1305 l 1
 257 1423 319 1532 448 1532 c 0
 594 1532 627 1404 704 1404 c 0
 755 1404 768 1463 771 1517 c 1
 899 1511 l 1
 896 1395 833 1284 704 1284 c 0
 558 1284 525 1412 448 1412 c 0
EndSplineSet
Layer: 2
Layer: 3
Layer: 4
EndChar
StartChar: Ibreve
Encoding: 300 300 228
Width: 1024
VWidth: 0
Flags: W
HStem: 0 120<256 512 640 896> 1032 120<256 512 640 896> 1264 120<418.746 733.254>
VStem: 236 128<1435.69 1536> 512 128<120 1032> 788 128<1435.69 1536>
CounterMasks: 1 1c
LayerCount: 5
Back
Fore
SplineSet
896 1152 m 5
 896 1032 l 5
 640 1032 l 5
 640 120 l 1
 896 120 l 1
 896 0 l 1
 256 0 l 1
 256 120 l 1
 512 120 l 1
 512 1032 l 5
 256 1032 l 5
 256 1152 l 5
 896 1152 l 5
788 1536 m 5
 916 1536 l 5
 916 1368 764 1264 576 1264 c 4
 388 1264 236 1368 236 1536 c 5
 364 1536 l 5
 364 1450 433 1384 576 1384 c 4
 719 1384 788 1450 788 1536 c 5
EndSplineSet
Layer: 2
Layer: 3
Layer: 4
EndChar
StartChar: iogonek
Encoding: 303 303 232
Width: 1024
VWidth: 0
Flags: W
HStem: -400 120<651.912 894.146> 0 120<256 512 640 768> 776 120<256 512> 1200 224<453.032 634.968>
VStem: 432 224<1221.03 1402.97> 512 128<-262.716 -135.229 120 776>
LayerCount: 5
Back
Fore
SplineSet
767 -280 m 0xf4
 813 -280 857 -270 896 -260 c 1
 896 -383 l 1
 856 -391 813 -400 767 -400 c 0
 653 -400 512 -325 512 -205 c 0
 512 -57 707 -63 768 0 c 1
 256 0 l 1
 256 120 l 1
 512 120 l 1
 512 776 l 5
 256 776 l 5
 256 896 l 5
 640 896 l 5
 640 120 l 1
 896 120 l 1
 896 0 l 1
 855 -91 640 -103 640 -198 c 0
 640 -258 710 -280 767 -280 c 0xf4
544 1424 m 4
 610 1424 656 1378 656 1312 c 4
 656 1246 610 1200 544 1200 c 4
 478 1200 432 1246 432 1312 c 4xf8
 432 1378 478 1424 544 1424 c 4
EndSplineSet
Layer: 2
Layer: 3
Layer: 4
EndChar
StartChar: Idotaccent
Encoding: 304 304 232
Width: 1024
VWidth: 0
Flags: W
HStem: 0 120<256 512 640 896> 1032 120<256 512 640 896> 1328 224<485.032 666.968>
VStem: 464 224<1349.03 1530.97> 512 128<120 1032>
LayerCount: 5
Back
Fore
SplineSet
896 1152 m 5xe8
 896 1032 l 5
 640 1032 l 5
 640 120 l 1
 896 120 l 1
 896 0 l 1
 256 0 l 1
 256 120 l 1
 512 120 l 1
 512 1032 l 5
 256 1032 l 5
 256 1152 l 5
 896 1152 l 5xe8
576 1552 m 4
 642 1552 688 1506 688 1440 c 4
 688 1374 642 1328 576 1328 c 4
 510 1328 464 1374 464 1440 c 4xf0
 464 1506 510 1552 576 1552 c 4
EndSplineSet
Layer: 2
Layer: 3
Layer: 4
EndChar
StartChar: IJ
Encoding: 306 306 235
Width: 1024
VWidth: 0
Flags: W
HStem: -400 120<357.959 797.737> 0 120<128 256 384 512> 1160 120<128 256 384 512>
VStem: 128 384<0 120 1160 1280> 896 128<-173.421 1280>
LayerCount: 5
Back
Fore
SplineSet
512 1280 m 5
 512 1160 l 5
 384 1160 l 5
 384 120 l 1
 512 120 l 1
 512 0 l 1
 128 0 l 1
 128 120 l 1
 256 120 l 1
 256 1160 l 5
 128 1160 l 5
 128 1280 l 5
 512 1280 l 5
1024 128 m 2
 1024 7 1022 -98 984 -191 c 0
 937 -306 831 -400 662 -400 c 0
 579 -400 479 -385 352 -359 c 1
 352 -236 l 1
 480 -263 586 -280 662 -280 c 0
 763 -280 828 -232 864 -149 c 0
 896 -76 896 26 896 128 c 2
 896 1280 l 5
 1024 1280 l 5
 1024 128 l 2
EndSplineSet
Layer: 2
Layer: 3
Layer: 4
EndChar
StartChar: ij
Encoding: 307 307 236
Width: 1024
VWidth: 0
Flags: W
HStem: -528 120<386.703 707.284> 0 120<128 256 384 512> 776 120<128 256 640 768> 1200 224<197.032 378.968 709.032 890.968>
VStem: 128 256<776 896> 176 224<1221.03 1402.97> 256 128<120 776> 640 256<770 896> 688 224<1221.03 1402.97> 768 128<-347.771 770>
LayerCount: 5
Back
Fore
SplineSet
128 0 m 1xf8
 128 120 l 1xf8
 256 120 l 1
 256 776 l 5xf2
 128 776 l 5
 128 896 l 5
 384 896 l 5xf8
 384 120 l 1xf2
 512 120 l 1
 512 0 l 1
 128 0 l 1xf8
288 1424 m 4
 354 1424 400 1378 400 1312 c 4
 400 1246 354 1200 288 1200 c 4
 222 1200 176 1246 176 1312 c 4xf4
 176 1378 222 1424 288 1424 c 4
800 1424 m 4
 866 1424 912 1378 912 1312 c 4
 912 1246 866 1200 800 1200 c 4
 734 1200 688 1246 688 1312 c 4xf080
 688 1378 734 1424 800 1424 c 4
384 -365 m 1xf240
 439 -387 508 -408 576 -408 c 0
 643 -408 693 -384 725 -346 c 0
 768 -294 768 -230 768 -142 c 2
 768 770 l 5xf240
 640 770 l 5
 640 896 l 5
 896 896 l 5xf1
 896 -152 l 2
 896 -243 896 -338 828 -420 c 0
 776 -483 692 -528 586 -528 c 0
 511 -528 444 -513 384 -493 c 1
 384 -365 l 1xf240
EndSplineSet
Layer: 2
Layer: 3
Layer: 4
EndChar
StartChar: Jcircumflex
Encoding: 308 308 237
Width: 1024
VWidth: 0
Flags: W
HStem: -16 120<229.971 669.587> 1032 120<256 768>
VStem: 768 128<210.579 1032>
LayerCount: 5
Back
Fore
SplineSet
896 512 m 2
 896 391 894.0078125 285.997070312 856 193 c 0
 809 78 702.623046875 -16 534 -16 c 0
 451.44140625 -16 351.404296875 -1.4013671875 224 25 c 1
 224 148 l 1
 352.15234375 120.916992188 457.7578125 104 534 104 c 0
 635 104 699.677734375 152.140625 736 235 c 0
 768 308 768 410 768 512 c 2
 768 1032 l 5
 256 1032 l 5
 256 1152 l 5
 469.333007812 1152 682.666992188 1152 896 1152 c 5
 896 512 l 2
497 1536 m 1
 655 1536 l 1
 952 1280 l 1
 794 1280 l 1
 576 1443.96289062 l 1
 358 1280 l 1
 200 1280 l 1
 497 1536 l 1
EndSplineSet
Layer: 2
Layer: 3
Layer: 4
EndChar
StartChar: uni0137
Encoding: 311 311 275
Width: 1024
VWidth: 0
Flags: W
HStem: -528 120<384 483.008> 0 21G<256 384 833.964 1002> 1004 20G<764.815 955>
VStem: 256 128<0 435 607 1536> 512 128<-361.261 -128>
LayerCount: 5
Back
Fore
SplineSet
640 -233 m 2
 640 -293 640 -363 588 -433 c 0
 546 -490 474 -528 384 -528 c 1
 384 -408 l 1
 431 -408 463 -391 484 -363 c 0
 512 -326 512 -283 512 -233 c 2
 512 -128 l 1
 640 -128 l 1
 640 -233 l 2
384 0 m 1
 256 0 l 1
 256 1536 l 1
 384 1536 l 1
 384 607 l 1
 784 1024 l 1
 955 1024 l 1
 592 645 l 1
 1002 0 l 1
 846 0 l 1
 509 560 l 1
 384 435 l 1
 384 0 l 1
EndSplineSet
Layer: 2
Layer: 3
Layer: 4
EndChar
StartChar: lcaron
Encoding: 318 318 277
Width: 1024
VWidth: 0
Flags: W
HStem: -16 120<540.725 766.027> 1024 21G<768 896> 1388 20G<384 512 768 896>
VStem: 384 128<149.787 1408> 768 128<1024 1408>
LayerCount: 5
Back
Fore
SplineSet
768 -2 m 1
 725 -9 680 -16 630 -16 c 0
 558 -16 499 9 457 52 c 0
 384 128 384 218 384 279 c 0
 384 655 384 1032 384 1408 c 5
 512 1408 l 5
 512 279 l 2
 512 232 512 186 540 148 c 0
 560 121 591 104 640 104 c 0
 677 104 727 113 768 121 c 1
 768 -2 l 1
768 1408 m 5
 896 1408 l 5
 896 1024 l 5
 768 1024 l 5
 768 1408 l 5
EndSplineSet
Layer: 2
Layer: 3
Layer: 4
EndChar
StartChar: Ldot
Encoding: 319 319 283
Width: 1024
VWidth: 0
Flags: W
HStem: 0 120<384 1024> 720 224<613.032 794.968> 1388 20G<256 384>
VStem: 256 128<120 1408> 592 224<741.032 922.968>
LayerCount: 5
Back
Fore
SplineSet
256 0 m 1
 256 1408 l 1
 384 1408 l 1
 384 120 l 1
 1024 120 l 1
 1024 0 l 1
 256 0 l 1
704 944 m 0
 770 944 816 898 816 832 c 0
 816 766 770 720 704 720 c 0
 638 720 592 766 592 832 c 0
 592 898 638 944 704 944 c 0
EndSplineSet
Layer: 2
Layer: 3
Layer: 4
EndChar
StartChar: Lslash
Encoding: 321 321 285
Width: 1024
VWidth: 0
Flags: W
HStem: 0 120<512 1024> 1388 20G<384 512>
VStem: 384 128<120 522.854 765.145 1408>
LayerCount: 5
Back
SplineSet
0 384 m 5
 896 1024 l 1029
EndSplineSet
Fore
SplineSet
128 490.859375 m 5
 384 673.716796875 l 5
 384 1408 l 1
 512 1408 l 1
 512 765.14453125 l 5
 768 948.001953125 l 5
 768 797.140625 l 5
 512 614.283203125 l 5
 512 120 l 1
 1024 120 l 1
 1024 0 l 1
 384 0 l 1
 384 522.854492188 l 5
 128 339.997070312 l 5
 128 490.859375 l 5
EndSplineSet
Layer: 2
Layer: 3
Layer: 4
EndChar
StartChar: lslash
Encoding: 322 322 286
Width: 1024
VWidth: 0
Flags: W
HStem: 0 21G<383.962 512> 1388 20G<383 511>
VStem: 383 128<0 522.14 764.431 1408>
LayerCount: 5
Back
Fore
SplineSet
384 0 m 5
 383 522.140205383 l 1
 128 339.997070312 l 1
 128 490.859375 l 1
 383 673.002510071 l 1
 383 1408 l 1
 511 1408 l 1
 511 764.431221008 l 1
 512 765.145507812 l 1
 768 948.001953125 l 1
 768 797.140625 l 1
 512 614.283203125 l 1
 511 613.568916321 l 1
 512 0 l 5
 384 0 l 5
EndSplineSet
Layer: 2
Layer: 3
Layer: 4
EndChar
StartChar: Nacute
Encoding: 323 323 239
Width: 1024
VWidth: 0
Flags: W
HStem: 0 21G<128 256 883.647 1024>
VStem: 128 128<0 1020> 896 128<260 1280>
LayerCount: 5
Back
Fore
SplineSet
488 1408 m 1
 626 1408 l 1
 792 1664 l 1
 654 1664 l 1
 488 1408 l 1
256 0 m 1
 128 0 l 1
 128 1280 l 1
 255 1280 l 1
 886 260 l 1
 896 260 l 1
 896 1280 l 1
 1024 1280 l 1
 1024 0 l 1
 896 0 l 1
 266 1020 l 1
 256 1020 l 1
 256 0 l 1
EndSplineSet
Layer: 2
Layer: 3
Layer: 4
EndChar
StartChar: Ncaron
Encoding: 327 327 243
Width: 1024
VWidth: 0
Flags: W
HStem: 0 21G<128 256 883.647 1024>
VStem: 128 128<0 1020> 896 128<260 1280>
LayerCount: 5
Back
Fore
SplineSet
497 1408 m 5
 655 1408 l 5
 952 1664 l 5
 794 1664 l 5
 576 1500 l 5
 358 1664 l 5
 200 1664 l 5
 497 1408 l 5
256 0 m 5
 128 0 l 5
 128 1280 l 5
 255 1280 l 5
 886 260 l 5
 896 260 l 5
 896 1280 l 5
 1024 1280 l 5
 1024 0 l 5
 896 0 l 5
 266 1020 l 5
 256 1020 l 5
 256 0 l 5
EndSplineSet
Layer: 2
Layer: 3
Layer: 4
EndChar
StartChar: eng
Encoding: 331 331 247
Width: 1024
VWidth: 0
Flags: W
HStem: -528 120<514.225 739.489> 0 21G<256 384> 920 120<471.273 704.311> 1004 20G<256 384>
VStem: 256 128<0 857.984 912 1024> 768 128<-361.261 854.076>
LayerCount: 5
Back
Fore
SplineSet
596 1040 m 4xec
 696 1040 777 995 827 933 c 4
 896 847 896 751 896 657 c 4
 896 360 896 64 896 -233 c 4
 896 -293 896 -363 844 -433 c 4
 802 -490 730 -528 640 -528 c 4
 605 -528 559 -521 512 -511 c 5
 512 -388 l 5
 560 -399 606 -408 640 -408 c 4
 687 -408 719 -391 740 -363 c 4
 768 -326 768 -283 768 -233 c 4
 768 64 768 360 768 657 c 4
 768 744 768 806 723 858 c 4
 691 895 640 920 576 920 c 4xec
 512 920 461 895 429 858 c 4
 384 806 384 744 384 657 c 6
 384 0 l 5
 256 0 l 5
 256 1024 l 5
 384 1024 l 5xdc
 384 912 l 5
 394 912 l 5
 443 989 520 1040 596 1040 c 4xec
EndSplineSet
Layer: 2
Layer: 3
Layer: 4
EndChar
StartChar: Obreve
Encoding: 334 334 249
Width: 1024
VWidth: 0
Flags: W
HStem: -16 120<404.584 747.416> 1048 120<404.584 747.416> 1264 120<418.746 733.254>
VStem: 112 128<284.074 867.926> 236 128<1435.69 1536> 788 128<1435.69 1536> 912 128<284.074 867.926>
LayerCount: 5
Back
Fore
SplineSet
912 576 m 4xf2
 912 667 907 755 881 833 c 4
 839 961 740 1048 576 1048 c 4
 412 1048 313 961 271 833 c 4
 245 755 240 667 240 576 c 4
 240 485 245 397 271 319 c 4
 313 191 412 104 576 104 c 4
 740 104 839 191 881 319 c 4
 907 397 912 485 912 576 c 4xf2
576 -16 m 4
 354 -16 206 110 149 284 c 4
 117 381 112 482 112 576 c 4
 112 670 117 771 149 868 c 4
 206 1042 354 1168 576 1168 c 4
 798 1168 946 1042 1003 868 c 4
 1035 771 1040 670 1040 576 c 4
 1040 482 1035 381 1003 284 c 4
 946 110 798 -16 576 -16 c 4
788 1536 m 5xec
 916 1536 l 5
 916 1368 764 1264 576 1264 c 4
 388 1264 236 1368 236 1536 c 5
 364 1536 l 5
 364 1450 433 1384 576 1384 c 4
 719 1384 788 1450 788 1536 c 5xec
EndSplineSet
Layer: 2
Layer: 3
Layer: 4
EndChar
StartChar: obreve
Encoding: 335 335 250
Width: 1024
VWidth: 0
Flags: W
HStem: -16 120<446.155 705.845> 920 120<446.155 705.845> 1136 120<418.746 733.254> 1388 20G<236 364 788 916>
VStem: 224 128<209.24 814.76 1320.51 1408> 800 128<209.24 814.76 1320.51 1408>
LayerCount: 5
Back
Fore
SplineSet
576 1040 m 4
 736 1040 842 945 888 829 c 4
 926 734 928 633 928 512 c 4
 928 391 926 290 888 195 c 4
 842 79 736 -16 576 -16 c 4
 416 -16 310 79 264 195 c 4
 226 290 224 391 224 512 c 4
 224 633 226 734 264 829 c 4
 310 945 416 1040 576 1040 c 4
576 920 m 4
 480 920 416 868 384 789 c 4
 354 714 352 614 352 512 c 4
 352 410 354 310 384 235 c 4
 416 156 480 104 576 104 c 4
 672 104 736 156 768 235 c 4
 798 310 800 410 800 512 c 4
 800 614 798 714 768 789 c 4
 736 868 672 920 576 920 c 4
788 1408 m 5
 916 1408 l 5
 916 1240 764 1136 576 1136 c 4
 388 1136 236 1240 236 1408 c 5
 364 1408 l 5
 364 1322 433 1256 576 1256 c 4
 719 1256 788 1322 788 1408 c 5
EndSplineSet
Layer: 2
Layer: 3
Layer: 4
EndChar
StartChar: Racute
Encoding: 340 340 257
Width: 1024
VWidth: 0
Flags: W
HStem: 0 21G<128 256 793.584 937> 512 120<256 561> 1160 120<256 676.624>
VStem: 128 128<0 512 632 1160> 784 128<740.856 1052.75>
LayerCount: 5
Back
Fore
SplineSet
360 1408 m 1
 498 1408 l 1
 664 1664 l 1
 526 1664 l 1
 360 1408 l 1
449 632 m 2
 525 632 565 634 601 642 c 0
 709 666 784 762 784 896 c 0
 784 1030 709 1126 601 1150 c 0
 565 1158 525 1160 449 1160 c 2
 256 1160 l 1
 256 632 l 1
 449 632 l 2
256 0 m 1
 128 0 l 1
 128 1280 l 1
 449 1280 l 2
 526 1280 578 1280 633 1267 c 0
 792 1229 912 1092 912 896 c 0
 912 723 818 595 686 542 c 1
 937 0 l 1
 803 0 l 1
 561 514 l 1
 528 512 493 512 449 512 c 2
 256 512 l 1
 256 0 l 1
EndSplineSet
Layer: 2
Layer: 3
Layer: 4
EndChar
StartChar: Sacute
Encoding: 346 346 262
Width: 1024
VWidth: 0
Flags: W
HStem: -16 120<252.94 810.09> 1048 120<381.816 843.282>
VStem: 152 128<726.002 960.126> 912 128<192.804 425.422>
LayerCount: 5
Back
Fore
SplineSet
570 1048 m 0
 379 1048 280 952.08984375 280 844 c 0
 280 756.750976562 337.739257812 690.921875 412 659 c 0
 522.40625 611.540039062 660.002929688 636.9375 792 603 c 4
 920.272460938 570.01953125 1040 471.184570312 1040 311 c 0
 1040 137.954101562 897 -16 582 -16 c 0
 465.171875 -16 319.254882812 10.90625 192 39.2939453125 c 1
 192 162.702148438 l 1
 319.401367188 133.064453125 467.776367188 104 582 104 c 0
 814 104 912 187.881835938 912 311 c 0
 912 416.7265625 832.271484375 472.8984375 744 491 c 4
 613.259765625 517.810546875 486.643554688 490.942382812 348 555 c 0
 239.790039062 604.99609375 152 708.612304688 152 844 c 0
 152 999.319335938 288 1168 570 1168 c 0
 671.189453125 1168 810.776367188 1136.71386719 930 1104.71972656 c 1
 930 980.33203125 l 1
 810.129882812 1013.83398438 668.7109375 1048 570 1048 c 0
488 1280 m 5
 626 1280 l 5
 792 1536 l 5
 654 1536 l 5
 488 1280 l 5
EndSplineSet
Layer: 2
Layer: 3
Layer: 4
EndChar
StartChar: scedilla
Encoding: 351 351 268
Width: 1024
VWidth: 0
Flags: W
HStem: -400 120<386.225 611.489> -16 120<260.566 638.511> 920 120<413.623 843.839>
VStem: 234 128<687.599 867.607> 640 128<-233.261 -11> 800 128<181.755 441.813>
LayerCount: 5
Back
Fore
SplineSet
768 -105 m 6
 768 -165 768 -235 716 -305 c 4
 674 -362 602 -400 512 -400 c 4
 477 -400 431 -393 384 -383 c 5
 384 -260 l 5
 432 -271 478 -280 512 -280 c 4
 559 -280 591 -263 612 -235 c 4
 640 -198 640 -155 640 -105 c 6
 640 -11 l 5
 617 -14 593 -16 567 -16 c 4
 474 -16 355 7 256 26 c 5
 256 149 l 5
 351 129 480 104 567 104 c 4
 755 104 800 231 800 313 c 4
 800 397 757 458 700 488 c 4
 614 532 507 510 402 550 c 4
 318 582 234 661 234 776 c 4
 234 904 343 1040 572 1040 c 4
 679 1040 789 1012 886 989 c 5
 886 866 l 5
 788 889 665 920 572 920 c 4
 410 920 362 834 362 776 c 4
 362 719 404 679 450 662 c 4
 543 627 654 651 762 594 c 4
 855 545 928 445 928 313 c 4
 928 202 875 93 768 32 c 5
 768 -105 l 6
EndSplineSet
Layer: 2
Layer: 3
Layer: 4
EndChar
StartChar: Scaron
Encoding: 352 352 267
Width: 1024
VWidth: 0
Flags: W
HStem: -16 120<259.035 810.09> 1048 120<381.816 843.308>
VStem: 152 128<726.147 960.039> 912 128<192.84 425.453>
LayerCount: 5
Back
Fore
SplineSet
570 1048 m 0
 379 1048 280 952 280 844 c 0
 280 757 338 691 412 659 c 0
 522 612 660 637 792 603 c 4
 920 570 1040 471 1040 311 c 0
 1040 138 897 -16 582 -16 c 0
 465 -16 319 11 192 39 c 1
 192 163 l 1
 319 133 468 104 582 104 c 0
 814 104 912 188 912 311 c 0
 912 417 832 473 744 491 c 4
 613 518 487 491 348 555 c 0
 240 605 152 709 152 844 c 0
 152 999 288 1168 570 1168 c 0
 671 1168 811 1137 930 1105 c 1
 930 980 l 1
 810 1014 669 1048 570 1048 c 0
497 1280 m 1
 655 1280 l 1
 952 1536 l 1
 794 1536 l 1
 576 1372 l 1
 358 1536 l 1
 200 1536 l 1
 497 1280 l 1
EndSplineSet
Layer: 2
Layer: 3
Layer: 4
EndChar
StartChar: Tcaron
Encoding: 356 356 286
Width: 1024
VWidth: 0
Flags: W
HStem: 0 21G<512 640> 1032 120<128 512 640 1024>
VStem: 512 128<0 1032>
LayerCount: 5
Back
Fore
SplineSet
1024 1152 m 5
 1024 1032 l 5
 640 1032 l 5
 640 0 l 1
 512 0 l 1
 512 1032 l 5
 128 1032 l 5
 128 1152 l 5
 1024 1152 l 5
497 1280 m 1
 655 1280 l 1
 952 1536 l 1
 794 1536 l 1
 576 1372 l 1
 358 1536 l 1
 200 1536 l 1
 497 1280 l 1
EndSplineSet
Layer: 2
Layer: 3
Layer: 4
EndChar
StartChar: Ubreve
Encoding: 364 364 201
Width: 1024
VWidth: 0
Flags: W
HStem: -16 120<404.736 747.179> 1264 120<418.746 733.254>
VStem: 128 128<252.382 1152> 236 128<1435.69 1536> 788 128<1435.69 1536> 896 128<252.382 1152>
LayerCount: 5
Back
Fore
SplineSet
128 1152 m 5xe4
 256 1152 l 5
 256 512 l 2
 256 437 256 378 268 330 c 0
 301 196 416 104 576 104 c 0
 736 104 851 196 884 330 c 0
 896 378 896 437 896 512 c 2
 896 1152 l 5
 1024 1152 l 5
 1024 512 l 2
 1024 426 1024 371 1008 303 c 0
 964 118 797 -16 576 -16 c 0
 355 -16 187 118 144 303 c 0
 128 371 128 426 128 512 c 2
 128 1152 l 5xe4
788 1536 m 5xd8
 916 1536 l 5
 916 1368 764 1264 576 1264 c 4
 388 1264 236 1368 236 1536 c 5
 364 1536 l 5
 364 1450 433 1384 576 1384 c 4
 719 1384 788 1450 788 1536 c 5xd8
EndSplineSet
Layer: 2
Layer: 3
Layer: 4
EndChar
StartChar: ubreve
Encoding: 365 365 203
Width: 1024
VWidth: 0
Flags: W
HStem: -16 120<447.689 680.727> 0 21G<768 896> 1004 20G<256 384 768 896> 1136 120<418.7 733.3> 1388 20G<236 364 788 916>
VStem: 236 128<1307.55 1408> 256 128<169.924 1024> 768 128<0 112 166.016 1024> 788 128<1307.55 1408>
LayerCount: 5
Back
Fore
SplineSet
556 -16 m 0xbb
 456 -16 375 29 325 91 c 0
 256 177 256 273 256 367 c 2
 256 1024 l 1
 384 1024 l 1
 384 367 l 2
 384 280 384 218 429 166 c 0
 461 129 512 104 576 104 c 0xbb
 640 104 691 129 723 166 c 0
 768 218 768 280 768 367 c 2
 768 1024 l 1
 896 1024 l 1
 896 0 l 1
 768 0 l 1x7b
 768 112 l 1
 758 112 l 1
 709 35 632 -16 556 -16 c 0xbb
788 1408 m 5x3c80
 916 1408 l 5
 916 1239.94628906 764.259765625 1136 576 1136 c 4
 387.739257812 1136 236 1239.94433594 236 1408 c 5
 364 1408 l 5
 364 1321.65527344 433.061523438 1256 576 1256 c 4
 718.939453125 1256 788 1321.65332031 788 1408 c 5x3c80
EndSplineSet
Layer: 2
Layer: 3
Layer: 4
EndChar
StartChar: Uring
Encoding: 366 366 204
Width: 1024
VWidth: 0
Flags: W
HStem: -16 120<404.818 747.152> 1068 100<491.282 660.721> 1384 100<491.279 660.718>
VStem: 128 128<254.095 1152> 368 108<1181.5 1370.5> 676 108<1181.5 1370.5> 896 128<254.095 1152>
LayerCount: 5
Back
Fore
SplineSet
128 1152 m 5
 256 1152 l 5
 256 512 l 2
 256 437 256 378 268 330 c 0
 301.4140625 196.345703125 416 104 576 104 c 0
 736 104 850.5859375 196.345703125 884 330 c 0
 896 378 896 437 896 512 c 2
 896 1152 l 5
 1024 1152 l 5
 1024 512 l 2
 1024 426 1024.1328125 371.350585938 1008 303 c 0
 964.392578125 118.24609375 797 -16 576 -16 c 0
 355 -16 187.248046875 118.162109375 144 303 c 0
 128 371.381835938 128 426 128 512 c 2
 128 1152 l 5
576 1384 m 4
 518.13671875 1384 476 1350.05664062 476 1276 c 4
 476 1201.96484375 518.0625 1168 576 1168 c 4
 633.865234375 1168 676 1201.94140625 676 1276 c 4
 676 1350.03515625 633.9375 1384 576 1384 c 4
576 1484 m 4
 699.30078125 1484 784 1390.32519531 784 1276 c 4
 784 1161.69140625 699.358398438 1068 576 1068 c 4
 452.69921875 1068 368 1161.67382812 368 1276 c 4
 368 1390.30761719 452.640625 1484 576 1484 c 4
EndSplineSet
Layer: 2
Layer: 3
Layer: 4
EndChar
StartChar: uhungarumlaut
Encoding: 369 369 207
Width: 1024
VWidth: 0
Flags: W
HStem: -16 120<447.689 680.727> 0 20G<768 896> 1003 21G<256 384 768 896> 1152 256
VStem: 232 304 256 128<169.924 1024> 616 304 768 128<0 112 166.016 1024>
LayerCount: 5
Back
Fore
SplineSet
556 -16 m 0xb5
 456 -16 375 29 325 91 c 0
 256 177 256 273 256 367 c 2
 256 1024 l 1
 384 1024 l 1
 384 367 l 2
 384 280 384 218 429 166 c 0
 461 129 512 104 576 104 c 0xb5
 640 104 691 129 723 166 c 0
 768 218 768 280 768 367 c 2
 768 1024 l 1
 896 1024 l 1
 896 0 l 1
 768 0 l 1x75
 768 112 l 1
 758 112 l 1
 709 35 632 -16 556 -16 c 0xb5
616 1152 m 5x32
 754 1152 l 5
 920 1408 l 5
 782 1408 l 5
 616 1152 l 5x32
232 1152 m 5x38
 370 1152 l 5
 536 1408 l 5
 398 1408 l 5
 232 1152 l 5x38
EndSplineSet
Layer: 2
Layer: 3
Layer: 4
EndChar
StartChar: Wcircumflex
Encoding: 372 372 209
Width: 1024
VWidth: 0
Flags: W
HStem: 0 21G<257 388.019 763.981 895>
VStem: 116 131<687.413 1152> 905 131<687.413 1152>
LayerCount: 5
Back
Fore
SplineSet
514 768 m 5
 638 768 l 5
 812 190 l 5
 822 190 l 5
 887 480 905 824 905 1152 c 5
 1036 1152 l 5
 1036 766 988 382 895 2 c 5
 770 0 l 5
 581 628 l 5
 571 628 l 5
 382 0 l 5
 257 2 l 5
 164 382 116 766 116 1152 c 5
 247 1152 l 5
 247 824 266 480 330 190 c 5
 340 190 l 5
 514 768 l 5
497 1536 m 1
 655 1536 l 1
 952 1280 l 1
 794 1280 l 1
 576 1444 l 1
 358 1280 l 1
 200 1280 l 1
 497 1536 l 1
EndSplineSet
Layer: 2
Layer: 3
Layer: 4
EndChar
StartChar: Ydieresis
Encoding: 376 376 213
Width: 1024
VWidth: 0
Flags: W
HStem: 0 21G<512 640> 1328 224<261.032 442.968 709.032 890.968>
VStem: 113 125<1026.19 1152> 240 224<1349.03 1530.97> 512 128<0 549.96> 688 224<1349.03 1530.97> 914 125<1026.19 1152>
LayerCount: 5
Back
Fore
SplineSet
113 1152 m 5
 238 1152 l 5
 303 939 398 758 561 612 c 5
 591 612 l 5
 754 758 849 939 914 1152 c 5
 1039 1152 l 5
 978 923 868 714 640 512 c 5
 640 0 l 5
 512 0 l 5
 512 512 l 5
 284 714 174 923 113 1152 c 5
800 1552 m 4
 866 1552 912 1506 912 1440 c 4
 912 1374 866 1328 800 1328 c 4
 734 1328 688 1374 688 1440 c 4
 688 1506 734 1552 800 1552 c 4
352 1552 m 4
 418 1552 464 1506 464 1440 c 4
 464 1374 418 1328 352 1328 c 4
 286 1328 240 1374 240 1440 c 4
 240 1506 286 1552 352 1552 c 4
EndSplineSet
Layer: 2
Layer: 3
Layer: 4
EndChar
StartChar: Zdotaccent
Encoding: 379 379 218
Width: 1024
VWidth: 0
Flags: W
HStem: 0 120<293 1024> 1160 120<148 839> 1456 224<485.032 666.968>
VStem: 464 224<1477.03 1658.97>
LayerCount: 5
Back
Fore
SplineSet
576 1680 m 0
 642 1680 688 1634 688 1568 c 0
 688 1502 642 1456 576 1456 c 0
 510 1456 464 1502 464 1568 c 0
 464 1634 510 1680 576 1680 c 0
148 1160 m 1
 148 1280 l 1
 1004 1280 l 1
 1004 1190 l 1
 293 130 l 1
 293 120 l 1
 1024 120 l 1
 1024 0 l 1
 128 0 l 1
 128 92 l 1
 839 1150 l 1
 839 1160 l 1
 148 1160 l 1
EndSplineSet
Layer: 2
Layer: 3
Layer: 4
EndChar
StartChar: Zcaron
Encoding: 381 381 219
Width: 1024
VWidth: 0
Flags: W
HStem: 0 120<283 1024> 1032 120<148 848.92>
LayerCount: 5
Back
Fore
SplineSet
148 1032 m 1
 148 1152 l 1
 1004 1152 l 1
 1004 1062 l 1
 283.080078125 130 l 1
 283 120 l 1
 1024 120 l 1
 1024 0 l 1
 128 0 l 1
 128 92 l 1
 849 1022 l 5
 848.919921875 1032 l 5
 148 1032 l 1
497 1280 m 1
 655 1280 l 1
 952 1536 l 1
 794 1536 l 1
 576 1372.03710938 l 1
 358 1536 l 1
 200 1536 l 1
 497 1280 l 1
EndSplineSet
Layer: 2
Layer: 3
Layer: 4
EndChar
StartChar: uni01EB
Encoding: 491 491 437
Width: 1152
VWidth: 0
Flags: W
HStem: -403 120<460.912 703.146> -16 120<447.935 576> 920 120<446.155 705.845>
VStem: 224 128<209.24 814.76> 321 128<-265.716 -118.078> 800 128<209.24 814.76>
LayerCount: 5
Back
Fore
SplineSet
576 -283 m 4xec
 622 -283 666 -273 705 -263 c 5
 705 -386 l 5
 665 -394 622 -403 576 -403 c 4
 462 -403 321 -328 321 -208 c 4xec
 321 -70 515 -75 576 -16 c 5
 416 -16 310 79 264 195 c 4
 226 290 224 391 224 512 c 4xf4
 224 633 226 734 264 829 c 4
 310 945 416 1040 576 1040 c 4
 736 1040 842 945 888 829 c 4
 926 734 928 633 928 512 c 4
 928 391 926 290 888 195 c 4
 858 120 803 54 725 16 c 4
 620 -35 449 -97 449 -201 c 4
 449 -261 519 -283 576 -283 c 4xec
576 920 m 4
 480 920 416 868 384 789 c 4
 354 714 352 614 352 512 c 4xf4
 352 410 354 310 384 235 c 4
 416 156 480 104 576 104 c 4
 672 104 736 156 768 235 c 4
 798 310 800 410 800 512 c 4
 800 614 798 714 768 789 c 4
 736 868 672 920 576 920 c 4
EndSplineSet
Layer: 2
Layer: 3
Layer: 4
EndChar
StartChar: uni0200
Encoding: 512 512 444
Width: 1152
VWidth: 0
Flags: W
HStem: 0 21G<103 243.014 908.986 1049> 388 120<304.014 847.986> 1161 119<547.907 604.093> 1408 21G<385.031 536 641.031 792>
LayerCount: 5
Back
Fore
SplineSet
103 0 m 5
 146.618164062 451.25 239.294921875 882.5 516 1280 c 5
 636 1280 l 5
 912.705078125 882.5 1005.38085938 451.25 1049 0 c 5
 914 0 l 5
 903.971679688 135.987304688 891.067382812 265.390625 873.6796875 388 c 5
 278.3203125 388 l 5
 260.932617188 265.390625 248.028320312 135.987304688 238 0 c 5
 103 0 l 5
847.986328125 508 m 5
 790.479492188 751.920898438 706.771484375 970.0703125 581 1161 c 5
 571 1161 l 5
 445.228515625 970.0703125 361.520507812 751.920898438 304.013671875 508 c 5
 847.986328125 508 l 5
536 1408 m 5
 398 1408 l 5
 232 1664 l 5
 370 1664 l 5
 536 1408 l 5
792 1408 m 5
 654 1408 l 5
 488 1664 l 5
 626 1664 l 5
 792 1408 l 5
EndSplineSet
Layer: 2
Layer: 3
Layer: 4
EndChar
StartChar: uni0202
Encoding: 514 514 446
Width: 1152
VWidth: 0
Flags: W
HStem: 0 21G<103 243.014 908.986 1049> 388 120<304.014 847.986> 1161 119<547.907 604.093> 1408 21G<236 364 788 916> 1560 120<418.7 733.3>
VStem: 236 128<1408 1508.45> 788 128<1408 1508.45>
LayerCount: 5
Back
Fore
SplineSet
103 0 m 5
 146.618164062 451.25 239.294921875 882.5 516 1280 c 5
 636 1280 l 5
 912.705078125 882.5 1005.38085938 451.25 1049 0 c 5
 914 0 l 5
 903.971679688 135.987304688 891.067382812 265.390625 873.6796875 388 c 5
 278.3203125 388 l 5
 260.932617188 265.390625 248.028320312 135.987304688 238 0 c 5
 103 0 l 5
847.986328125 508 m 5
 790.479492188 751.920898438 706.771484375 970.0703125 581 1161 c 5
 571 1161 l 5
 445.228515625 970.0703125 361.520507812 751.920898438 304.013671875 508 c 5
 847.986328125 508 l 5
788 1408 m 5
 788 1494.34667969 718.939453125 1560 576 1560 c 4
 433.061523438 1560 364 1494.34472656 364 1408 c 5
 236 1408 l 5
 236 1576.05566406 387.739257812 1680 576 1680 c 4
 764.259765625 1680 916 1576.05371094 916 1408 c 5
 788 1408 l 5
EndSplineSet
Layer: 2
Layer: 3
Layer: 4
EndChar
StartChar: uni0204
Encoding: 516 516 448
Width: 1152
VWidth: 0
Flags: W
HStem: 0 120<384 1024> 644 120<384 896> 1160 120<384 1024> 1408 21G<385.031 536 641.031 792>
VStem: 256 128<120 644 764 1160>
LayerCount: 5
Back
Fore
SplineSet
256 1280 m 1
 1024 1280 l 1
 1024 1160 l 1
 384 1160 l 1
 384 764 l 1
 896 764 l 1
 896 644 l 1
 384 644 l 1
 384 120 l 1
 1024 120 l 1
 1024 0 l 1
 256 0 l 1
 256 1280 l 1
536 1408 m 5
 398 1408 l 5
 232 1664 l 5
 370 1664 l 5
 536 1408 l 5
792 1408 m 5
 654 1408 l 5
 488 1664 l 5
 626 1664 l 5
 792 1408 l 5
EndSplineSet
Layer: 2
Layer: 3
Layer: 4
EndChar
StartChar: uni0205
Encoding: 517 517 449
Width: 1024
VWidth: 0
Flags: W
HStem: -16 120<450.346 890.029> 512 120<354.639 797.458> 920 120<445.97 705.959> 1388 20G<232 382.969 616 766.969>
VStem: 224 128<210.576 512 632 813.956>
LayerCount: 5
Back
Fore
SplineSet
352 512 m 1
 352 410.497070312 352 308 384 235 c 0
 420 152 485 104 586 104 c 0
 662.2421875 104 767.84765625 120.916992188 896 148 c 1
 896 25 l 1
 768.595703125 -1.4013671875 668.55859375 -16 586 -16 c 0
 417.376953125 -16 311 78 264 193 c 0
 226 286 224 390.729492188 224 512 c 0
 224 632.510742188 225.643554688 734.44140625 263.647460938 829.205078125 c 0
 309.981445312 944.740234375 415.514648438 1040 576 1040 c 0
 736.485351562 1040 842.021484375 944.7421875 888.352539062 829.205078125 c 0
 926.353515625 734.440429688 928 632.510742188 928 512 c 1
 352 512 l 1
797.458007812 632 m 1
 794.057617188 690.013671875 786.173828125 744.1328125 768 789 c 0
 736 868 672 920 576 920 c 0
 480 920 415.655273438 868.138671875 384 789 c 0
 366.025390625 744.063476562 358.102539062 689.974609375 354.638671875 632 c 1
 797.458007812 632 l 1
536 1152 m 5
 398 1152 l 5
 232 1408 l 5
 370 1408 l 5
 536 1152 l 5
920 1152 m 5
 782 1152 l 5
 616 1408 l 5
 754 1408 l 5
 920 1152 l 5
EndSplineSet
Layer: 2
Layer: 3
Layer: 4
EndChar
StartChar: uni0206
Encoding: 518 518 450
Width: 1152
VWidth: 0
Flags: W
HStem: 0 120<384 1024> 644 120<384 896> 1160 120<384 1024> 1408 21G<236 364 788 916> 1560 120<418.7 733.3>
VStem: 236 128<1408 1508.45> 256 128<120 644 764 1160> 788 128<1408 1508.45>
LayerCount: 5
Back
Fore
SplineSet
256 1280 m 1xfb
 1024 1280 l 1
 1024 1160 l 1
 384 1160 l 1
 384 764 l 1
 896 764 l 1
 896 644 l 1
 384 644 l 1
 384 120 l 1
 1024 120 l 1
 1024 0 l 1
 256 0 l 1
 256 1280 l 1xfb
788 1408 m 5
 788 1494.34667969 718.939453125 1560 576 1560 c 4
 433.061523438 1560 364 1494.34472656 364 1408 c 5
 236 1408 l 5xfd
 236 1576.05566406 387.739257812 1680 576 1680 c 4
 764.259765625 1680 916 1576.05371094 916 1408 c 5
 788 1408 l 5
EndSplineSet
Layer: 2
Layer: 3
Layer: 4
EndChar
StartChar: uni0208
Encoding: 520 520 452
Width: 1152
VWidth: 0
Flags: W
HStem: 0 120<256 512 640 896> 1160 120<256 512 640 896> 1408 21G<385.031 536 641.031 792>
VStem: 512 128<120 1160>
LayerCount: 5
Back
Fore
SplineSet
896 1280 m 1
 896 1160 l 1
 640 1160 l 1
 640 120 l 1
 896 120 l 1
 896 0 l 1
 256 0 l 1
 256 120 l 1
 512 120 l 1
 512 1160 l 1
 256 1160 l 1
 256 1280 l 1
 896 1280 l 1
536 1408 m 5
 398 1408 l 5
 232 1664 l 5
 370 1664 l 5
 536 1408 l 5
792 1408 m 5
 654 1408 l 5
 488 1664 l 5
 626 1664 l 5
 792 1408 l 5
EndSplineSet
Layer: 2
Layer: 3
Layer: 4
EndChar
StartChar: uni020A
Encoding: 522 522 454
Width: 1152
VWidth: 0
Flags: W
HStem: 0 120<256 512 640 896> 1160 120<256 512 640 896> 1408 21G<236 364 788 916> 1560 120<418.7 733.3>
VStem: 236 128<1408 1508.45> 512 128<120 1160> 788 128<1408 1508.45>
LayerCount: 5
Back
Fore
SplineSet
896 1280 m 1
 896 1160 l 1
 640 1160 l 1
 640 120 l 1
 896 120 l 1
 896 0 l 1
 256 0 l 1
 256 120 l 1
 512 120 l 1
 512 1160 l 1
 256 1160 l 1
 256 1280 l 1
 896 1280 l 1
788 1408 m 5
 788 1494.34667969 718.939453125 1560 576 1560 c 4
 433.061523438 1560 364 1494.34472656 364 1408 c 5
 236 1408 l 5
 236 1576.05566406 387.739257812 1680 576 1680 c 4
 764.259765625 1680 916 1576.05371094 916 1408 c 5
 788 1408 l 5
EndSplineSet
Layer: 2
Layer: 3
Layer: 4
EndChar
StartChar: uni020C
Encoding: 524 524 456
Width: 1152
VWidth: 0
Flags: W
HStem: -16 120<408.149 743.851> 1176 120<408.149 743.851> 1408 21G<385.031 536 641.031 792>
VStem: 112 128<298.492 981.508> 912 128<298.492 981.508>
LayerCount: 5
Back
Fore
SplineSet
240 640 m 0
 240 537.3515625 242 438 266 348 c 0
 304 206 406 104 576 104 c 0
 746 104 848 206 886 348 c 0
 910 438 912 537.3515625 912 640 c 0
 912 742.6484375 910 842 886 932 c 0
 848 1074 746 1176 576 1176 c 0
 406 1176 304 1074 266 932 c 0
 242 842 240 742.6484375 240 640 c 0
112 640 m 0
 112 743.677734375 113 853 142 962 c 0
 193 1153 344 1296 576 1296 c 0
 808 1296 959 1153 1010 962 c 0
 1039 853 1040 743.677734375 1040 640 c 0
 1040 536.322265625 1039 427 1010 318 c 0
 959 127 808 -16 576 -16 c 0
 344 -16 193 127 142 318 c 0
 113 427 112 536.322265625 112 640 c 0
536 1408 m 5
 398 1408 l 5
 232 1664 l 5
 370 1664 l 5
 536 1408 l 5
792 1408 m 5
 654 1408 l 5
 488 1664 l 5
 626 1664 l 5
 792 1408 l 5
EndSplineSet
Layer: 2
Layer: 3
Layer: 4
EndChar
StartChar: uni020D
Encoding: 525 525 457
Width: 1024
VWidth: 0
Flags: W
HStem: -16 120<446.042 705.958> 920 120<446.042 705.958> 1388 20G<232 382.969 488 638.969>
VStem: 224 128<209.125 814.875> 800 128<209.125 814.875>
LayerCount: 5
Back
Fore
SplineSet
576 1040 m 4
 736.485351562 1040 842.018554688 944.740234375 888.352539062 829.205078125 c 4
 926.353515625 734.440429688 928 632.510742188 928 512 c 4
 928 391.489257812 926.353515625 289.559570312 888.352539062 194.794921875 c 4
 842.018554688 79.259765625 736.485351562 -16 576 -16 c 4
 415.514648438 -16 309.981445312 79.259765625 263.647460938 194.794921875 c 4
 225.646484375 289.559570312 224 391.489257812 224 512 c 4
 224 632.510742188 225.646484375 734.440429688 263.647460938 829.205078125 c 4
 309.981445312 944.740234375 415.514648438 1040 576 1040 c 4
  Spiro
    576 1040 o
    717.887 1011.08 o
    822.528 935.111 o
    888.353 829.205 o
    915.503 731.73 o
    926.171 626.63 o
    928 512 o
    926.171 397.37 o
    915.503 292.27 o
    888.353 194.795 o
    822.528 88.8891 o
    717.887 12.9209 o
    576 -16 o
    434.113 12.9209 o
    329.472 88.8891 o
    263.647 194.795 o
    236.497 292.27 o
    225.829 397.37 o
    224 512 o
    225.829 626.63 o
    236.497 731.73 o
    263.647 829.205 o
    329.472 935.111 o
    434.113 1011.08 o
    0 0 z
  EndSpiro
576 920 m 4
 480 920 416 868 384 789 c 4
 354 714 352 613.502929688 352 512 c 4
 352 410.497070312 354 310 384 235 c 4
 416 156 480 104 576 104 c 4
 672 104 736 156 768 235 c 4
 798 310 800 410.497070312 800 512 c 4
 800 613.502929688 798 714 768 789 c 4
 736 868 672 920 576 920 c 4
  Spiro
    576 920 o
    490.741 903.624 o
    426.613 858.016 o
    384 789 o
    362.385 706.497 o
    353.625 612.162 o
    352 512 o
    353.625 411.838 o
    362.385 317.503 o
    384 235 o
    426.613 165.984 o
    490.741 120.376 o
    576 104 o
    661.259 120.376 o
    725.387 165.984 o
    768 235 o
    789.615 317.503 o
    798.375 411.838 o
    800 512 o
    798.375 612.163 o
    789.615 706.497 o
    768 789 o
    725.387 858.016 o
    661.259 903.624 o
    0 0 z
  EndSpiro
536 1152 m 5
 398 1152 l 5
 232 1408 l 5
 370 1408 l 5
 536 1152 l 5
792 1152 m 5
 654 1152 l 5
 488 1408 l 5
 626 1408 l 5
 792 1152 l 5
EndSplineSet
Layer: 2
Layer: 3
Layer: 4
EndChar
StartChar: uni020E
Encoding: 526 526 458
Width: 1152
VWidth: 0
Flags: W
HStem: -16 120<408.149 743.851> 1176 120<408.149 743.851> 1408 21G<236 364 788 916> 1560 120<418.7 733.3>
VStem: 112 128<298.492 981.508> 236 128<1408 1508.45> 788 128<1408 1508.45> 912 128<298.492 981.508>
LayerCount: 5
Back
Fore
SplineSet
240 640 m 0xf9
 240 537.3515625 242 438 266 348 c 0
 304 206 406 104 576 104 c 0
 746 104 848 206 886 348 c 0
 910 438 912 537.3515625 912 640 c 0
 912 742.6484375 910 842 886 932 c 0
 848 1074 746 1176 576 1176 c 0
 406 1176 304 1074 266 932 c 0
 242 842 240 742.6484375 240 640 c 0xf9
112 640 m 0
 112 743.677734375 113 853 142 962 c 0
 193 1153 344 1296 576 1296 c 0
 808 1296 959 1153 1010 962 c 0
 1039 853 1040 743.677734375 1040 640 c 0
 1040 536.322265625 1039 427 1010 318 c 0
 959 127 808 -16 576 -16 c 0
 344 -16 193 127 142 318 c 0
 113 427 112 536.322265625 112 640 c 0
788 1408 m 5xf6
 788 1494.34667969 718.939453125 1560 576 1560 c 4
 433.061523438 1560 364 1494.34472656 364 1408 c 5
 236 1408 l 5
 236 1576.05566406 387.739257812 1680 576 1680 c 4
 764.259765625 1680 916 1576.05371094 916 1408 c 5
 788 1408 l 5xf6
EndSplineSet
Layer: 2
Layer: 3
Layer: 4
EndChar
StartChar: uni0210
Encoding: 528 528 460
Width: 1152
VWidth: 0
Flags: W
HStem: 0 21G<128 256 793.584 937> 512 120<256 561> 1160 120<256 676.624> 1408 21G<257.031 408 513.031 664>
VStem: 128 128<0 512 632 1160> 784 128<740.856 1052.75>
LayerCount: 5
Back
Fore
SplineSet
256 0 m 1
 128 0 l 1
 128 1280 l 1
 449 1280 l 2
 526 1280 578 1280 633 1267 c 0
 792 1229 912 1092 912 896 c 0
 912 723 818 595 686 542 c 1
 937 0 l 1
 803 0 l 1
 561 514 l 1
 528 512 493 512 449 512 c 2
 256 512 l 1
 256 0 l 1
449 632 m 2
 525 632 565 634 601 642 c 0
 709 666 784 762 784 896 c 0
 784 1030 709 1126 601 1150 c 0
 565 1158 525 1160 449 1160 c 2
 256 1160 l 1
 256 632 l 1
 449 632 l 2
408 1408 m 5
 270 1408 l 5
 104 1664 l 5
 242 1664 l 5
 408 1408 l 5
664 1408 m 5
 526 1408 l 5
 360 1664 l 5
 498 1664 l 5
 664 1408 l 5
EndSplineSet
Layer: 2
Layer: 3
Layer: 4
EndChar
StartChar: uni0211
Encoding: 529 529 461
Width: 1152
VWidth: 0
Flags: W
HStem: 0 21G<256 384> 920 120<504.976 892.252> 1004 20G<256 384> 1388 20G<232 382.969 488 638.969>
VStem: 256 128<0 782.495 876 1024>
LayerCount: 5
Back
Fore
SplineSet
256 1024 m 1xb8
 384 1024 l 1xb8
 384 876 l 1
 394 876 l 1
 460 982 537 1040 665 1040 c 0
 737.095703125 1040 818.080078125 1033.97949219 896 1025.94726562 c 1
 896 902.916015625 l 1
 814.1015625 912.82421875 729.64453125 920 665 920 c 0xd8
 589 920 535.232421875 902.721679688 491 866 c 0
 385 778 384 612 384 535 c 2
 384 0 l 1
 256 0 l 1
 256 1024 l 1xb8
536 1152 m 5
 398 1152 l 5
 232 1408 l 5
 370 1408 l 5
 536 1152 l 5
792 1152 m 5
 654 1152 l 5
 488 1408 l 5
 626 1408 l 5
 792 1152 l 5
EndSplineSet
Layer: 2
Layer: 3
Layer: 4
EndChar
StartChar: uni0212
Encoding: 530 530 462
Width: 1152
VWidth: 0
Flags: W
HStem: 0 21G<128 256 793.584 937> 512 120<256 561> 1160 120<256 676.624> 1408 21G<108 236 660 788> 1560 120<290.7 605.3>
VStem: 108 128<1408 1508.45> 128 128<0 512 632 1160> 660 128<1408 1508.45> 784 128<740.856 1052.75>
LayerCount: 5
Back
Fore
SplineSet
256 0 m 1xfa80
 128 0 l 1
 128 1280 l 1
 449 1280 l 2
 526 1280 578 1280 633 1267 c 0
 792 1229 912 1092 912 896 c 0
 912 723 818 595 686 542 c 1
 937 0 l 1
 803 0 l 1
 561 514 l 1
 528 512 493 512 449 512 c 2
 256 512 l 1
 256 0 l 1xfa80
449 632 m 2
 525 632 565 634 601 642 c 0
 709 666 784 762 784 896 c 0
 784 1030 709 1126 601 1150 c 0
 565 1158 525 1160 449 1160 c 2
 256 1160 l 1
 256 632 l 1
 449 632 l 2
660 1408 m 5xfd
 660 1494.34667969 590.939453125 1560 448 1560 c 4
 305.061523438 1560 236 1494.34472656 236 1408 c 5
 108 1408 l 5
 108 1576.05566406 259.739257812 1680 448 1680 c 4
 636.259765625 1680 788 1576.05371094 788 1408 c 5
 660 1408 l 5xfd
EndSplineSet
Layer: 2
Layer: 3
Layer: 4
EndChar
StartChar: uni0214
Encoding: 532 532 464
Width: 1152
VWidth: 0
Flags: W
HStem: -16 120<404.818 747.152> 1260 20G<128 256 896 1024> 1408 21G<385.031 536 641.031 792>
VStem: 128 128<254.095 1280> 896 128<254.095 1280>
LayerCount: 5
Back
Fore
SplineSet
128 1280 m 1
 256 1280 l 1
 256 512 l 2
 256 437 256 378 268 330 c 0
 301.4140625 196.345703125 416 104 576 104 c 0
 736 104 850.5859375 196.345703125 884 330 c 0
 896 378 896 437 896 512 c 2
 896 1280 l 1
 1024 1280 l 1
 1024 512 l 2
 1024 426 1024.1328125 371.350585938 1008 303 c 0
 964.392578125 118.24609375 797 -16 576 -16 c 0
 355 -16 187.248046875 118.162109375 144 303 c 0
 128 371.381835938 128 426 128 512 c 2
 128 1280 l 1
536 1408 m 5
 398 1408 l 5
 232 1664 l 5
 370 1664 l 5
 536 1408 l 5
792 1408 m 5
 654 1408 l 5
 488 1664 l 5
 626 1664 l 5
 792 1408 l 5
EndSplineSet
Layer: 2
Layer: 3
Layer: 4
EndChar
StartChar: uni0215
Encoding: 533 533 465
Width: 1152
VWidth: 0
Flags: W
HStem: -16 120<447.689 680.727> 0 21G<768 896> 1004 20G<256 384 768 896> 1388 20G<232 382.969 488 638.969>
VStem: 256 128<169.924 1024> 768 128<0 112 166.016 1024>
LayerCount: 5
Back
Fore
SplineSet
556 -16 m 0xbc
 456 -16 375 29 325 91 c 0
 256 177 256 273 256 367 c 2
 256 1024 l 1
 384 1024 l 1
 384 367 l 2
 384 280 384 218 429 166 c 0
 461 129 512 104 576 104 c 0xbc
 640 104 691 129 723 166 c 0
 768 218 768 280 768 367 c 2
 768 1024 l 1
 896 1024 l 1
 896 0 l 1
 768 0 l 1x7c
 768 112 l 1
 758 112 l 1
 709 35 632 -16 556 -16 c 0xbc
536 1152 m 5
 398 1152 l 5
 232 1408 l 5
 370 1408 l 5
 536 1152 l 5
792 1152 m 5
 654 1152 l 5
 488 1408 l 5
 626 1408 l 5
 792 1152 l 5
EndSplineSet
Layer: 2
Layer: 3
Layer: 4
EndChar
StartChar: uni0216
Encoding: 534 534 466
Width: 1024
VWidth: 0
Flags: W
HStem: -16 120<404.818 747.152> 1432 120<418.7 733.3>
VStem: 128 128<254.095 1152> 236 128<1280 1380.45> 788 128<1280 1380.45> 896 128<254.095 1152>
LayerCount: 5
Back
Fore
SplineSet
128 1152 m 5xe4
 256 1152 l 5
 256 512 l 2
 256 437 256 378 268 330 c 0
 301.4140625 196.345703125 416 104 576 104 c 0
 736 104 850.5859375 196.345703125 884 330 c 0
 896 378 896 437 896 512 c 2
 896 1152 l 5
 1024 1152 l 5
 1024 512 l 2
 1024 426 1024.1328125 371.350585938 1008 303 c 0
 964.392578125 118.24609375 797 -16 576 -16 c 0
 355 -16 187.248046875 118.162109375 144 303 c 0
 128 371.381835938 128 426 128 512 c 2
 128 1152 l 5xe4
788 1280 m 5xd8
 788 1366.34667969 718.939453125 1432 576 1432 c 4
 433.061523438 1432 364 1366.34472656 364 1280 c 5
 236 1280 l 5
 236 1448.05566406 387.739257812 1552 576 1552 c 4
 764.259765625 1552 916 1448.05371094 916 1280 c 5
 788 1280 l 5xd8
EndSplineSet
Layer: 2
Layer: 3
Layer: 4
EndChar
StartChar: uni0217
Encoding: 535 535 467
Width: 1024
VWidth: 0
Flags: W
HStem: -16 120<447.689 680.727> 0 21G<768 896> 1004 20G<256 384 768 896> 1304 120<418.7 733.3>
VStem: 236 128<1152 1252.45> 256 128<169.924 1024> 768 128<0 112 166.016 1024> 788 128<1152 1252.45>
LayerCount: 5
Back
Fore
SplineSet
556 -16 m 0xb6
 456 -16 375 29 325 91 c 0
 256 177 256 273 256 367 c 2
 256 1024 l 1
 384 1024 l 1
 384 367 l 2
 384 280 384 218 429 166 c 0
 461 129 512 104 576 104 c 0xb6
 640 104 691 129 723 166 c 0
 768 218 768 280 768 367 c 2
 768 1024 l 1
 896 1024 l 1
 896 0 l 1
 768 0 l 1x76
 768 112 l 1
 758 112 l 1
 709 35 632 -16 556 -16 c 0xb6
788 1152 m 5x39
 788 1238.34667969 718.939453125 1304 576 1304 c 4
 433.061523438 1304 364 1238.34472656 364 1152 c 5
 236 1152 l 5
 236 1320.05566406 387.739257812 1424 576 1424 c 4
 764.259765625 1424 916 1320.05371094 916 1152 c 5
 788 1152 l 5x39
EndSplineSet
Layer: 2
Layer: 3
Layer: 4
EndChar
StartChar: uni0219
Encoding: 537 537 469
Width: 1152
VWidth: 0
Flags: W
HStem: -528 120<512 611.002> -16 120<260.566 720.345> 920 120<413.623 843.839>
VStem: 234 128<687.599 867.607> 640 128<-361.261 -128> 800 128<183.035 441.813>
LayerCount: 5
Back
Fore
SplineSet
567 -16 m 0
 474 -16 355 7 256 26 c 1
 256 149 l 1
 351 129 480 104 567 104 c 0
 755 104 800 231 800 313 c 0
 800 397 757 458 700 488 c 0
 614 532 507 510 402 550 c 0
 318 582 234 661 234 776 c 0
 234 904 343 1040 572 1040 c 0
 679 1040 789 1012 886 989 c 1
 886 866 l 1
 788 889 665 920 572 920 c 0
 410 920 362 834 362 776 c 0
 362 719 404 679 450 662 c 0
 543 627 654 651 762 594 c 0
 855 545 928 445 928 313 c 0
 928 147 810 -16 567 -16 c 0
768 -233 m 6
 768 -293 767.727539062 -362.798828125 716 -433 c 4
 674 -490 602.005859375 -528 512 -528 c 4
 512 -408 l 4
 559 -408 590.879882812 -390.909179688 612 -363 c 4
 640 -326 640 -283 640 -233 c 6
 640 -128 l 5
 768 -128 l 5
 768 -233 l 6
EndSplineSet
Layer: 2
Layer: 3
Layer: 4
EndChar
StartChar: uni0237
Encoding: 567 567 293
Width: 1024
VWidth: 0
Flags: W
HStem: -400 120<258.703 579.284> 904 120<384 640>
VStem: 640 128<-219.771 904>
LayerCount: 5
Back
Fore
SplineSet
256 -237 m 5
 311 -259 380 -280 448 -280 c 4
 515 -280 565 -256 597 -218 c 4
 640 -166 640 -102 640 -14 c 6
 640 904 l 1
 384 904 l 1
 384 1024 l 1
 768 1024 l 1
 768 -24 l 6
 768 -115 768 -210 700 -292 c 4
 648 -355 564 -400 458 -400 c 4
 383 -400 316 -385 256 -365 c 5
 256 -237 l 5
EndSplineSet
Layer: 2
Layer: 3
Layer: 4
EndChar
StartChar: uni0259
Encoding: 601 601 440
Width: 1024
VWidth: 0
Flags: WO
HStem: -16 120<446.155 705.845> 392 120<355 797> 920 120<261.959 701.737>
VStem: 797 131<203.924 392 512 817.842>
LayerCount: 5
Back
Fore
SplineSet
355 392 m 5
 358 334 366 280 384 235 c 4
 416 156 480 104 576 104 c 4
 672 104 736 156 768 235 c 4
 786 280 794 334 797 392 c 5
 355 392 l 5
800 512 m 5
 800 614 800 716 768 789 c 4
 732 872 667 920 566 920 c 4
 490 920 384 903 256 876 c 5
 256 999 l 5
 383 1025 483 1040 566 1040 c 4
 735 1040 841 946 888 831 c 4
 926 738 928 633 928 512 c 4
 928 391 926 290 888 195 c 4
 842 79 736 -16 576 -16 c 4
 416 -16 310 79 264 195 c 4
 226 290 224 391 224 512 c 5
 800 512 l 5
EndSplineSet
Layer: 2
Layer: 3
Layer: 4
EndChar
StartChar: gravecomb
Encoding: 768 768 294
Width: 1024
VWidth: 0
Flags: W
HStem: 1280 256
VStem: 360 304
LayerCount: 5
Back
Fore
SplineSet
664 1280 m 5
 526 1280 l 5
 360 1536 l 5
 498 1536 l 5
 664 1280 l 5
EndSplineSet
Layer: 2
Layer: 3
Layer: 4
EndChar
StartChar: uni0304
Encoding: 772 772 298
Width: 1024
VWidth: 0
Flags: W
HStem: 1284 120<256 896>
VStem: 256 640<1284 1404>
LayerCount: 5
Back
Fore
SplineSet
256 1404 m 5
 896 1404 l 5
 896 1284 l 5
 256 1284 l 5
 256 1404 l 5
EndSplineSet
Layer: 2
Layer: 3
Layer: 4
EndChar
StartChar: uni0306
Encoding: 774 774 298
Width: 1024
VWidth: 0
Flags: W
HStem: 1264 120<418.746 733.254>
VStem: 236 128<1435.69 1536> 788 128<1435.69 1536>
LayerCount: 5
Back
Fore
SplineSet
788 1536 m 5
 916 1536 l 5
 916 1368 764 1264 576 1264 c 4
 388 1264 236 1368 236 1536 c 5
 364 1536 l 5
 364 1450 433 1384 576 1384 c 4
 719 1384 788 1450 788 1536 c 5
EndSplineSet
Layer: 2
Layer: 3
Layer: 4
EndChar
StartChar: uni030B
Encoding: 779 779 303
Width: 1024
VWidth: 0
Flags: W
HStem: 1280 256
LayerCount: 5
Back
Fore
SplineSet
360 1280 m 5
 498 1280 l 5
 664 1536 l 5
 526 1536 l 5
 360 1280 l 5
616 1280 m 5
 754 1280 l 5
 920 1536 l 5
 782 1536 l 5
 616 1280 l 5
EndSplineSet
Layer: 2
Layer: 3
Layer: 4
EndChar
StartChar: Gamma
Encoding: 915 915 468
Width: 1024
VWidth: 0
Flags: W
HStem: 0 21G<256 384> 1288 120<384 1024>
VStem: 256 128<0 1288>
LayerCount: 5
Back
Fore
SplineSet
256 1408 m 5
 1024 1408 l 5
 1024 1288 l 5
 384 1288 l 5
 384 0 l 5
 256 0 l 5
 256 1408 l 5
EndSplineSet
Layer: 2
Layer: 3
Layer: 4
EndChar
StartChar: uni0403
Encoding: 1027 1027 412
Width: 1024
VWidth: 0
Flags: W
HStem: 0 21G<256 384> 1160 120<384 1024>
VStem: 256 128<0 1160>
LayerCount: 5
Back
Fore
SplineSet
488 1408 m 5
 626 1408 l 5
 792 1664 l 5
 654 1664 l 5
 488 1408 l 5
256 1280 m 1
 1024 1280 l 1
 1024 1160 l 1
 384 1160 l 1
 384 0 l 1
 256 0 l 1
 256 1280 l 1
EndSplineSet
Layer: 2
Layer: 3
Layer: 4
EndChar
StartChar: uni0404
Encoding: 1028 1028 390
Width: 1024
VWidth: 0
Flags: W
HStem: -16 120<380.385 798.39> 648 120<240 768> 1304 120<380.261 799.818>
VStem: 112 128<293.316 648 768 1114.68>
LayerCount: 5
Back
Fore
SplineSet
896 173 m 5
 896 49 l 5
 779 19 649 -16 515 -16 c 4
 302 -16 171 141 133 364 c 4
 114 478 112 594 112 704 c 4
 112 814 113 930 133 1044 c 4
 171 1267 302 1424 515 1424 c 4
 638 1424 757 1395 866 1367 c 5
 866 1243 l 5
 753 1272 627 1304 515 1304 c 4
 369 1304 286 1188 258 1016 c 4
 245 938 241 854 240 768 c 5
 768 768 l 5
 768 648 l 5
 240 648 l 5
 241 559 245 472 258 392 c 4
 287 220 369 104 515 104 c 4
 637 104 775 142 896 173 c 5
EndSplineSet
Layer: 2
Layer: 3
Layer: 4
EndChar
StartChar: uni0405
Encoding: 1029 1029 391
Width: 1024
VWidth: 0
Flags: W
HStem: -16 120<259.035 775.362> 1304 120<402.92 843.308>
VStem: 152 128<889.025 1186.02> 912 128<229.087 515.486>
LayerCount: 5
Back
Fore
SplineSet
570 1304 m 4
 379 1304 280 1178 280 1036 c 4
 280 928 338 847 412 807 c 4
 521 749 661 770 792 721 c 4
 923 672 1040 547 1040 375 c 4
 1040 192 897 -16 582 -16 c 4
 465 -16 319 11 192 39 c 5
 192 163 l 5
 319 133 468 104 582 104 c 4
 814 104 912 240 912 375 c 4
 912 493 835 575 744 609 c 4
 616 657 487 629 348 703 c 4
 240 761 152 880 152 1036 c 4
 152 1222 288 1424 570 1424 c 4
 671 1424 811 1393 930 1361 c 5
 930 1236 l 5
 810 1270 669 1304 570 1304 c 4
EndSplineSet
Layer: 2
Layer: 3
Layer: 4
EndChar
StartChar: uni0407
Encoding: 1031 1031 393
Width: 1024
VWidth: 0
Flags: W
HStem: 0 120<256 512 640 896> 1160 120<256 512 640 896> 1456 224<261.032 442.968 709.032 890.968>
VStem: 240 224<1477.03 1658.97> 512 128<120 1160> 688 224<1477.03 1658.97>
CounterMasks: 1 1c
LayerCount: 5
Back
Fore
SplineSet
896 1280 m 1
 896 1160 l 1
 640 1160 l 1
 640 120 l 1
 896 120 l 1
 896 0 l 1
 256 0 l 1
 256 120 l 1
 512 120 l 1
 512 1160 l 1
 256 1160 l 1
 256 1280 l 1
 896 1280 l 1
800 1680 m 0
 866 1680 912 1634 912 1568 c 0
 912 1502 866 1456 800 1456 c 0
 734 1456 688 1502 688 1568 c 0
 688 1634 734 1680 800 1680 c 0
352 1680 m 0
 418 1680 464 1634 464 1568 c 0
 464 1502 418 1456 352 1456 c 0
 286 1456 240 1502 240 1568 c 0
 240 1634 286 1680 352 1680 c 0
EndSplineSet
Layer: 2
Layer: 3
Layer: 4
EndChar
StartChar: uni0409
Encoding: 1033 1033 412
Width: 1024
VWidth: 0
Flags: W
HStem: -16 120<128 236.842> 0 120<640 810.858> 648 120<640 810.858> 1288 120<384 512>
VStem: 243 141<823.197 1288> 512 128<120 648 768 1288> 912 128<226.019 541.981>
LayerCount: 5
Back
Fore
SplineSet
640 648 m 5x7e
 640 472 640 296 640 120 c 5
 671 120 699 120 744 132 c 4
 843 158 912 254 912 384 c 4
 912 514 843 610 744 636 c 4
 699 648 671 648 640 648 c 5x7e
361 72 m 4
 349 -14 236 -16 128 -16 c 5
 128 104 l 5xbe
 188 104 237 106 243 161 c 4
 255 287 256 683 256 1408 c 5
 384 1408 512 1408 640 1408 c 5
 640 768 l 5
 675 768 712 768 776 752 c 4
 928 714 1040 575 1040 384 c 4
 1040 193 928 54 776 16 c 4
 712 0 675 0 640 0 c 6
 512 0 l 5
 512 1288 l 5
 384 1288 l 5
 384 640 384 236 361 72 c 4
EndSplineSet
Layer: 2
Layer: 3
Layer: 4
EndChar
StartChar: uni040B
Encoding: 1035 1035 421
Width: 1024
VWidth: 0
Flags: W
HStem: 0 21G<256 384 896 1024> 792 120<515.249 777.125> 1288 120<128 256 384 640>
VStem: 256 128<0 657.289 730 1288> 896 128<0 659.486>
LayerCount: 5
Back
SplineSet
1024 0 m 5
 896 0 l 5
 896 384 l 6
 896 455 896 518 884 566 c 4
 851 700 736 792 576 792 c 4
 416 792 301 700 268 566 c 4
 256 518 256 455 256 384 c 6
 256 0 l 5
 128 0 l 5
 128 1408 l 5
 256 1408 l 5
 256 730 l 5
 266 730 l 5
 347 843 451 912 596 912 c 4
 807 912 968 778 1009 593 c 4
 1024 525 1024 465 1024 384 c 6
 1024 0 l 5
EndSplineSet
Fore
SplineSet
1024 0 m 1
 896 0 l 1
 896 384 l 2
 896 455 896.302245605 518.057657267 887 566 c 0
 861 700 768.311688312 792 640 792 c 0
 512.727272727 792 425.40706646 698.685380918 395 566 c 0
 384 518 384 455 384 384 c 2
 384 0 l 1
 256 0 l 1
 256 1288 l 1
 128 1288 l 1
 128 1408 l 1
 640 1408 l 1
 640 1288 l 1
 384 1288 l 1
 384 730 l 1
 394 730 l 1
 459.290909091 843 543.121212121 912 660 912 c 0
 838.813559322 912 972.153125729 776.827675033 1010 593 c 0
 1024 525 1024 465 1024 384 c 2
 1024 0 l 1
EndSplineSet
Layer: 2
Layer: 3
Layer: 4
EndChar
StartChar: uni040C
Encoding: 1036 1036 409
Width: 1024
VWidth: 0
Flags: W
HStem: 0 21G<128 256 877.995 1062>
VStem: 128 128<0 450 617 1280>
LayerCount: 5
Back
Fore
SplineSet
488 1408 m 5
 626 1408 l 5
 792 1664 l 5
 654 1664 l 5
 488 1408 l 5
256 0 m 1
 128 0 l 1
 128 1280 l 1
 256 1280 l 1
 256 617 l 1
 800 1280 l 1
 969 1280 l 1
 486 699 l 1
 1062 0 l 1
 895 0 l 1
 384 601 l 1
 256 450 l 1
 256 0 l 1
EndSplineSet
Layer: 2
Layer: 3
Layer: 4
EndChar
StartChar: uni040D
Encoding: 1037 1037 408
Width: 1024
VWidth: 0
Flags: W
HStem: 0 21G<128 268 896 1024> 1408 21G<513.031 664>
VStem: 128 128<230 1280> 896 128<0 1050>
LayerCount: 5
Back
Fore
SplineSet
896 0 m 5
 896 1050 l 5
 886 1050 l 5
 256 0 l 5
 128 0 l 5
 128 1280 l 5
 256 1280 l 5
 256 230 l 5
 266 230 l 5
 897 1280 l 5
 1024 1280 l 5
 1024 0 l 5
 896 0 l 5
664 1408 m 1
 526 1408 l 1
 360 1664 l 1
 498 1664 l 1
 664 1408 l 1
EndSplineSet
Layer: 2
Layer: 3
Layer: 4
EndChar
StartChar: uni040E
Encoding: 1038 1038 422
Width: 1024
VWidth: 0
Flags: W
HStem: -16 114<256 441.74> 1392 120<418.746 733.254>
VStem: 137 135<1061.44 1280> 236 128<1563.69 1664> 788 128<1563.69 1664> 880 135<1131.11 1280>
LayerCount: 5
Back
SplineSet
481 384 m 5
 272.067650809 712 183.831062869 1047 137 1408 c 5
 272 1408 l 5
 322.494915254 1035.11663067 417.213135594 716.399568035 576 462 c 5
 586 462 l 5
 722.06876277 790.264324494 813.296805054 1103.64901129 880 1408 c 5
 1015 1408 l 5
 909.761770357 964.039664217 768.412950566 524.353386837 556 111 c 4
 509.713110185 20.9261950824 410.183488425 -16 256 -16 c 5
 256 98 l 5
 364.776889414 98 425.202637764 108.193235441 455 160 c 4
 495.63864039 230.65580027 528.520425697 301.334983342 559 384 c 5
 481 384 l 5
EndSplineSet
Fore
SplineSet
788 1664 m 5xd8
 916 1664 l 5
 916 1496 764 1392 576 1392 c 4
 388 1392 236 1496 236 1664 c 5
 364 1664 l 5
 364 1578 433 1512 576 1512 c 4
 719 1512 788 1578 788 1664 c 5xd8
481 384 m 1
 272.067650809 671 183.831062869 964.125 137 1280 c 1
 272 1280 l 1
 322.494915254 957.570194385 417.213135594 681.977639168 576 462 c 1
 586 462 l 1
 722.06876277 745.848009975 813.296805054 1016.82969475 880 1280 c 1
 1015 1280 l 1xe4
 909.761770357 879.853791419 751.805003869 492.034495746 556 111 c 0
 509.713110185 20.9261950824 410.183488425 -16 256 -16 c 1
 256 98 l 1
 364.776889414 98 425.202637764 108.193235441 455 160 c 0
 495.63864039 230.65580027 528.520425697 301.334983342 559 384 c 1
 481 384 l 1
EndSplineSet
Layer: 2
Layer: 3
Layer: 4
EndChar
StartChar: uni0410
Encoding: 1040 1040 324
Width: 1024
VWidth: 0
Flags: W
HStem: 0 21G<103 243.5 908.5 1049> 388 120<316 836> 1289 119<549.995 602.005>
VStem: 103 135<0 322.307> 914 135<0 322.307>
LayerCount: 5
Back
Fore
SplineSet
836 508 m 5
 768.576171875 800 695.580078125 1061 581 1289 c 5
 571 1289 l 5
 456.419921875 1061 383.423828125 800 316 508 c 5
 836 508 l 5
103 0 m 5
 156.467773438 496 267.232421875 971 511 1408 c 5
 641 1408 l 5
 884.888671875 971 995.653320312 496 1049 0 c 5
 914 0 l 5
 903 136 877.700195312 265 859 388 c 5
 293 388 l 5
 274.299804688 265 249 136 238 0 c 5
 103 0 l 5
EndSplineSet
Layer: 2
Layer: 3
Layer: 4
EndChar
StartChar: uni0412
Encoding: 1042 1042 326
Width: 1024
VWidth: 0
Flags: W
HStem: 0 120<256 810.858> 648 120<256 679.29> 1288 120<256 676.624>
VStem: 128 128<120 648 768 1288> 784 128<875.533 1182.62> 912 128<226.019 546.394>
LayerCount: 5
Back
Fore
SplineSet
256 648 m 5xf4
 256 120 l 5
 563 120 l 6
 644 120 699 120 744 132 c 4
 843 158 912 254 912 384 c 4
 912 514 844 612 744 636 c 4
 699 647 644 648 563 648 c 6
 256 648 l 5xf4
912 1028 m 4xf8
 912 896 849 798 763 748 c 5
 925 704 1040 566 1040 384 c 4xf4
 1040 193 928 54 776 16 c 4
 712 0 648 0 563 0 c 6
 128 0 l 5
 128 1408 l 5
 449 1408 l 6
 526 1408 578 1408 633 1395 c 4
 792 1357 912 1222 912 1028 c 4xf8
449 768 m 6
 525 768 565 769 601 778 c 4
 709 804 784 896 784 1028 c 4xf8
 784 1160 709 1254 601 1278 c 4
 565 1286 525 1288 449 1288 c 6
 256 1288 l 5
 256 768 l 5
 449 768 l 6
EndSplineSet
Layer: 2
Layer: 3
Layer: 4
EndChar
StartChar: uni0414
Encoding: 1044 1044 328
Width: 1024
VWidth: 0
Flags: W
HStem: 0 120<288.205 768> 1288 120<383.971 768>
VStem: 128 128<-256 0> 256 127.971<953.689 1288> 768 128<120 1288> 896 128<-256 0>
LayerCount: 5
Back
SplineSet
320 1358 m 1
 320 1314 l 2
 320 893.609664181 297.333573636 469.923889573 188 64 c 1024
  Spiro
    320 1358 {
    320 1314 ]
    188 64 [
    0 0 z
  EndSpiro
EndSplineSet
Fore
SplineSet
156.754882812 120 m 1xe4
 245.195953701 538.355209254 256 958.387062688 256 1408 c 1
 896 1408 l 1xd4
 896 120 l 1xc8
 1024 120 l 1
 1024 -256 l 1
 896 -256 l 1
 896 0 l 1
 256 0 l 1
 256 -256 l 1
 128 -256 l 1
 128 120 l 1
 156.754882812 120 l 1xe4
288.205078125 120 m 1
 768 120 l 1
 768 1288 l 1xd8
 383.970974905 1288 l 1
 383.243941518 898.094263652 365.688292496 503.149387195 288.205078125 120 c 1
EndSplineSet
Layer: 2
Layer: 3
Layer: 4
EndChar
StartChar: uni0416
Encoding: 1046 1046 330
Width: 1024
VWidth: 0
Flags: W
HStem: 0 21G<74 213.998 512 640 938.002 1078> 643 120<437 512 640 715> 1388 20G<131 266.457 512 640 885.543 1021>
VStem: 512 128<0 643 763 1408>
LayerCount: 5
Back
SplineSet
206 1584 m 21
 384 704 l 5
 88 -273 l 1037
946 1584 m 21
 768 704 l 5
 1064 -273 l 1037
384 704 m 29
 768 704 l 1053
576 0 m 29
 576 1533 l 1053
EndSplineSet
Fore
SplineSet
512 0 m 5
 512 643 l 5
 432 643 l 5
 207 0 l 5
 74 0 l 5
 318 706 l 5
 131 1408 l 5
 261 1408 l 5
 437 763 l 5
 512 763 l 5
 512 1408 l 5
 640 1408 l 5
 640 763 l 5
 715 763 l 5
 891 1408 l 5
 1021 1408 l 5
 834 706 l 5
 1078 0 l 5
 945 0 l 5
 720 643 l 5
 640 643 l 5
 640 0 l 5
 512 0 l 5
EndSplineSet
Layer: 2
Layer: 3
Layer: 4
EndChar
StartChar: uni0418
Encoding: 1048 1048 332
Width: 1024
VWidth: 0
Flags: W
HStem: 0 21G<128 266.976 896 1024> 1388 20G<128 256 886.007 1024>
VStem: 128 128<260 1408> 896 128<0 1148>
LayerCount: 5
Back
Fore
SplineSet
896 0 m 1
 896 1148 l 1
 886 1148 l 1
 256 0 l 1
 128 0 l 1
 128 1408 l 1
 256 1408 l 1
 256 260 l 1
 266 260 l 1
 897 1408 l 1
 1024 1408 l 1
 1024 0 l 1
 896 0 l 1
EndSplineSet
Layer: 2
Layer: 3
Layer: 4
EndChar
StartChar: uni0419
Encoding: 1049 1049 333
Width: 1024
VWidth: 0
Flags: W
HStem: 0 21G<128 268.353 896 1024> 1392 120<418.746 733.254>
VStem: 128 128<260 1280> 236 128<1563.69 1664> 788 128<1563.69 1664> 896 128<0 1020>
LayerCount: 5
Back
Fore
SplineSet
788 1664 m 5xd8
 916 1664 l 5
 916 1496 764 1392 576 1392 c 4
 388 1392 236 1496 236 1664 c 5
 364 1664 l 5
 364 1578 433 1512 576 1512 c 4
 719 1512 788 1578 788 1664 c 5xd8
896 0 m 5xe4
 896 1020 l 5
 886 1020 l 5
 256 0 l 5
 128 0 l 5
 128 1280 l 5
 256 1280 l 5
 256 260 l 5
 266 260 l 5
 897 1280 l 5
 1024 1280 l 5
 1024 0 l 5
 896 0 l 5xe4
EndSplineSet
Layer: 2
Layer: 3
Layer: 4
EndChar
StartChar: uni041A
Encoding: 1050 1050 334
Width: 1024
VWidth: 0
Flags: W
HStem: 0 21G<128 256 880.981 1062> 1388 20G<128 256 802.457 969>
VStem: 128 128<0 578 765 1408>
LayerCount: 5
Back
Fore
SplineSet
256 0 m 5
 128 0 l 5
 128 1408 l 5
 256 1408 l 5
 256 765 l 5
 820 1408 l 5
 969 1408 l 5
 486 827 l 5
 1062 0 l 5
 895 0 l 5
 384 729 l 5
 256 578 l 5
 256 0 l 5
EndSplineSet
Layer: 2
Layer: 3
Layer: 4
EndChar
StartChar: uni041C
Encoding: 1052 1052 336
Width: 1024
VWidth: 0
Flags: W
HStem: 0 21G<128 256 896 1024> 1388 20G<128 266.194 885.838 1024>
VStem: 128 128<0 1140> 896 128<0 1140>
LayerCount: 5
Back
Fore
SplineSet
256 0 m 5
 128 0 l 5
 128 1408 l 5
 256 1408 l 5
 571 790 l 5
 582 790 l 5
 896 1408 l 5
 1024 1408 l 5
 1024 0 l 5
 896 0 l 5
 896 1140 l 5
 886 1140 l 5
 631 640 l 5
 521 640 l 5
 266 1140 l 5
 256 1140 l 5
 256 0 l 5
EndSplineSet
Layer: 2
Layer: 3
Layer: 4
EndChar
StartChar: uni0423
Encoding: 1059 1059 343
Width: 1024
VWidth: 0
Flags: W
HStem: -16 114<256 441.74> 1388 20G<137 297.247 846.648 1015>
VStem: 137 135<1158.21 1408> 880 135<1241.76 1408>
LayerCount: 5
Back
SplineSet
497 384 m 5
 317.221001859 712 241.296495957 1047 201 1408 c 5
 336 1408 l 5
 378.522033898 1035.11663067 458.284745763 716.399568035 592 462 c 5
 602 462 l 5
 701.043249091 790.264324494 767.447334291 1103.64901129 816 1408 c 5
 951 1408 l 5
 858.14273855 920.225537016 763.864794847 417.857677469 546 -17 c 4
 500.35865925 -108.100021227 405.044038811 -144 256 -144 c 5
 256 -30 l 5
 353.844538719 -30 407.789942502 -19.5436103058 435 32 c 4
 493.61342364 143.030543282 541.039075525 254.097830966 585 384 c 5
 497 384 l 5
EndSplineSet
Fore
SplineSet
481 384 m 5
 272.067650809 712 183.831062869 1047 137 1408 c 5
 272 1408 l 5
 322.494915254 1035.11663067 417.213135594 716.399568035 576 462 c 5
 586 462 l 5
 722.06876277 790.264324494 813.296805054 1103.64901129 880 1408 c 5
 1015 1408 l 5
 909.761770357 964.039664217 768.412950566 524.353386837 556 111 c 4
 509.713110185 20.9261950824 410.183488425 -16 256 -16 c 5
 256 98 l 5
 364.776889414 98 425.202637764 108.193235441 455 160 c 4
 495.63864039 230.65580027 528.520425697 301.334983342 559 384 c 5
 481 384 l 5
EndSplineSet
Layer: 2
Layer: 3
Layer: 4
EndChar
StartChar: uni0425
Encoding: 1061 1061 345
Width: 1024
VWidth: 0
Flags: W
HStem: 0 21G<89 247.987 904.013 1063> 1388 20G<121 278.377 873.623 1031>
LayerCount: 5
Back
Fore
SplineSet
571 824 m 5
 581 824 l 5
 884 1408 l 5
 1031 1408 l 5
 660 721 l 5
 660 711 l 5
 1063 0 l 5
 915 0 l 5
 581 608 l 5
 571 608 l 5
 237 0 l 5
 89 0 l 5
 492 711 l 5
 492 721 l 5
 121 1408 l 5
 268 1408 l 5
 571 824 l 5
EndSplineSet
Layer: 2
Layer: 3
Layer: 4
EndChar
StartChar: uni0427
Encoding: 1063 1063 347
Width: 1024
VWidth: 0
Flags: W
HStem: 0 21G<896 1024> 496 120<406.99 734.899> 1388 20G<128 256 896 1024>
VStem: 128 128<764.382 1408> 896 128<0 678 760.615 1408>
LayerCount: 5
Back
Fore
SplineSet
128 1408 m 5
 256 1408 l 5
 256 1024 l 6
 256 953 256 890 268 842 c 4
 301 708 416 616 576 616 c 4
 736 616 851 708 884 842 c 4
 896 890 896 953 896 1024 c 6
 896 1408 l 5
 1024 1408 l 5
 1024 0 l 5
 896 0 l 5
 896 678 l 5
 886 678 l 5
 805 565 701 496 556 496 c 4
 345 496 184 630 143 815 c 4
 128 883 128 943 128 1024 c 6
 128 1408 l 5
EndSplineSet
Layer: 2
Layer: 3
Layer: 4
EndChar
StartChar: uni0428
Encoding: 1064 1064 348
Width: 1024
VWidth: 0
Flags: W
HStem: 0 120<256 512 640 896> 1388 20G<128 256 512 640 896 1024>
VStem: 128 128<120 1408> 512 128<120 1408> 896 128<120 1408>
CounterMasks: 1 38
LayerCount: 5
Back
Fore
SplineSet
128 0 m 5
 128 1408 l 5
 256 1408 l 5
 256 120 l 5
 512 120 l 5
 512 1408 l 5
 640 1408 l 5
 640 120 l 5
 896 120 l 5
 896 1408 l 5
 1024 1408 l 5
 1024 0 l 5
 128 0 l 5
EndSplineSet
Layer: 2
Layer: 3
Layer: 4
EndChar
StartChar: uni0429
Encoding: 1065 1065 349
Width: 1024
VWidth: 0
Flags: W
HStem: 0 120<256 512 640 896> 1388 20G<128 256 512 640 896 1024>
VStem: 128 128<120 1408> 512 128<120 1408> 896 128<120 1408> 1024 128<-256 0>
LayerCount: 5
Back
Fore
SplineSet
128 0 m 5xf4
 128 1408 l 5
 256 1408 l 5
 256 120 l 5
 512 120 l 5
 512 1408 l 5
 640 1408 l 5
 640 120 l 5
 896 120 l 5
 896 1408 l 5
 1024 1408 l 5xf8
 1024 119 l 5
 1152 119 l 5
 1152 -256 l 5
 1024 -256 l 5
 1024 0 l 5
 128 0 l 5xf4
EndSplineSet
Layer: 2
Layer: 3
Layer: 4
EndChar
StartChar: uni042A
Encoding: 1066 1066 345
Width: 1024
VWidth: 0
Flags: W
HStem: 0 120<384 810.858> 648 120<384 810.858> 1280 128<0 256>
VStem: 256 128<120 648 768 1280> 912 128<226.019 541.981>
LayerCount: 5
Back
Fore
SplineSet
384 648 m 5
 384 120 l 5
 563 120 l 6
 644 120 699 120 744 132 c 4
 843 158 912 254 912 384 c 4
 912 514 843 610 744 636 c 4
 699 648 644 648 563 648 c 6
 384 648 l 5
384 768 m 5
 563 768 l 6
 648 768 712 768 776 752 c 4
 928 714 1040 575 1040 384 c 4
 1040 193 928 54 776 16 c 4
 712 0 648 0 563 0 c 6
 256 0 l 5
 256 1280 l 5
 0 1280 l 5
 0 1408 l 5
 384 1408 l 5
 384 768 l 5
EndSplineSet
Layer: 2
Layer: 3
Layer: 4
EndChar
StartChar: uni042B
Encoding: 1067 1067 351
Width: 1024
VWidth: 0
Flags: W
HStem: 0 120<256 554.858> 648 120<256 554.858> 1388 20G<128 256 896 1024>
VStem: 128 128<120 648 768 1408> 656 128<226.019 541.981> 896 128<0 1408>
LayerCount: 5
Back
Fore
SplineSet
1024 1408 m 1
 1024 0 l 1
 896 0 l 1
 896 1408 l 1
 1024 1408 l 1
256 768 m 5
 307 768 l 6
 392 768 456 768 520 752 c 4
 672 714 784 575 784 384 c 4
 784 193 672 54 520 16 c 4
 456 0 392 -1.04094977928e-14 307 0 c 6
 128 0 l 5
 128 1408 l 5
 256 1408 l 5
 256 768 l 5
256 648 m 5
 256 120 l 5
 307 120 l 6
 388 120 442.955009605 120.170002523 488 132 c 4
 587 158 656 254 656 384 c 4
 656 514 587 610 488 636 c 4
 442.95505389 647.829985847 388 648 307 648 c 6
 256 648 l 5
EndSplineSet
Layer: 2
Layer: 3
Layer: 4
EndChar
StartChar: uni042D
Encoding: 1069 1069 353
Width: 1024
VWidth: 0
Flags: W
HStem: -16 120<225.61 643.616> 648 120<256 783.672> 1304 120<224.182 643.614>
VStem: 783.767 128.233<293.243 648 768 1114.62>
LayerCount: 5
Back
Fore
SplineSet
128 173 m 5
 249 142 387 104 509 104 c 4
 654.976 104 737.463473026 219.766206087 766 392 c 4
 779.304833938 472.300165765 782.917144926 558.768154849 783.766601562 648 c 5
 256 648 l 5
 256 768 l 5
 783.671875 768 l 5
 782.656401512 854.387843468 778.816250198 938.067093089 766 1016 c 4
 737.663491699 1188.30886866 654.976 1304 509 1304 c 4
 397 1304 271 1272 158 1243 c 5
 158 1367 l 5
 267 1395 386 1424 509 1424 c 4
 721.735586933 1424 852.614028267 1266.75209212 891 1044 c 4
 910.64516129 930 912 814 912 704 c 4
 912 594 910.469666205 478.065589061 891 364 c 4
 852.888809738 140.720601096 721.786063611 -16 509 -16 c 4
 375 -16 245 19 128 49 c 5
 128 173 l 5
EndSplineSet
Layer: 2
Layer: 3
Layer: 4
EndChar
StartChar: uni042E
Encoding: 1070 1070 354
Width: 1024
VWidth: 0
Flags: W
HStem: -18 124<596.706 811.294> 0 21G<128 256> 644 120<256 381.03> 1302 124<596.706 811.294> 1388 20G<128 256>
VStem: 128 128<0 644 764 1408> 381.03 123.97<239.758 644 764 1168.24> 903 124<240.586 1167.41>
LayerCount: 5
Back
Fore
SplineSet
704 1426 m 0x37
 868.506835938 1426 948.091458705 1315.24889642 988 1209 c 0
 1027 1105.16992188 1027 925.756835938 1027 704 c 0
 1027 482.243164062 1026.99966953 302.830202253 988 199 c 0
 948.091796875 92.7509765625 868.506835938 -18 704 -18 c 0xb7
 539.493164062 -18 459.908541293 92.7511035824 420 199 c 0
 384.58168461 293.29452446 381.328934991 449.926746584 381.030208754 644 c 1
 256 644 l 1
 256 0 l 1
 128 0 l 1
 128 1408 l 1
 256 1408 l 1x6f
 256 764 l 1
 381.030216352 764 l 1
 381.328990148 958.073234246 384.581984906 1114.70536328 420 1209 c 0
 459.908203125 1315.24902344 539.493164062 1426 704 1426 c 0x37
704 1302 m 0
 614.204101562 1302 560.208712297 1232.04305592 532 1144 c 0
 505 1059.72949219 505 893.279296875 505 704 c 0
 505 514.720703125 505 348.269611577 532 264 c 0
 560.208984375 175.95703125 614.204101562 106 704 106 c 0
 793.795898438 106 847.791287704 175.956944076 876 264 c 0
 903 348.270507812 903 514.720703125 903 704 c 0
 903 893.279296875 903 1059.73038842 876 1144 c 0
 847.791015625 1232.04296875 793.795898438 1302 704 1302 c 0
EndSplineSet
Layer: 2
Layer: 3
Layer: 4
EndChar
StartChar: uni0431
Encoding: 1073 1073 357
Width: 1024
VWidth: 0
Flags: W
HStem: -16 120<445.448 707.676> 920 120<459.271 706.834>
VStem: 224 128<209.24 810.282> 800 128<209.24 814.76>
LayerCount: 5
Back
SplineSet
576 920 m 4
 672 920 736 868 768 789 c 4
 798 714 800 614 800 512 c 4
 800 410 798 310 768 235 c 4
 736 156 672 104 576 104 c 4
 480 104 416 156 384 235 c 4
 354 310 352 410 352 512 c 4
 352 614 354 714 384 789 c 4
 416 868 480 920 576 920 c 4
746 1143 m 5
 790 1209 l 5
 612 1330 l 5
 663 1382 720 1425 781 1458 c 5
 739 1536 l 5
 655 1498 582 1450 520 1392 c 5
 324 1525 l 5
 280 1459 l 5
 464 1334 l 5
 296 1141 224 861 224 512 c 4
 224 391 226 290 264 195 c 4
 310 80 416 -16 556 -16 c 4
 746 -16 841 78 888 195 c 4
 926 290 928 391 928 512 c 4
 928 633 928 734 892 829 c 4
 848 945 748 1040 596 1040 c 4
 509 1040 454 1001 398 938 c 5
 388 938 l 5
 424 1064 483 1177 558 1270 c 5
 746 1143 l 5
EndSplineSet
Fore
SplineSet
576 920 m 4
 480 920 416 868 384 789 c 4
 354 714 352 614 352 512 c 4
 352 410 354 310 384 235 c 4
 416 156 480 104 576 104 c 4
 672 104 736 156 768 235 c 4
 798 310 800 410 800 512 c 4
 800 614 798 714 768 789 c 4
 736 868 672 920 576 920 c 4
811 1468 m 5
 606.25715952 1363.11399643 447.845873544 1189.49067786 388 938 c 5
 398 938 l 5
 454 1001 509 1040 596 1040 c 4
 748 1040 848 945 892 829 c 4
 928 734 928 633 928 512 c 4
 928 391 926 290 888 195 c 4
 841 78 746 -16 556 -16 c 4
 416 -16 310 80 264 195 c 4
 226 290 224 391 224 512 c 4
 224 1086.45256969 385.540241568 1379.98427588 749 1566 c 5
 811 1468 l 5
EndSplineSet
Layer: 2
Layer: 3
Layer: 4
EndChar
StartChar: uni0434
Encoding: 1076 1076 360
Width: 1024
VWidth: 0
Flags: W
HStem: -256 376<128 236.863 896 1024> 0 120<348.205 768> 904 120<511.971 768>
VStem: 128 128<-256 0> 384 127.971<563.773 904> 768 128<120 904> 896 128<-256 0>
LayerCount: 5
Back
Fore
SplineSet
216.754882812 120 m 1xba
 365.793321016 413.628190346 384 708.433155799 384 1024 c 1
 896 1024 l 1xba
 896 120 l 1xbc
 1024 120 l 1
 1024 -256 l 1
 896 -256 l 1xba
 896 0 l 1
 256 0 l 1x7a
 256 -256 l 1
 128 -256 l 1
 128 120 l 1
 216.754882812 120 l 1xba
348.205078125 120 m 1x7c
 768 120 l 1
 768 904 l 1
 511.970703125 904 l 1
 510.727430927 702.282450945 480.706181911 377.182465377 348.205078125 120 c 1x7c
EndSplineSet
Layer: 2
Layer: 3
Layer: 4
EndChar
StartChar: uni0436
Encoding: 1078 1078 357
Width: 1024
VWidth: 0
Flags: W
HStem: 0 21G<84 226.336 512 640 925.664 1068> 482 100<447 512 640 705> 1004 20G<141 278.964 512 640 873.036 1011>
VStem: 512 128<0 482 582 1024>
LayerCount: 5
Back
Fore
SplineSet
512 0 m 5
 512 482 l 5
 442 482 l 5
 217 0 l 5
 84 0 l 5
 338 535 l 5
 141 1024 l 5
 271 1024 l 5
 447 582 l 5
 512 582 l 5
 512 1024 l 5
 640 1024 l 5
 640 582 l 5
 705 582 l 5
 881 1024 l 5
 1011 1024 l 5
 814 535 l 5
 1068 0 l 5
 935 0 l 5
 710 482 l 5
 640 482 l 5
 640 0 l 5
 512 0 l 5
EndSplineSet
Layer: 2
Layer: 3
Layer: 4
EndChar
StartChar: uni0438
Encoding: 1080 1080 359
Width: 1024
VWidth: 0
Flags: W
HStem: 0 21G<256 394.108 768 896>
VStem: 256 128<240 980> 768 128<0 740>
LayerCount: 5
Back
Fore
SplineSet
768 0 m 5
 768 740 l 5
 758 740 l 5
 384 0 l 5
 256 0 l 5
 256 980 l 5
 384 980 l 5
 384 240 l 5
 394 240 l 5
 769 980 l 5
 896 980 l 5
 896 0 l 5
 768 0 l 5
EndSplineSet
Layer: 2
Layer: 3
Layer: 4
EndChar
StartChar: uni0439
Encoding: 1081 1081 365
Width: 1024
VWidth: 0
Flags: W
HStem: 0 21G<256 394.108 768 896> 1136 120<418.746 733.254> 1388 20G<236 364 788 916>
VStem: 236 128<1307.69 1408> 256 128<240 980> 768 128<0 740> 788 128<1307.69 1408>
LayerCount: 5
Back
Fore
SplineSet
788 1408 m 1xf2
 916 1408 l 1
 916 1240 764 1136 576 1136 c 0
 388 1136 236 1240 236 1408 c 1
 364 1408 l 1
 364 1322 433 1256 576 1256 c 0
 719 1256 788 1322 788 1408 c 1xf2
768 0 m 5xec
 768 740 l 5
 758 740 l 5
 384 0 l 5
 256 0 l 5
 256 980 l 5
 384 980 l 5
 384 240 l 5
 394 240 l 5
 769 980 l 5
 896 980 l 5
 896 0 l 5
 768 0 l 5xec
EndSplineSet
Layer: 2
Layer: 3
Layer: 4
EndChar
StartChar: uni043B
Encoding: 1083 1083 362
Width: 1024
VWidth: 0
Flags: W
HStem: -16 120<128 318.114> 0 21G<768 896> 904 120<512 768>
VStem: 384 128<168.401 904> 768 128<0 904>
LayerCount: 5
Back
Fore
SplineSet
896 1024 m 5xb8
 896 0 l 1
 768 0 l 1x78
 768 904 l 5
 512 904 l 5
 512 324 l 2
 512 210 485 130 413 66 c 0
 342 3 259 -16 128 -16 c 1
 128 104 l 1
 216 104 279 112 325 153 c 0
 372 196 384 244 384 324 c 2
 384 1024 l 5
 896 1024 l 5xb8
EndSplineSet
Layer: 2
Layer: 3
Layer: 4
EndChar
StartChar: uni043E
Encoding: 1086 1086 370
Width: 1024
VWidth: 0
Flags: W
HStem: -16 120<446.155 705.845> 920 120<446.155 705.845>
VStem: 224 128<209.24 814.76> 800 128<209.24 814.76>
LayerCount: 5
Back
Fore
SplineSet
576 920 m 4
 480 920 416 868 384 789 c 4
 354 714 352 614 352 512 c 4
 352 410 354 310 384 235 c 4
 416 156 480 104 576 104 c 4
 672 104 736 156 768 235 c 4
 798 310 800 410 800 512 c 4
 800 614 798 714 768 789 c 4
 736 868 672 920 576 920 c 4
576 1040 m 4
 736 1040 842 945 888 829 c 4
 926 734 928 633 928 512 c 4
 928 391 926 290 888 195 c 4
 842 79 736 -16 576 -16 c 4
 416 -16 310 79 264 195 c 4
 226 290 224 391 224 512 c 4
 224 633 226 734 264 829 c 4
 310 945 416 1040 576 1040 c 4
EndSplineSet
Layer: 2
Layer: 3
Layer: 4
EndChar
StartChar: uni043F
Encoding: 1087 1087 366
Width: 1024
VWidth: 0
Flags: W
HStem: 0 21G<256 384 768 896> 904 120<384 768>
VStem: 256 128<0 904> 768 128<0 904>
LayerCount: 5
Back
Fore
SplineSet
256 1024 m 5
 896 1024 l 5
 896 0 l 5
 768 0 l 5
 768 904 l 5
 384 904 l 5
 384 0 l 5
 256 0 l 5
 256 1024 l 5
EndSplineSet
Layer: 2
Layer: 3
Layer: 4
EndChar
StartChar: uni0440
Encoding: 1088 1088 367
Width: 1024
VWidth: 0
Flags: W
HStem: -16 120<483.616 706.022> 920 120<483.616 706.022> 1004 20G<256 384>
VStem: 256 128<-384 125 212.637 811.363 899 1024> 800 128<213.326 810.674>
LayerCount: 5
Back
Fore
SplineSet
592 104 m 4xd8
 688 104 748 177 774 256 c 4
 799 332 800 420 800 512 c 4
 800 604 799 692 774 768 c 4
 748 847 688 920 592 920 c 4
 496 920 436 847 410 768 c 4
 385 692 384 604 384 512 c 4
 384 420 385 332 410 256 c 4
 436 177 496 104 592 104 c 4xd8
612 -16 m 4
 529 -16 453 33 394 125 c 5
 384 125 l 5
 384 -384 l 5
 256 -384 l 5
 256 1024 l 5
 384 1024 l 5xb8
 384 899 l 5
 394 899 l 5
 453 991 529 1040 612 1040 c 4
 743 1040 853 953 900 803 c 4
 928 713 928 624 928 512 c 4
 928 400 928 311 900 221 c 4
 853 71 743 -16 612 -16 c 4
EndSplineSet
Layer: 2
Layer: 3
Layer: 4
EndChar
StartChar: uni0442
Encoding: 1090 1090 374
Width: 1024
VWidth: 0
Flags: W
HStem: 0 21G<512 640> 904 120<256 512 640 896>
VStem: 512 128<0 904>
LayerCount: 5
Back
Fore
SplineSet
896 1024 m 1
 896 904 l 1
 640 904 l 1
 640 0 l 1
 512 0 l 1
 512 904 l 1
 256 904 l 5
 256 1024 l 5
 896 1024 l 1
EndSplineSet
Layer: 2
Layer: 3
Layer: 4
EndChar
StartChar: uni0443
Encoding: 1091 1091 375
Width: 1024
VWidth: 0
Flags: W
HStem: -400 114<256 436.159> 1004 20G<201 357.5 791.5 951>
VStem: 201 135<738.402 1024> 816 135<816.403 1024>
LayerCount: 5
Back
Fore
SplineSet
497 0 m 5
 317 328 241 663 201 1024 c 5
 336 1024 l 5
 379 651 458 332 592 78 c 5
 602 78 l 5
 701 406 767 720 816 1024 c 5
 951 1024 l 5
 865.550724638 580 771.502312321 142.38749374 616 -273 c 4
 595.620579403 -327.438781772 546.873512477 -371.413412928 474 -385 c 4
 415 -396 341 -400 256 -400 c 5
 256 -286 l 5
 339 -286 399.055433687 -285.302106184 438 -278 c 4
 470 -272 490.033173388 -247.015058703 505 -214 c 4
 539 -139 560 -79 585 0 c 5
 497 0 l 5
EndSplineSet
Layer: 2
Layer: 3
Layer: 4
EndChar
StartChar: uni0445
Encoding: 1093 1093 390
Width: 1024
VWidth: 0
Flags: W
HStem: 0 21G<159 337.427 814.573 993> 1004 20G<181 359.737 792.263 971>
LayerCount: 5
Back
Fore
SplineSet
571 644 m 5
 581 644 l 5
 804 1024 l 5
 971 1024 l 5
 650 561 l 5
 650 551 l 5
 993 0 l 5
 825 0 l 5
 581 468 l 5
 571 468 l 5
 327 0 l 5
 159 0 l 5
 502 551 l 5
 502 561 l 5
 181 1024 l 5
 348 1024 l 5
 571 644 l 5
EndSplineSet
Layer: 2
Layer: 3
Layer: 4
EndChar
StartChar: uni0447
Encoding: 1095 1095 378
Width: 1024
VWidth: 0
Flags: W
HStem: 0 21G<768 896> 368 120<447.689 680.727> 1004 20G<256 384 768 896>
VStem: 256 128<553.924 1024> 768 128<0 496 550.016 1024>
LayerCount: 5
Back
Fore
SplineSet
556 368 m 4
 456 368 375 413 325 475 c 4
 256 561 256 657 256 751 c 6
 256 1024 l 1
 384 1024 l 1
 384 751 l 6
 384 664 384 602 429 550 c 4
 461 513 512 488 576 488 c 4
 640 488 691 513 723 550 c 4
 768 602 768 664 768 751 c 6
 768 1024 l 1
 896 1024 l 1
 896 0 l 1
 768 0 l 1
 768 496 l 5
 758 496 l 5
 709 419 632 368 556 368 c 4
EndSplineSet
Layer: 2
Layer: 3
Layer: 4
EndChar
StartChar: uni044A
Encoding: 1098 1098 376
Width: 1024
VWidth: 0
Flags: W
HStem: 0 120<512 852.496> 516 120<513 852.496> 904 120<128 384>
VStem: 384 128<120 516 636 904> 914 128<181.273 454.727>
LayerCount: 5
Back
Fore
SplineSet
513 636 m 5
 698 636 l 6
 735 636 778 636 823 624 c 4
 952 590 1042 477 1042 318 c 4
 1042 159 952 46 823 12 c 4
 778 0 735 0 698 0 c 6
 384 0 l 5
 384 904 l 5
 128 904 l 5
 128 1024 l 5
 513 1024 l 5
 513 636 l 5
512 516 m 5
 512 120 l 5
 698 120 l 6
 733 120 763 122 788 128 c 4
 866 148 914 220 914 318 c 4
 914 416 866 488 788 508 c 4
 763 514 733 516 698 516 c 6
 512 516 l 5
EndSplineSet
Layer: 2
Layer: 3
Layer: 4
EndChar
StartChar: uni044B
Encoding: 1099 1099 382
Width: 1024
VWidth: 0
Flags: W
HStem: 0 120<384 596.476> 516 120<384.571 596.476> 1004 20G<256 385 896 1024>
VStem: 256 128<120 516 636 1024> 658 128<181.311 454.689> 896 128<0 1024>
LayerCount: 5
Back
Fore
SplineSet
1024 1024 m 1
 1024 0 l 1
 896 0 l 1
 896 1024 l 1
 1024 1024 l 1
384.438053097 516 m 5
 384 120 l 5
 442 120 l 6
 477 120 507.095697101 121.614281308 532 128 c 4
 610 148 658 220 658 318 c 4
 658 416 609.999981131 487.999926413 532 508 c 4
 507.095703125 514.385742188 477 516 442 516 c 6
 384.438053097 516 l 5
384.57079646 636 m 5
 442 636 l 6
 479 636 522.000028292 636.000106096 567 624 c 4
 695.901367188 589.625976562 786 477 786 318 c 4
 786 159 695.90144823 46.3737195281 567 12 c 4
 522 5.3290705182e-15 479 -4.53119315685e-15 442 0 c 6
 256 0 l 5
 256 1024 l 5
 385 1024 l 5
 384.57079646 636 l 5
EndSplineSet
Layer: 2
Layer: 3
Layer: 4
EndChar
StartChar: uni044C
Encoding: 1100 1100 383
Width: 1024
VWidth: 0
Flags: W
HStem: 0 120<384 738.476> 516 120<384.571 738.476> 1004 20G<256 385>
VStem: 256 128<120 516 636 1024> 800 128<181.311 454.689>
LayerCount: 5
Back
Fore
SplineSet
384.438053097 516 m 5
 384 120 l 5
 584 120 l 6
 619 120 649.095729241 121.614289549 674 128 c 4
 752 148 800 220 800 318 c 4
 800 416 752 488 674 508 c 4
 649.095703125 514.385742188 619 516 584 516 c 6
 384.438053097 516 l 5
384.57079646 636 m 5
 584 636 l 6
 621 636 664 636 709 624 c 4
 837.901367188 589.625976562 928 477 928 318 c 4
 928 159 837.900955898 46.3735882396 709 12 c 4
 664 -3.5527136788e-15 621 -4.53119315685e-15 584 0 c 6
 256 0 l 5
 256 1024 l 5
 385 1024 l 5
 384.57079646 636 l 5
EndSplineSet
Layer: 2
Layer: 3
Layer: 4
EndChar
StartChar: uni044D
Encoding: 1101 1101 384
Width: 1024
VWidth: 0
Flags: W
HStem: -16 120<261.959 701.737> 512 120<395 797.98> 920 120<281.584 701.737>
VStem: 800 128<210.579 512 632 813.421>
LayerCount: 5
Back
Fore
SplineSet
928 512 m 0
 928 391 926 286 888 193 c 0
 841 78 735 -16 566 -16 c 0
 483 -16 383 -1 256 25 c 1
 256 148 l 1
 384 121 490 104 566 104 c 0
 667 104 732 152 768 235 c 0
 800 308 800 410 800 512 c 1
 395 512 l 1
 395 632 l 1
 797.980468776 632 l 1
 794.927558572 690.623233404 787.25958691 745.064067361 768 789 c 0
 732 872 667 920 566 920 c 0
 495 920 396 905 276 880 c 1
 276 1003 l 1
 395 1026 488 1040 566 1040 c 0
 735 1040 841 946 888 831 c 0
 926 738 928 633 928 512 c 0
EndSplineSet
Layer: 2
Layer: 3
Layer: 4
EndChar
StartChar: uni044F
Encoding: 1103 1103 386
Width: 1024
VWidth: 0
Flags: W
HStem: 0 21G<222 363.421 767 896> 388 120<518.741 767.43> 904 120<413.524 768>
VStem: 224 128<569.381 842.689> 767 129<0 388 508 904>
LayerCount: 5
Back
Fore
SplineSet
767.561523438 508 m 1
 768 904 l 1
 568 904 l 2
 533 904 502.904302899 902.385718692 478 896 c 0
 400 876 352 804 352 706 c 0
 352 608 400.000018869 536.000073587 478 516 c 0
 502.904296875 509.614257812 533 508 568 508 c 2
 767.561523438 508 l 1
767.4296875 388 m 1
 568 388 l 2
 552.531496109 388 536.014234262 388.876841319 518.740588314 388.876841319 c 1
 355 0 l 5
 222 0 l 5
 394.292605324 417.540783287 l 1
 291.967161824 464.786763433 224 567.901935637 224 706 c 0
 224 865 314.09855177 977.626280472 443 1012 c 0
 488 1024 531 1024 568 1024 c 2
 896 1024 l 1
 896 0 l 1
 767 0 l 1
 767.4296875 388 l 1
EndSplineSet
Layer: 2
Layer: 3
Layer: 4
EndChar
StartChar: uni0452
Encoding: 1106 1106 389
Width: 1024
VWidth: 0
Flags: W
HStem: 0 21G<256 384> 792 120<471.275 704.332> 1156 120<128 256 384 768> 1388 20G<256 384>
VStem: 256 128<0 729.984 784 1156 1276 1408> 768 128<-224.394 726.076>
LayerCount: 5
Back
SplineSet
768 0 m 5
 896 0 l 5
 896 0 l 4
 896 -73.6943359375 893.758833256 -156.126972073 859.690429688 -235.586914062 c 4
 825.748046875 -314.752929688 762.96484375 -382.64453125 680.953125 -419.974609375 c 5
 625.046875 -312.026367188 l 5
 674.828125 -289.366210938 717.806596054 -244.752910578 740.924804688 -190.833007812 c 4
 763.916992188 -137.20703125 768 -71.109375 768 0 c 4
 768 0 l 5
EndSplineSet
Fore
SplineSet
596 912 m 4
 696 912 777.155474098 867.125061269 827 805 c 4
 896 719 896 623 896 529 c 6
 896 0 l 2
 896 -73.6943359375 893.758833257 -156.126972073 859.690429688 -235.586914062 c 0
 825.748046875 -314.752929688 762.96484375 -382.64453125 680.953125 -419.974609375 c 1
 625.046875 -312.026367188 l 1
 674.828125 -289.366210938 717.806596054 -244.752910578 740.924804688 -190.833007812 c 0
 763.916992188 -137.20703125 768 -71.109375 768 0 c 2
 768 529 l 6
 768 616 767.984540224 677.986625366 723 730 c 4
 691 767 640 792 576 792 c 4
 512 792 461.010997397 766.990485881 429 730 c 4
 384 678 384 616 384 529 c 6
 384 0 l 1
 256 0 l 1
 256 1156 l 5
 128 1156 l 5
 128 1276 l 5
 256 1276 l 5
 256 1408 l 5
 384 1408 l 5
 384 1276 l 5
 768 1276 l 5
 768 1156 l 5
 384 1156 l 5
 384 784 l 5
 394 784 l 5
 443 861 520 912 596 912 c 4
EndSplineSet
Layer: 2
SplineSet
832 165 m 5
 832 0 l 6
 832 -72.4015318952 828.837475939 -146.666147497 800.307312463 -213.209453643 c 4
 771.777148987 -279.752759788 718.896068554 -336.005167612 653 -366 c 1028
  Spiro
    832 165 {
    832 0 ]
    653 -366 v
    0 0 z
  EndSpiro
EndSplineSet
Layer: 3
Layer: 4
EndChar
StartChar: uni0454
Encoding: 1108 1108 400
Width: 1024
VWidth: 0
Flags: W
HStem: -16 120<450.263 890.041> 920 120<450.263 870.416>
VStem: 224 128<210.579 512 632 813.421>
LayerCount: 5
Back
Fore
SplineSet
224 512 m 4
 224 391 226 286 264 193 c 4
 311 78 417 -16 586 -16 c 4
 669 -16 769 -1 896 25 c 5
 896 148 l 5
 768 121 662 104 586 104 c 4
 485 104 420 152 384 235 c 4
 352 308 352 410 352 512 c 5
 757 512 l 5
 757 632 l 5
 354.01953125 632 l 5
 357.072265625 690.623046875 364.740234375 745.064453125 384 789 c 4
 420 872 485 920 586 920 c 4
 657 920 756 905 876 880 c 5
 876 1003 l 5
 757 1026 664 1040 586 1040 c 4
 417 1040 311 946 264 831 c 4
 226 738 224 633 224 512 c 4
EndSplineSet
Layer: 2
Layer: 3
Layer: 4
EndChar
StartChar: uni0455
Encoding: 1109 1109 396
Width: 1024
VWidth: 0
Flags: W
HStem: -16 120<260.566 720.345> 920 120<413.623 843.839>
VStem: 234 128<687.599 867.607> 800 128<183.035 441.813>
LayerCount: 5
Back
Fore
SplineSet
567 -16 m 4
 474 -16 355 7 256 26 c 5
 256 149 l 5
 351 129 480 104 567 104 c 4
 755 104 800 231 800 313 c 4
 800 397 757 458 700 488 c 4
 614 532 507 510 402 550 c 4
 318 582 234 661 234 776 c 4
 234 904 343 1040 572 1040 c 4
 679 1040 789 1012 886 989 c 5
 886 866 l 5
 788 889 665 920 572 920 c 4
 410 920 362 834 362 776 c 4
 362 719 404 679 450 662 c 4
 543 627 654 651 762 594 c 4
 855 545 928 445 928 313 c 4
 928 147 810 -16 567 -16 c 4
EndSplineSet
Layer: 2
Layer: 3
Layer: 4
EndChar
StartChar: uni0456
Encoding: 1110 1110 402
Width: 1024
VWidth: 0
Flags: W
HStem: 0 120<256 512 640 896> 776 120<256 512> 1200 224<453.032 634.968>
VStem: 432 224<1221.03 1402.97> 512 128<120 776>
LayerCount: 5
Back
Fore
SplineSet
256 0 m 1xe8
 256 120 l 1
 512 120 l 1
 512 776 l 5
 256 776 l 5
 256 896 l 5
 640 896 l 5
 640 120 l 1
 896 120 l 1
 896 0 l 1
 256 0 l 1xe8
544 1424 m 4
 610 1424 656 1378 656 1312 c 4
 656 1246 610 1200 544 1200 c 4
 478 1200 432 1246 432 1312 c 4xf0
 432 1378 478 1424 544 1424 c 4
EndSplineSet
Layer: 2
Layer: 3
Layer: 4
EndChar
StartChar: uni0458
Encoding: 1112 1112 404
Width: 1024
VWidth: 0
Flags: W
HStem: -528 120<258.703 579.284> 898 126<384 640> 1328 224<581.032 762.968>
VStem: 560 224<1349.03 1530.97> 640 128<-347.771 898>
LayerCount: 5
Back
Fore
SplineSet
672 1552 m 0xf0
 738 1552 784 1506 784 1440 c 0
 784 1374 738 1328 672 1328 c 0
 606 1328 560 1374 560 1440 c 0
 560 1506 606 1552 672 1552 c 0xf0
256 -365 m 1
 311 -387 380 -408 448 -408 c 0
 515 -408 565 -384 597 -346 c 0
 640 -294 640 -230 640 -142 c 2
 640 898 l 1
 384 898 l 1
 384 1024 l 1
 768 1024 l 1
 768 -152 l 2xe8
 768 -243 768 -338 700 -420 c 0
 648 -483 564 -528 458 -528 c 0
 383 -528 316 -513 256 -493 c 1
 256 -365 l 1
EndSplineSet
Layer: 2
Layer: 3
Layer: 4
EndChar
StartChar: uni0459
Encoding: 1113 1113 400
Width: 1024
VWidth: 0
Flags: W
HStem: -16 120<128 236.842> 0 120<640 851.496> 516 120<640 851.496> 904 120<384 512>
VStem: 243 141<432.195 904> 511 129<120 516 636 904> 913 128<181.273 454.938>
LayerCount: 5
Back
Fore
SplineSet
640 636 m 5xbe
 697 636 l 6
 734 636 777 636 822 624 c 4
 951 590 1041 477 1041 318 c 4
 1041 159 951 46 822 12 c 4
 777 0 734 0 697 0 c 6
 640 0 l 5
 512 0 l 5
 511 0 l 5x7e
 512 904 l 5
 384 904 l 5
 384 461 377 185 361 72 c 4
 349 -14 236 -16 128 -16 c 5
 128 104 l 5
 188 104 235 106 243 161 c 4
 255 248 256 522 256 1024 c 5
 384 1024 512 1024 640 1024 c 5
 640 636 l 5xbe
640 516 m 5
 640 120 l 5
 697 120 l 6
 732 120 762 122 787 128 c 4
 865 148 913 220 913 318 c 4
 913 416 865 489 787 508 c 4
 762 514 732 516 697 516 c 6
 640 516 l 5
EndSplineSet
Layer: 2
Layer: 3
Layer: 4
EndChar
StartChar: uni045A
Encoding: 1114 1114 416
Width: 1024
VWidth: 0
Flags: W
HStem: 0 120<640 851.496> 512 120<256 511 640 857.211> 1004 20G<128 256 511 640>
VStem: 128 128<0 512 632 1024> 511 129<120 512 636 1024> 913 128<181.273 454.727>
LayerCount: 5
Back
Fore
SplineSet
128 1024 m 1
 256 1024 l 1
 256 632 l 1
 511 632 l 5
 511 1024 l 1
 512 1024 l 1
 640 1024 l 1
 640 636 l 5
 697 636 l 6
 734 636 777 636 822 624 c 4
 951 590 1041 477 1041 318 c 4
 1041 159 951 46 822 12 c 4
 777 0 734 0 697 0 c 6
 640 0 l 5
 512 0 l 5
 511 0 l 5
 511 512 l 5
 256 512 l 1
 256 0 l 1
 128 0 l 1
 128 1024 l 1
640 516 m 5
 640 120 l 5
 697 120 l 6
 732 120 762 122 787 128 c 4
 865 148 913 220 913 318 c 4
 913 416 865 488 787 508 c 4
 762 514 732 516 697 516 c 6
 640 516 l 5
EndSplineSet
Layer: 2
Layer: 3
Layer: 4
EndChar
StartChar: uni045E
Encoding: 1118 1118 414
Width: 1024
VWidth: 0
Flags: W
HStem: -528 114<256 421.108> 1004 20G<201 357.261 791.724 951> 1136 120<418.746 733.254> 1388 20G<236 364 788 916>
VStem: 201 135<738.514 1024> 236 128<1307.69 1408> 788 128<1307.69 1408> 816 135<794.6 1024>
LayerCount: 5
Back
Fore
SplineSet
788 1408 m 5xf6
 916 1408 l 5
 916 1240 764 1136 576 1136 c 4
 388 1136 236 1240 236 1408 c 5
 364 1408 l 5
 364 1322 433 1256 576 1256 c 4
 719 1256 788 1322 788 1408 c 5xf6
497 0 m 1
 317.221001859 328 241.296495957 663 201 1024 c 1
 336 1024 l 1
 378.522033898 651.11663067 458.284745763 332.399568035 592 78 c 1
 602 78 l 1
 701.043249091 406.264324494 767.447334291 719.649011292 816 1024 c 1
 951 1024 l 1xf9
 858.14273855 536.225537016 763.864794847 33.8576774691 546 -401 c 0
 500.35865925 -492.100021227 405.044038811 -528 256 -528 c 1
 256 -414 l 1
 353.844538719 -414 407.789942502 -403.543610306 435 -352 c 0
 493.61342364 -240.969456718 541.039075525 -129.902169034 585 0 c 1
 497 0 l 1
EndSplineSet
Layer: 2
Layer: 3
Layer: 4
EndChar
StartChar: uni045F
Encoding: 1119 1119 419
Width: 1024
VWidth: 0
Flags: W
HStem: 0 120<384 512 640 768> 1004 20G<256 384 768 896>
VStem: 256 128<120 1024> 512 128<-256 0> 768 128<120 1024>
CounterMasks: 1 38
LayerCount: 5
Back
Fore
SplineSet
256 0 m 5
 256 1024 l 5
 384 1024 l 5
 384 120 l 5
 768 120 l 5
 768 1024 l 5
 896 1024 l 5
 896 0 l 5
 640 0 l 5
 640 -256 l 5
 512 -256 l 5
 512 0 l 5
 256 0 l 5
EndSplineSet
Layer: 2
Layer: 3
Layer: 4
EndChar
StartChar: uni0472
Encoding: 1138 1138 393
Width: 1024
VWidth: 0
Flags: W
HStem: -16 120<420.271 731.729> 648 120<240 912> 1304 120<420.271 731.729>
VStem: 112 128<326.698 648 768 1081.3> 912 128<326.698 648 768 1081.3>
LayerCount: 5
Back
Fore
SplineSet
576 1304 m 4
 404 1304 301 1178 265 1026 c 4
 246 943 241 857 240 768 c 5
 912 768 l 5
 911 857 906 943 887 1026 c 4
 851 1178 748 1304 576 1304 c 4
576 1424 m 4
 814 1424 964 1256 1012 1053 c 4
 1040 935 1040 816 1040 704 c 4
 1040 592 1040 473 1012 355 c 4
 964 152 814 -16 576 -16 c 4
 338 -16 188 152 140 355 c 4
 112 473 112 592 112 704 c 4
 112 816 112 935 140 1053 c 4
 188 1256 338 1424 576 1424 c 4
240 648 m 5
 241 556 245 468 265 382 c 4
 301 230 404 104 576 104 c 4
 748 104 851 230 887 382 c 4
 907 468 911 556 912 648 c 5
 240 648 l 5
EndSplineSet
Layer: 2
Layer: 3
Layer: 4
EndChar
StartChar: uni0490
Encoding: 1168 1168 407
Width: 1024
VWidth: 0
Flags: W
HStem: 0 21G<256 384> 1288 120<384 896>
VStem: 256 128<0 1288> 896 128<1408 1664>
LayerCount: 5
Back
Fore
SplineSet
896 1664 m 5
 1024 1664 l 5
 1024 1538.66666667 1024 1413.33333333 1024 1288 c 5
 384 1288 l 5
 384 0 l 5
 256 0 l 5
 256 1408 l 5
 896 1408 l 5
 896 1664 l 5
EndSplineSet
Layer: 2
Layer: 3
Layer: 4
EndChar
StartChar: uni04AF
Encoding: 1199 1199 428
Width: 1024
VWidth: 0
Flags: W
HStem: 1004 20G<201 356.222 795.778 951>
VStem: 201 135<745.972 1024> 512 128<-384 74.2586> 816 135<745.972 1024>
CounterMasks: 1 70
LayerCount: 5
Back
Fore
SplineSet
201 1024 m 1
 336 1024 l 1
 376.444444444 679.788571428 452 387.458285715 571 151 c 1
 581 151 l 1
 700 387.458285715 775.555555556 679.788571428 816 1024 c 1
 951 1024 l 1
 909.249459597 662.868668704 823.564305036 317.628178051 640 -0.875 c 1
 640 -384 l 5
 512 -384 l 5
 512 -0.875 l 1
 328.435694964 317.628178051 242.750540403 662.868668704 201 1024 c 1
EndSplineSet
Layer: 2
Layer: 3
Layer: 4
EndChar
StartChar: uni04E9
Encoding: 1257 1257 420
Width: 1024
VWidth: 0
Flags: W
HStem: -16 120<446.155 705.845> 512 120<355 797> 920 120<446.155 705.845>
VStem: 224 128<210.08 512 632 813.92> 800 128<210.08 512 632 813.92>
LayerCount: 5
Back
Fore
SplineSet
576 1040 m 4
 736 1040 842 945 888 829 c 4
 926 734 928 633 928 512 c 4
 928 391 926 290 888 195 c 4
 842 79 736 -16 576 -16 c 4
 416 -16 310 79 264 195 c 4
 226 290 224 391 224 512 c 4
 224 633 226 734 264 829 c 4
 310 945 416 1040 576 1040 c 4
576 920 m 4
 480 920 416 868 384 789 c 4
 366 744 358 690 355 632 c 5
 797 632 l 5
 794 690 786 744 768 789 c 4
 736 868 672 920 576 920 c 4
352 512 m 5
 352 410 354 310 384 235 c 4
 416 156 480 104 576 104 c 4
 672 104 736 156 768 235 c 4
 798 310 800 410 800 512 c 5
 352 512 l 5
EndSplineSet
Layer: 2
Layer: 3
Layer: 4
EndChar
StartChar: quoteleft
Encoding: 8216 8216 431
Width: 1024
VWidth: 0
Flags: W
HStem: 1560 120<668.998 768>
VStem: 512 128<1152 1513.26>
LayerCount: 5
Back
Fore
SplineSet
512 1385 m 6
 512 1445 512.27269412 1514.79865631 564 1585 c 4
 606 1642 678 1680 768 1680 c 5
 768 1560 l 5
 721 1560 689.120335361 1542.90901458 668 1515 c 4
 640 1478 640 1435 640 1385 c 6
 640 1152 l 5
 512 1152 l 5
 512 1385 l 6
EndSplineSet
Layer: 2
Layer: 3
Layer: 4
EndChar
StartChar: quoteright
Encoding: 8217 8217 429
Width: 1024
VWidth: 0
Flags: W
HStem: 1136 120<384 483.002>
VStem: 512 128<1302.74 1664>
LayerCount: 5
Back
Fore
SplineSet
640 1431 m 6
 640 1371 639.727500334 1301.2016076 588 1231 c 4
 546 1174 474 1136 384 1136 c 5
 384 1256 l 5
 431 1256 462.879506544 1273.0907765 484 1301 c 4
 512 1338 512 1381 512 1431 c 6
 512 1664 l 5
 640 1664 l 5
 640 1431 l 6
EndSplineSet
Layer: 2
Layer: 3
Layer: 4
EndChar
StartChar: quotesinglbase
Encoding: 8218 8218 424
Width: 1024
VWidth: 0
Flags: W
HStem: -400 120<384 483.008>
VStem: 512 128<-233.261 128>
LayerCount: 5
Back
Fore
SplineSet
640 -105 m 6
 640 -165 640 -235 588 -305 c 4
 546 -362 474 -400 384 -400 c 5
 384 -280 l 5
 431 -280 463 -263 484 -235 c 4
 512 -198 512 -155 512 -105 c 6
 512 128 l 5
 640 128 l 5
 640 -105 l 6
EndSplineSet
Layer: 2
Layer: 3
Layer: 4
EndChar
StartChar: quotedblleft
Encoding: 8220 8220 432
Width: 1024
VWidth: 0
Flags: W
HStem: 1560 120<412.998 512 796.998 896>
VStem: 256 128<1152 1513.26> 640 128<1152 1513.26>
LayerCount: 5
Back
Fore
SplineSet
640 1385 m 2
 640 1445 640.27269412 1514.79865631 692 1585 c 0
 734 1642 806 1680 896 1680 c 1
 896 1560 l 1
 849 1560 817.120335361 1542.90901458 796 1515 c 0
 768 1478 768 1435 768 1385 c 2
 768 1152 l 1
 640 1152 l 1
 640 1385 l 2
256 1385 m 2
 256 1445 256.27269412 1514.79865631 308 1585 c 0
 350 1642 422 1680 512 1680 c 1
 512 1560 l 1
 465 1560 433.120335361 1542.90901458 412 1515 c 0
 384 1478 384 1435 384 1385 c 2
 384 1152 l 1
 256 1152 l 1
 256 1385 l 2
EndSplineSet
Layer: 2
Layer: 3
Layer: 4
EndChar
StartChar: quotedblright
Encoding: 8221 8221 433
Width: 1024
VWidth: 0
Flags: W
HStem: 1136 120<256 355.002 640 739.002>
VStem: 384 128<1302.74 1664> 768 128<1302.74 1664>
LayerCount: 5
Back
Fore
SplineSet
512 1431 m 6
 512 1371 511.727500334 1301.2016076 460 1231 c 4
 418 1174 346 1136 256 1136 c 5
 256 1256 l 5
 303 1256 334.879506544 1273.0907765 356 1301 c 4
 384 1338 384 1381 384 1431 c 6
 384 1664 l 5
 512 1664 l 5
 512 1431 l 6
896 1431 m 6
 896 1371 895.727500334 1301.2016076 844 1231 c 4
 802 1174 730 1136 640 1136 c 5
 640 1256 l 5
 687 1256 718.879506544 1273.0907765 740 1301 c 4
 768 1338 768 1381 768 1431 c 6
 768 1664 l 5
 896 1664 l 5
 896 1431 l 6
EndSplineSet
Layer: 2
Layer: 3
Layer: 4
EndChar
StartChar: quotedblbase
Encoding: 8222 8222 434
Width: 1024
VWidth: 0
Flags: W
HStem: -400 120<256 355.002 640 739.002>
VStem: 384 128<-233.261 128> 768 128<-233.261 128>
LayerCount: 5
Back
Fore
SplineSet
512 -105 m 6
 512 -165 511.727500334 -234.798392403 460 -305 c 4
 418 -362 346 -400 256 -400 c 5
 256 -280 l 5
 303 -280 334.879506544 -262.909223496 356 -235 c 4
 384 -198 384 -155 384 -105 c 6
 384 128 l 5
 512 128 l 5
 512 -105 l 6
896 -105 m 6
 896 -165 895.727500334 -234.798392403 844 -305 c 4
 802 -362 730 -400 640 -400 c 5
 640 -280 l 5
 687 -280 718.879506544 -262.909223496 740 -235 c 4
 768 -198 768 -155 768 -105 c 6
 768 128 l 5
 896 128 l 5
 896 -105 l 6
EndSplineSet
Layer: 2
Layer: 3
Layer: 4
EndChar
StartChar: Euro
Encoding: 8364 8364 435
Width: 1024
VWidth: 0
Flags: W
HStem: -16 120<504.54 892.107> 512 120<127 243 373 768> 776 120<127 243 372 768> 1304 120<507.742 862.553>
VStem: 243 123<278.387 512 632 776 896 1120.36>
LayerCount: 5
Back
Fore
SplineSet
896 141 m 5
 896 17 l 5
 815 -2 730 -16 643 -16 c 4
 373.255575031 -16 247.901465928 199.60938984 245 512 c 5
 127 512 l 5
 127 632 l 5
 243 632 l 5
 243 681 243 727 243 776 c 5
 127 776 l 5
 127 896 l 5
 244 896 l 5
 248.825636538 1187.15206346 373.784067056 1424 643 1424 c 4
 719 1424 794 1413 866 1398 c 5
 866 1274 l 5
 791 1291 714 1304 643 1304 c 4
 454.016324341 1304 374.861561604 1112.77467525 372 896 c 5
 768 896 l 5
 768 776 l 5
 366 776 l 5
 366 728 366 680 366 632 c 5
 768 632 l 5
 768 512 l 5
 373 512 l 5
 373.939401804 274.16150868 454.069338305 104 643 104 c 4
 724 104 811 121 896 141 c 5
EndSplineSet
Layer: 2
Layer: 3
Layer: 4
EndChar
StartChar: uni2713
Encoding: 10003 10003 100
Width: 1024
VWidth: 0
Flags: W
HStem: 0 21G<336.5 623> 1004 20G<754 905>
VStem: 104 132<278.668 384> 776 129<770.312 1024>
LayerCount: 5
Back
SplineSet
860 1152 m 5
 819.13975737 733.772212096 728.105787404 341.231419735 447 46 c 5
 294.888755857 131.275753831 174.516253411 250.880246377 148 472 c 1029
EndSplineSet
Fore
SplineSet
776 1024 m 1
 905 1024 l 1
 858 644 757 282 489 0 c 1
 405 0 l 1
 268 79 149 194 104 384 c 1
 236 384 l 1
 271 258 344 179 437 115 c 1
 645 362 732 677 776 1024 c 1
EndSplineSet
Layer: 2
SplineSet
84.400390625 465.296875 m 5
 211.599609375 478.703125 l 5
 233.096679688 299.434570312 317.2265625 200.848632812 434.55078125 124.75390625 c 5
 673.2265625 399.698242188 757.58984375 761.59765625 796.266601562 1157.47265625 c 5
 923.733398438 1146.52734375 l 5
 882.526367188 724.755859375 790.625976562 316.793945312 494.745117188 6.0439453125 c 5
 414.153320312 -5.4951171875 l 5
 251.287109375 85.810546875 113.3828125 223.619140625 84.400390625 465.296875 c 5
EndSplineSet
Layer: 3
Layer: 4
EndChar
StartChar: zero.dotless
Encoding: 57346 57346 500
Width: 1024
VWidth: 0
Flags: W
HStem: -18 124<471.486 680.514> 1302 124<471.486 680.514>
VStem: 253 124<240.61 1167.39> 775 124<240.61 1167.39>
LayerCount: 5
Back
Fore
SplineSet
576 1302 m 4
 486 1302 432 1232 404 1144 c 4
 377 1060 377 893 377 704 c 4
 377 515 377 348 404 264 c 4
 432 176 486 106 576 106 c 4
 666 106 720 176 748 264 c 4
 775 348 775 515 775 704 c 4
 775 893 775 1060 748 1144 c 4
 720 1232 666 1302 576 1302 c 4
576 1426 m 4
 741 1426 820 1315 860 1209 c 4
 899 1105 899 926 899 704 c 4
 899 482 899 303 860 199 c 4
 820 93 741 -18 576 -18 c 4
 411 -18 332 93 292 199 c 4
 253 303 253 482 253 704 c 4
 253 926 253 1105 292 1209 c 4
 332 1315 411 1426 576 1426 c 4
EndSplineSet
Layer: 2
Layer: 3
Layer: 4
EndChar
StartChar: w.alt
Encoding: 1114118 -1 472
Width: 1024
VWidth: 0
Flags: W
HStem: -16 120<284.404 484.484 667.516 867.596> 1004 20G<128 256 896 1024>
VStem: 128 128<133.436 1024> 512 128<131.662 640> 896 128<133.436 1024>
CounterMasks: 1 38
LayerCount: 5
Back
Fore
SplineSet
571 83.896484375 m 5
 526.883682251 10.4401339758 461.32506307 -16 384 -16 c 4
 258 -16 162.427300963 61.4364190397 137 167 c 4
 128 204.364257812 128 235.708007812 128 264 c 6
 128 1024 l 5
 256 1024 l 5
 256 264 l 6
 256 239.217773438 256.000188128 218.550825427 262 193 c 4
 274.427734375 140.075195312 320.520507812 104 384 104 c 4
 447.479492188 104 493.571875944 140.075286818 506 193 c 4
 512 218.55078125 512 239.217773438 512 264 c 6
 512 640 l 5
 640 640 l 5
 640 264 l 6
 640 239.217773438 640.000188128 218.550825427 646 193 c 4
 658.427734375 140.075195312 704.520507812 104 768 104 c 4
 831.479492188 104 877.571875944 140.075286818 890 193 c 4
 896 218.55078125 896 239.217773438 896 264 c 6
 896 1024 l 5
 1024 1024 l 5
 1024 264 l 6
 1024 235.708007812 1023.99982671 204.364299554 1015 167 c 4
 989.573242187 61.4365234375 894 -16 768 -16 c 4
 690.67493693 -16 625.116317749 10.4401339758 581 83.896484375 c 5
 571 83.896484375 l 5
EndSplineSet
Layer: 2
Layer: 3
Layer: 4
EndChar
